<?xml version="1.0" encoding="UTF-8"?>
<svg id="_レイヤー_2" data-name="レイヤー 2" xmlns="http://www.w3.org/2000/svg" viewBox="0 0 1004 226">
  <g id="_レイヤー_1-2" data-name="レイヤー 1">
    <g>
      <g>
        <path d="m345.35,54.88c-2.92-.92-5.88-1.79-8.86-2.6-2.99-.81-5.66-1.76-8.04-2.86-2.37-1.1-4.29-2.4-5.75-3.91-1.46-1.5-2.19-3.41-2.19-5.73,0-3.35,1.46-6.08,4.38-8.16,2.92-2.08,6.7-3.13,11.33-3.13,3.65,0,7.43.72,11.33,2.17,3.9,1.45,7.79,3.67,11.69,6.68l14.25-26.56c-6.82-3.47-13.95-6.1-21.38-7.9-7.43-1.79-14.56-2.69-21.38-2.69-7.31,0-13.92,1.04-19.82,3.13-5.91,2.08-10.9,5.01-14.98,8.77-4.08,3.76-7.25,8.27-9.5,13.54-2.26,5.27-3.38,11.14-3.38,17.62s1.06,11.83,3.2,16.06c2.13,4.23,4.93,7.72,8.41,10.5,3.47,2.78,7.43,5.01,11.88,6.68,4.44,1.68,8.98,3.21,13.61,4.6,3.9,1.28,7.22,2.43,9.96,3.47s4.96,2.17,6.67,3.38c1.71,1.22,2.92,2.55,3.65,3.99.73,1.45,1.1,3.16,1.1,5.12,0,3.24-1.43,6.13-4.29,8.68-2.86,2.55-7.22,3.82-13.06,3.82-5.12,0-10.3-1.1-15.53-3.3-5.24-2.2-10.54-5.55-15.9-10.07l-15.35,27.43c14.86,9.84,31,14.75,48.42,14.75,8.4,0,15.92-1.07,22.56-3.21,6.64-2.14,12.24-5.15,16.81-9.03,4.57-3.87,8.04-8.53,10.41-13.97,2.38-5.44,3.56-11.51,3.56-18.22,0-9.95-2.71-18.02-8.13-24.21-5.42-6.19-13.98-11.14-25.67-14.84Z"/>
        <path d="m433.6,3.85l-52.44,130.87h38.19l8.22-22.74h51.16l8.22,22.74h38.19L472.7,3.85h-39.1Zm3.47,82.27l16.08-43.57,16.08,43.57h-32.16Z"/>
        <path d="m718.98,69.29c0-8.68-1.77-16.98-5.3-24.91-3.53-7.93-8.38-14.87-14.53-20.83-6.15-5.96-13.34-10.73-21.56-14.32-8.22-3.59-17.02-5.38-26.4-5.38h-52.98v130.87h52.98c9.5,0,18.36-1.79,26.58-5.38,8.22-3.58,15.41-8.39,21.56-14.41,6.15-6.02,10.96-12.99,14.43-20.92,3.47-7.93,5.21-16.17,5.21-24.73Zm-40.1,14.67c-1.77,4.46-4.33,8.31-7.67,11.54-3.35,3.24-7.46,5.79-12.33,7.64-4.87,1.85-10.41,2.78-16.63,2.78h-8.22V32.67h8.22c6.09,0,11.57.93,16.44,2.78,4.87,1.85,8.98,4.4,12.33,7.64,3.35,3.24,5.94,7.12,7.77,11.63,1.83,4.51,2.74,9.37,2.74,14.58s-.88,10.21-2.65,14.67Z"/>
        <path d="m762.83,3.85l-52.44,130.87h38.19l8.22-22.74h51.16l8.22,22.74h38.19L801.93,3.85h-39.1Zm3.47,82.27l16.08-43.57,16.08,43.57h-32.16Z"/>
        <polygon points="968.37 3.85 968.37 83.87 902.23 3.85 866.42 3.85 866.42 134.73 902.23 134.73 902.23 54.71 968.37 134.73 1004 134.73 1004 3.85 968.37 3.85"/>
        <rect x="540.84" y="3.85" width="35.81" height="130.87"/>
      </g>
      <g>
        <path d="m280.01,216.74c1.21-4.56,1.33-9.75,1.44-14.47l4.9.29c.58.06.81.23.81.52,0,.12-.4.58-.81.87-.35.23-.35.35-.4,1.38-.23,4.56-.4,7.67-.98,11.82l-4.96-.4Zm50.63-32.75v5.59h-7.27v7.55h7.09v5.59h-7.09v12.34c.81.23,1.67.35,2.54.35h5.82l-2.36,6.06h-1.84c-5.54,0-10.26-2.83-13.21-7.44-.69,2.77-1.85,5.3-3.23,7.73l-4.09-2.13v2.19h-5.31v-21.28c-.63.87-1.21,1.61-2.08,2.59l-4.79-2.88c.58-.58,1.15-1.15,1.61-1.73-1.27.23-2.54.4-3.81.58v23.18h-5.07v-22.66c-1.56.12-3.17.29-3.58.35-.98.17-1.04.23-1.56.87-.29.35-.52.4-.81.4-.69,0-.75-.35-.81-1.67l-.17-4.9c1.04.06,2.08.12,3.17.12,1.21-1.67,2.31-3.46,3.4-5.25-2.19-1.9-4.56-3.58-6.98-5.13l2.59-4.56c.75.35,1.38.81,2.08,1.21,1.67-3.06,3.11-6.23,4.27-9.51l4.9,1.9c.29.11.63.4.63.75,0,.29-.23.46-.92.86-.46.29-.58.35-1.1,1.38-.98,1.96-2.65,4.84-4.21,7.32.58.4,1.1.81,1.67,1.27,1.27-2.13,2.42-4.27,3.58-6.4l3.98,1.67c2.65-2.77,5.13-5.94,6.52-9.57l4.96,2.88,5.65-2.08c1.79,3.11,2.94,6.52,3.81,9.98l-5.13,2.19c-.98-3.06-2.08-6.06-3.46-8.94-.35.23-.87.4-1.38.52-.69.17-1.1.75-1.61,1.56-2.02,3.23-3.92,5.36-6.29,7.67l-2.88-2.02c-.4.06-.63.4-.87.75-1.27,2.02-2.65,3.98-4.04,5.94-1.27,1.85-2.54,3.69-3.75,5.54,1.67-.12,3.4-.23,5.07-.35-.46-1.04-.92-2.08-1.61-3l4.5-2.31c.81,1.61,1.56,3.29,2.31,4.96,1.84-3.29,3.69-6.75,4.61-10.5l5.36,2.48v-2.02h10.32c1.85-4.09,3.23-8.36,3.92-12.8l5.88.98c.4.06,1.1.17,1.1.75,0,.46-.46.63-1.04.92-.23.12-.75,1.27-1.04,2.25-.81,2.65-1.96,5.31-3.17,7.9h5.19Zm-30.51,30.74l-5.02,1.04c-.58-4.21-1.04-8.48-1.21-12.74l4.55-.52c.17,4.09.81,8.19,1.67,12.23Zm10.15-16.32v-3.58l4.44.06c.98,0,2.13.11,2.13.81,0,.23-.52.69-.92,1.1-.29.29-.29.52-.29,1.04-.06,2.94-.17,6.34-.4,9.23.69,1.61,1.44,3.11,2.48,4.56v-22.03h-8.25v-2.13c-.4.06-.63.17-.86.58-.64,1.21-1.44,2.77-2.19,4.21.52.06,1.38.17,1.38.81,0,.23,0,.29-.58.92-.17.17-.23.52-.23.75v23.64c3.06-4.96,3.29-13.32,3.29-19.95Z"/>
        <path d="m370.54,216.16c-4.27,1.15-8.53,2.08-12.86,3-3.11.63-6.11,1.21-9.4,1.96-.69.17-1.04.52-1.33,1.1-.06.11-.17.23-.35.23-.52,0-.75-.75-.98-1.56l-1.38-5.54c2.25-.12,4.84-.46,7.27-.81v-13.15h-9.4v-4.96h10.67v-23.18h34.25v4.79h-28.49v3.11h25.78v4.44h-25.78v3.17h25.78v4.44h-25.78v3.23h33.56v4.96h-7.84l2.65,2.31c.81.69,1.1.98,1.1,1.21,0,.29-.17.29-1.15.4-.35.06-.86.4-1.5.92-2.19,1.73-4.04,3.17-6,4.67,3.98,2.71,7.78,4.56,12.8,5.71l-4.56,5.65c-7.03-2.65-11.88-5.77-17.07-11.19v5.07Zm-12.97-2.54c4.21-.87,8.42-1.79,12.46-3.17-2.36-2.83-4.5-5.77-6.11-9.05h-6.34v12.22Zm13.03-12.22c1.15,2.08,2.6,3.86,4.27,5.59,2.48-1.5,4.67-3.52,6.69-5.59h-10.96Z"/>
        <path d="m414.19,209.93v-25.83h11.19v-4.79h-21.62v-5.25h49.02v5.25h-21.8v4.79h11.48v25.83h-28.26Zm32-26.99l5.36.63c1.5.17,1.67.29,1.67.63,0,.17-.06.29-.35.52-.69.52-.75.58-.75,1.33v35.52h-5.94v-2.25h-35.7v2.25h-5.94v-37.94l5.71.46c.87.06,1.56.29,1.56.75,0,.35-.23.52-.92.98-.29.17-.4.58-.4.92v27.62h35.7v-31.43Zm-20.82,6.11h-5.77v5.42h5.77v-5.42Zm-5.77,10.21v5.71h5.77v-5.71h-5.77Zm17.24-4.79v-5.42h-5.88v5.42h5.88Zm-5.88,10.5h5.88v-5.71h-5.88v5.71Z"/>
        <path d="m470.06,192.69c-.69,1.15-1.38,2.31-2.13,3.46l-5.48-2.94c5.02-6.52,8.82-13.72,10.78-21.68l6.06,1.38c.46.12,1.33.46,1.33,1.04,0,.52-.35.69-.81.92-.87.4-1.21.75-1.5,1.56-.75,2.13-1.61,4.27-2.59,6.34.58.23,1.67.63,1.67,1.33,0,.4-.29.75-.86,1.15-.46.35-.58.98-.58,1.61v35.58h-5.88v-29.75Zm27.62,2.54c-1.21,1.15-2.48,2.19-3.75,3.23,4.5,4.44,6.8,9.98,6.8,16.32,0,7.21-4.04,7.61-10.09,7.73l-1.38-5.36c1.04.17,2.13.29,3.17.29,2.42,0,2.94-.98,2.94-3.29,0-.46-.06-.98-.12-1.5-4.27,3.4-9.11,5.94-14.13,8.02l-2.59-3.86c5.65-2.25,10.9-5.19,15.69-8.94-.23-.63-.46-1.27-.75-1.84-3.98,3.17-8.48,5.65-13.21,7.5l-3.23-3.58c5.07-1.79,9.92-4.32,14.24-7.55-.35-.4-.69-.81-1.1-1.15-3.11,1.96-6.4,3.75-9.98,4.9l-3.06-3.86c4.79-1.5,9.4-3.63,13.15-7.04h-7.84v-8.48c-.29.29-.58.58-.92.86l-4.09-3.52c4.27-3.63,7.79-7.96,10.32-12.97l5.25,1.33c.46.12,1.38.35,1.38.87,0,.46-.4.63-.75.75-.52.17-1.04.4-1.38.81h13.72l1.5,1.67c-1.44,2.08-3.06,4.04-4.67,5.94h9.57v12.74h-9.34c.29,2.6.81,5.19,1.73,7.67,2.08-1.79,3.98-3.63,5.77-5.71l3.75,3.63c.35.35.75.75.75,1.27,0,.23-.23.46-.52.46h-.81c-.58,0-.92.23-1.33.58-1.73,1.5-3.52,2.94-5.42,4.21,2.19,3.69,5.07,6.69,8.25,9.51l-4.04,4.44c-7.55-6.75-12.05-16.03-13.09-26.06h-.4Zm-1.61-12.74c.87-1.15,1.67-2.25,2.36-3.46h-8.76c-.92,1.21-1.85,2.36-2.83,3.46h9.23Zm-1.67,4.15h-6.63v4.44h6.63v-4.44Zm12.4,4.44v-4.44h-6.92v4.44h6.92Z"/>
        <path d="m569.01,189.75l2.19,6.17c-3.92,1.5-7.78,3-11.71,4.56.29,3.86.52,7.73.58,11.59h-6.52c.12-2.48.29-6.57.29-9.11-3.29,1.61-8.07,4.38-8.07,8.65,0,4.04,5.07,4.44,8.07,4.44,5.02,0,10.09-.92,14.99-2.02v6.23c-4.32.69-8.65,1.21-13.03,1.21-6.17,0-15.97-.58-15.97-8.88,0-4.33,2.77-8.25,6.23-10.67,2.36-1.73,4.9-3.06,7.5-4.38-.52-2.54-2.08-4.09-4.61-4.09-5.31,0-10.03,6.8-12.63,10.84l-5.3-3.46c4.55-4.56,8.65-9.69,11.47-15.51-2.6.17-5.07.29-6.69.29-.4,0-.81,0-1.44-.06l-.81-6c2.54.23,5.31.35,6.86.35,1.44,0,3.29,0,4.61-.06.92-2.54,1.84-5.07,2.36-7.67l6.29,1.1c1.15.23,1.38.4,1.38.75s-.17.58-.92.98c-.52.29-.69.69-.92,1.21-.29.63-1.04,2.25-1.38,2.94,3.69-.46,8.48-1.33,11.88-2.88l-.69,6.17c-4.15.98-9.23,1.67-13.9,2.19-.92,1.73-1.85,3.4-3,5.02,1.61-.63,3.29-.98,5.02-.98,4.5,0,6.69,2.19,7.79,6.46,3.52-1.44,6.98-3.11,10.09-5.36Z"/>
        <path d="m616.69,178.39h-8.02v-5.94h12.51c1.44,4.15,3,8.19,5.88,11.59,3.23,3.81,7.04,5.77,11.59,7.55l-4.27,6.06c-2.31-1.33-7.21-4.32-8.82-6.23v6c0,5.88-.12,16.32-1.96,19.55-2.08,3.69-7.04,3.92-10.84,4.04l-2.65-7.09c1.61.17,3.23.23,4.84.23,3.17,0,3.86-.92,4.09-3.98.4-4.73.4-9.51.4-14.3h-8.19c-1.27,12.05-6.29,20.41-17.47,25.6l-4.73-5.19c9.86-3.46,14.93-9.98,15.63-20.41h-7.61v-4.38c-2.25,2.36-4.5,4.67-7.21,6.46l-4.67-4.38c6.75-5.02,11.99-10.67,15.11-18.62l5.71,3c.4.23.98.58.98,1.1,0,.75-.75.81-1.33.87-.4.06-.58.35-.75.69-1.67,3.52-4.32,6.86-6.92,9.86h26.53c-3.46-3.46-6.17-7.5-7.84-12.05Z"/>
        <path d="m665.76,191.77h9.4v4.27h-9.4v3.06h11.82v4.61h-29.7v-4.61h12.51v-3.06h-8.82v-4.27h8.82v-2.88h-6.4v-2.88h-5.13v-9.8h11.53v-3.63l5.42.12c.64,0,1.33.11,1.33.58,0,.29-.23.46-.87.87-.29.17-.4.4-.4.69v1.38h11.07v9.8h-4.67v2.88h-6.52v2.88Zm-9.05,30.16h-5.59v-15.28h23.87v15.28h-5.42v-1.27h-12.86v1.27Zm15.45-37.54v-3.58h-18.05v3.58h6.29v-3l4.79.23c1.27.06,2.02.06,2.02.81,0,.35-.29.52-.69.69-.69.29-.75.4-.75,1.04v.23h6.4Zm-2.6,27.04h-12.86v4.73h12.86v-4.73Zm11.19-34.77l5.48.29c.92.06,1.44.12,1.44.58,0,.17-.29.46-.81.92-.46.4-.69.75-.69.92v28.95h-5.42v-31.66Zm3.81,39.39c.81.12,1.61.12,2.42.12,2.25,0,3.29-.12,3.29-2.65v-40.25l5.82.23c.98.06,1.61.11,1.61.63,0,.23-.23.4-.75.87-.63.52-.87.75-.87,1.15v38.98c0,1.73,0,4.04-1.33,5.36-1.56,1.5-4.27,1.5-7.61,1.61l-2.6-6.06Z"/>
        <path d="m755.89,179.95v6.34c-3.52-.12-6.92-.12-9.17-.12s-4.9.06-7.27.23c0,2.48.06,4.9.11,7.38,1.5,2.25,2.19,4.61,2.19,8.02,0,5.59-1.56,9.51-3.86,13.44-1.96,3.34-4.38,5.82-6.86,7.96l-6.4-3c2.88-1.79,5.48-3.98,7.5-6.8,1.04-1.44,1.85-2.94,2.48-4.67-1.38,1.61-2.94,2.36-5.07,2.36-5.36,0-7.96-4.9-7.96-9.69,0-5.82,3.69-10.9,9.86-10.9.58,0,1.5.06,2.13.17,0-1.27-.06-2.59-.17-3.86-3.86.23-8.36.63-11.71.98-3.17.35-6.52.75-9.8,1.33l-.69-6.8c7.15-.12,15.45-.46,22.03-.87-.17-3.23-.52-6.46-1.1-9.63l6.98.87c1.27.17,1.56.4,1.56.86,0,.4-.29.64-.58.87-.35.29-.52.58-.58,1.38-.11,1.56-.11,3.52-.11,5.31,5.54-.29,11.01-.63,16.49-1.15Zm-28.49,21.1c0,2.02.75,4.67,3.23,4.67,2.94,0,3.86-2.94,3.86-5.36,0-2.02-.92-4.27-3.29-4.27-2.48,0-3.81,2.77-3.81,4.96Z"/>
        <path d="m807.38,204.05c0-5.71-4.04-8.07-9.28-8.07-6.57,0-11.65,3.46-18.8,11.94l-4.9-4.79c4.44-3.52,8.59-7.32,12.57-11.3,3.06-3.11,5.88-6.46,8.36-10.03-4.56.58-9.11,1.04-13.72,1.33l-.98-6.63c1.15.11,3.29.17,5.02.17,5.02,0,14.94-.92,19.55-2.88l2.65,4.56c-3.81,2.83-7.27,6.57-12.74,13.09,1.56-.4,3.17-.63,4.84-.63,8.3,0,13.61,4.9,13.61,13.32,0,10.5-8.76,16.49-18.51,16.49-5.42,0-11.82-1.9-11.82-8.36,0-5.19,4.27-7.78,9-7.78,4.15,0,7.32,1.84,9.46,4.84.58.81,1.15,1.9,1.44,2.88,2.36-1.73,4.27-4.67,4.27-8.13Zm-10.67,7.73c-.98-1.44-2.71-2.42-4.5-2.42-1.5,0-3.4.92-3.4,2.71,0,2.54,3.63,3.11,5.54,3.11,1.21,0,2.36-.06,3.58-.52-.17-.98-.58-2.02-1.21-2.88Z"/>
        <path d="m846.01,191.6l-6.06,2.31c-1.44-3.92-3.29-7.73-5.59-11.24l5.82-2.36c2.02,2.71,4.44,7.5,5.82,11.3Zm32.12-10.67c0,.46-.35.64-.81.75-.4.12-.58.29-.81,1.04-1.56,5.42-3.8,11.99-6.98,17.59-5.07,8.94-12.4,14.94-21.51,19.43l-5.42-5.02c6.98-2.83,13.38-7.04,18.05-12.92,5.54-7.03,7.9-15.4,9.63-23.99l6.23,2.02c1.27.4,1.61.63,1.61,1.1Zm-18.91,7.79l-6.06,2.08c-1.04-3.98-2.71-7.96-4.84-11.53l5.65-2.31c2.08,3.11,4.09,7.78,5.25,11.76Z"/>
        <path d="m938.04,200.25h-41.4v-6.4h41.4v6.4Z"/>
        <path d="m972.57,179.08c0,.4-.4.81-.81,1.15-.4.35-.63.52-.63,2.19,0,3.46,0,7.27-.29,10.9-.92,10.61-5.13,16.61-13.21,23.12l-4.9-4.96c5.13-3.58,8.88-7.38,10.61-12.97,1.27-4.04,1.44-9.11,1.44-13.61,0-2.48-.06-4.9-.17-7.38l6.11.81c1.27.17,1.85.23,1.85.75Zm13.67-.06c0,.29-.06.52-.98,1.04-.52.29-.87.75-.87,1.38v26.18c6.34-4.21,11.65-9.51,15.57-16.09l4.04,5.19c-5.71,8.25-13.26,14.88-21.91,20.01l-3.86-3.34v-35.98l6.75.92c.92.12,1.27.35,1.27.69Z"/>
      </g>
      <g>
        <rect x="157.53" width="68.47" height="173"/>
        <rect x="78.77" width="68.47" height="223"/>
        <rect width="68.47" height="223"/>
        <path d="m216,10v206H10V10h206M226,0H0v226h226V0h0Z"/>
      </g>
    </g>
  </g>
</svg>