<?xml version="1.0" encoding="UTF-8"?>
<svg id="_レイヤー_1" data-name="レイヤー 1" xmlns="http://www.w3.org/2000/svg" viewBox="0 0 276.4 277.27">
  <defs>
    <style>
      .cls-1 {
        fill: #fff;
        stroke-width: 0px;
      }
    </style>
  </defs>
  <g>
    <path class="cls-1" d="M44.63,274.27c-12,5.99-23.18,2.94-31.48-8.6-7.43-10.33-11.9-26.43-12.93-46.55-2.33-45.61,13.88-88.98,37.7-100.87,10.6-5.29,18.49-5.54,25.05-5.17l3.81,35.71-.03.03c-11.84-23.49-19.08-33.01-29.84-27.64-15.59,7.78-21.88,36.69-19.24,88.38,1.46,28.55,5.76,48.55,12.44,57.85,4.18,5.81,9.12,7.34,14.7,4.56,12.41-6.2,18.21-29.63,25.25-64.78l.05,39.05c-2.31,4.63-11.22,20.92-25.5,28.04Z"/>
    <path class="cls-1" d="M114.47,236.35c-10.42,5.2-20.52,2.01-28.44-9-7.78-10.82-12.65-28.22-13.71-49-2.24-43.92,12.97-86.8,34.63-97.62,10.39-5.19,20.49-1.95,28.44,9.11,7.86,10.92,12.77,28.42,13.83,49.26,2.23,43.69-13.04,86.4-34.75,97.24ZM106.67,83.31c-13.36,6.67-19.36,37.03-16.89,85.47,1.61,31.5,5.75,52.1,12.31,61.22,3.62,5.04,7.89,6.38,12.68,3.98,13.43-6.7,19.46-37,17-85.31-1.61-31.6-5.76-52.25-12.32-61.37-3.64-5.06-7.94-6.41-12.78-3.99Z"/>
    <path class="cls-1" d="M160.56,208.83c2.17-15.85,2.69-25.54,1.68-45.39l-3.13-61.39c-1.03-20.21-2.53-28.9-6.31-42.25l28.94-14.45c11.47-5.73,19.82-5.11,24.81,1.83,3.45,4.8,5.41,12.62,5.99,23.9.91,17.87-1.62,49.88-28.86,63.47l-6.37,3.18.87,17.11c.99,19.5,2.39,29.09,6.27,42.06l-23.89,11.93ZM176.87,50.22c-.84.42-1.88.94-3.04,1.75l-.86.6,4.22,82.81,4.23-2.11c4-2,16.89-11.73,14.78-53.16-.66-12.97-2.81-22.06-6.39-27.04-3.26-4.54-7.62-5.49-12.94-2.84Z"/>
    <path class="cls-1" d="M240.37,170.89c2-12.68,2.73-21.28,1.83-38.78l-1.71-33.43-14.17-39.25c-5.18-14.35-8.45-22.63-12.69-28.1l27.8-13.88c-2.04,8.9-1.84,22.63,2.59,35.03l12.13,33.57,7.25-37.02c1.62-8.41,4.29-28.3-3.45-40.83l16.44-8.21c-4.64,13.07-7.44,26.11-10.52,41.42l-9.44,48.75,1.7,33.35c.85,16.68,2.31,24.43,5.8,35.61l-23.58,11.77Z"/>
  </g>
  <path class="cls-1" d="M163.79,158.64c-54.55-.85-53.86-1.54-53.01,53.01.85-54.55,1.54-53.86-53.01-53.01,54.55.85,53.86,1.54,53.01-53.01-.85,54.55-1.54,53.86,53.01,53.01Z"/>
</svg>