<svg width="448" height="640" viewBox="0 0 448 640" fill="none" xmlns="http://www.w3.org/2000/svg">
<g clip-path="url(#clip0_7_124)">
<path d="M301.82 640H146.18L146.254 639.693L223.745 320L146.18 0H301.82L301.746 0.306509L224.255 320L301.82 640ZM146.808 639.506H301.187L223.998 321.048L146.808 639.506ZM146.808 0.494369L223.998 318.952L301.192 0.494369H146.813H146.808Z" fill="#0942DB"/>
<path d="M146.497 640C146.358 640 146.249 639.891 146.249 639.753V0.247184C146.249 0.108761 146.358 0 146.497 0C146.635 0 146.744 0.108761 146.744 0.247184V639.753C146.744 639.891 146.635 640 146.497 640Z" fill="#0942DB"/>
<path d="M301.504 640C301.365 640 301.256 639.891 301.256 639.753V0.247184C301.256 0.108761 301.365 0 301.504 0C301.642 0 301.751 0.108761 301.751 0.247184V639.753C301.751 639.891 301.642 640 301.504 640Z" fill="#0942DB"/>
<path d="M447.753 300.304H0.247116V339.691H447.753V300.304Z" fill="#F2F6FE"/>
<path d="M448 339.943H446.764C446.626 339.943 446.517 339.834 446.517 339.696C446.517 339.557 446.626 339.448 446.764 339.448H447.506V338.707C447.506 338.569 447.615 338.46 447.753 338.46C447.891 338.46 448 338.569 448 338.707V339.943Z" fill="#0942DB"/>
<path d="M444.783 339.943H442.801C442.662 339.943 442.554 339.834 442.554 339.696C442.554 339.557 442.662 339.448 442.801 339.448H444.783C444.921 339.448 445.03 339.557 445.03 339.696C445.03 339.834 444.921 339.943 444.783 339.943ZM440.824 339.943H438.842C438.703 339.943 438.595 339.834 438.595 339.696C438.595 339.557 438.703 339.448 438.842 339.448H440.824C440.962 339.448 441.071 339.557 441.071 339.696C441.071 339.834 440.962 339.943 440.824 339.943ZM436.865 339.943H434.883C434.745 339.943 434.636 339.834 434.636 339.696C434.636 339.557 434.745 339.448 434.883 339.448H436.865C437.003 339.448 437.112 339.557 437.112 339.696C437.112 339.834 437.003 339.943 436.865 339.943ZM432.901 339.943H430.919C430.781 339.943 430.672 339.834 430.672 339.696C430.672 339.557 430.781 339.448 430.919 339.448H432.901C433.039 339.448 433.148 339.557 433.148 339.696C433.148 339.834 433.039 339.943 432.901 339.943ZM428.942 339.943H426.96C426.822 339.943 426.713 339.834 426.713 339.696C426.713 339.557 426.822 339.448 426.96 339.448H428.942C429.081 339.448 429.189 339.557 429.189 339.696C429.189 339.834 429.081 339.943 428.942 339.943ZM424.983 339.943H423.002C422.863 339.943 422.754 339.834 422.754 339.696C422.754 339.557 422.863 339.448 423.002 339.448H424.983C425.122 339.448 425.231 339.557 425.231 339.696C425.231 339.834 425.122 339.943 424.983 339.943ZM421.025 339.943H419.043C418.904 339.943 418.796 339.834 418.796 339.696C418.796 339.557 418.904 339.448 419.043 339.448H421.025C421.163 339.448 421.272 339.557 421.272 339.696C421.272 339.834 421.163 339.943 421.025 339.943ZM417.061 339.943H415.079C414.941 339.943 414.832 339.834 414.832 339.696C414.832 339.557 414.941 339.448 415.079 339.448H417.061C417.199 339.448 417.308 339.557 417.308 339.696C417.308 339.834 417.199 339.943 417.061 339.943ZM413.102 339.943H411.12C410.982 339.943 410.873 339.834 410.873 339.696C410.873 339.557 410.982 339.448 411.12 339.448H413.102C413.24 339.448 413.349 339.557 413.349 339.696C413.349 339.834 413.24 339.943 413.102 339.943ZM409.143 339.943H407.161C407.023 339.943 406.914 339.834 406.914 339.696C406.914 339.557 407.023 339.448 407.161 339.448H409.143C409.282 339.448 409.39 339.557 409.39 339.696C409.39 339.834 409.282 339.943 409.143 339.943ZM405.179 339.943H403.198C403.059 339.943 402.95 339.834 402.95 339.696C402.95 339.557 403.059 339.448 403.198 339.448H405.179C405.318 339.448 405.427 339.557 405.427 339.696C405.427 339.834 405.318 339.943 405.179 339.943ZM401.221 339.943H399.239C399.1 339.943 398.992 339.834 398.992 339.696C398.992 339.557 399.1 339.448 399.239 339.448H401.221C401.359 339.448 401.468 339.557 401.468 339.696C401.468 339.834 401.359 339.943 401.221 339.943ZM397.262 339.943H395.28C395.141 339.943 395.033 339.834 395.033 339.696C395.033 339.557 395.141 339.448 395.28 339.448H397.262C397.4 339.448 397.509 339.557 397.509 339.696C397.509 339.834 397.4 339.943 397.262 339.943ZM393.303 339.943H391.321C391.183 339.943 391.074 339.834 391.074 339.696C391.074 339.557 391.183 339.448 391.321 339.448H393.303C393.441 339.448 393.55 339.557 393.55 339.696C393.55 339.834 393.441 339.943 393.303 339.943ZM389.339 339.943H387.357C387.219 339.943 387.11 339.834 387.11 339.696C387.11 339.557 387.219 339.448 387.357 339.448H389.339C389.478 339.448 389.586 339.557 389.586 339.696C389.586 339.834 389.478 339.943 389.339 339.943ZM385.38 339.943H383.398C383.26 339.943 383.151 339.834 383.151 339.696C383.151 339.557 383.26 339.448 383.398 339.448H385.38C385.519 339.448 385.627 339.557 385.627 339.696C385.627 339.834 385.519 339.943 385.38 339.943ZM381.421 339.943H379.44C379.301 339.943 379.192 339.834 379.192 339.696C379.192 339.557 379.301 339.448 379.44 339.448H381.421C381.56 339.448 381.669 339.557 381.669 339.696C381.669 339.834 381.56 339.943 381.421 339.943ZM377.458 339.943H375.476C375.337 339.943 375.229 339.834 375.229 339.696C375.229 339.557 375.337 339.448 375.476 339.448H377.458C377.596 339.448 377.705 339.557 377.705 339.696C377.705 339.834 377.596 339.943 377.458 339.943ZM373.499 339.943H371.517C371.379 339.943 371.27 339.834 371.27 339.696C371.27 339.557 371.379 339.448 371.517 339.448H373.499C373.637 339.448 373.746 339.557 373.746 339.696C373.746 339.834 373.637 339.943 373.499 339.943ZM369.54 339.943H367.558C367.42 339.943 367.311 339.834 367.311 339.696C367.311 339.557 367.42 339.448 367.558 339.448H369.54C369.678 339.448 369.787 339.557 369.787 339.696C369.787 339.834 369.678 339.943 369.54 339.943ZM365.581 339.943H363.599C363.461 339.943 363.352 339.834 363.352 339.696C363.352 339.557 363.461 339.448 363.599 339.448H365.581C365.72 339.448 365.828 339.557 365.828 339.696C365.828 339.834 365.72 339.943 365.581 339.943ZM361.617 339.943H359.636C359.497 339.943 359.388 339.834 359.388 339.696C359.388 339.557 359.497 339.448 359.636 339.448H361.617C361.756 339.448 361.865 339.557 361.865 339.696C361.865 339.834 361.756 339.943 361.617 339.943ZM357.659 339.943H355.677C355.538 339.943 355.43 339.834 355.43 339.696C355.43 339.557 355.538 339.448 355.677 339.448H357.659C357.797 339.448 357.906 339.557 357.906 339.696C357.906 339.834 357.797 339.943 357.659 339.943ZM353.7 339.943H351.718C351.58 339.943 351.471 339.834 351.471 339.696C351.471 339.557 351.58 339.448 351.718 339.448H353.7C353.838 339.448 353.947 339.557 353.947 339.696C353.947 339.834 353.838 339.943 353.7 339.943ZM349.736 339.943H347.754C347.616 339.943 347.507 339.834 347.507 339.696C347.507 339.557 347.616 339.448 347.754 339.448H349.736C349.874 339.448 349.983 339.557 349.983 339.696C349.983 339.834 349.874 339.943 349.736 339.943ZM345.777 339.943H343.795C343.657 339.943 343.548 339.834 343.548 339.696C343.548 339.557 343.657 339.448 343.795 339.448H345.777C345.916 339.448 346.024 339.557 346.024 339.696C346.024 339.834 345.916 339.943 345.777 339.943ZM341.818 339.943H339.836C339.698 339.943 339.589 339.834 339.589 339.696C339.589 339.557 339.698 339.448 339.836 339.448H341.818C341.957 339.448 342.065 339.557 342.065 339.696C342.065 339.834 341.957 339.943 341.818 339.943ZM337.86 339.943H335.878C335.739 339.943 335.631 339.834 335.631 339.696C335.631 339.557 335.739 339.448 335.878 339.448H337.86C337.998 339.448 338.107 339.557 338.107 339.696C338.107 339.834 337.998 339.943 337.86 339.943ZM333.896 339.943H331.914C331.776 339.943 331.667 339.834 331.667 339.696C331.667 339.557 331.776 339.448 331.914 339.448H333.896C334.034 339.448 334.143 339.557 334.143 339.696C334.143 339.834 334.034 339.943 333.896 339.943ZM329.937 339.943H327.955C327.817 339.943 327.708 339.834 327.708 339.696C327.708 339.557 327.817 339.448 327.955 339.448H329.937C330.075 339.448 330.184 339.557 330.184 339.696C330.184 339.834 330.075 339.943 329.937 339.943ZM325.978 339.943H323.996C323.858 339.943 323.749 339.834 323.749 339.696C323.749 339.557 323.858 339.448 323.996 339.448H325.978C326.117 339.448 326.225 339.557 326.225 339.696C326.225 339.834 326.117 339.943 325.978 339.943ZM322.014 339.943H320.032C319.894 339.943 319.785 339.834 319.785 339.696C319.785 339.557 319.894 339.448 320.032 339.448H322.014C322.153 339.448 322.261 339.557 322.261 339.696C322.261 339.834 322.153 339.943 322.014 339.943ZM318.056 339.943H316.074C315.935 339.943 315.827 339.834 315.827 339.696C315.827 339.557 315.935 339.448 316.074 339.448H318.056C318.194 339.448 318.303 339.557 318.303 339.696C318.303 339.834 318.194 339.943 318.056 339.943ZM314.097 339.943H312.115C311.976 339.943 311.868 339.834 311.868 339.696C311.868 339.557 311.976 339.448 312.115 339.448H314.097C314.235 339.448 314.344 339.557 314.344 339.696C314.344 339.834 314.235 339.943 314.097 339.943ZM310.133 339.943H308.151C308.013 339.943 307.904 339.834 307.904 339.696C307.904 339.557 308.013 339.448 308.151 339.448H310.133C310.271 339.448 310.38 339.557 310.38 339.696C310.38 339.834 310.271 339.943 310.133 339.943ZM306.174 339.943H304.192C304.054 339.943 303.945 339.834 303.945 339.696C303.945 339.557 304.054 339.448 304.192 339.448H306.174C306.312 339.448 306.421 339.557 306.421 339.696C306.421 339.834 306.312 339.943 306.174 339.943ZM302.215 339.943H300.233C300.095 339.943 299.986 339.834 299.986 339.696C299.986 339.557 300.095 339.448 300.233 339.448H302.215C302.354 339.448 302.462 339.557 302.462 339.696C302.462 339.834 302.354 339.943 302.215 339.943ZM298.256 339.943H296.275C296.136 339.943 296.027 339.834 296.027 339.696C296.027 339.557 296.136 339.448 296.275 339.448H298.256C298.395 339.448 298.504 339.557 298.504 339.696C298.504 339.834 298.395 339.943 298.256 339.943ZM294.293 339.943H292.311C292.172 339.943 292.064 339.834 292.064 339.696C292.064 339.557 292.172 339.448 292.311 339.448H294.293C294.431 339.448 294.54 339.557 294.54 339.696C294.54 339.834 294.431 339.943 294.293 339.943ZM290.334 339.943H288.352C288.214 339.943 288.105 339.834 288.105 339.696C288.105 339.557 288.214 339.448 288.352 339.448H290.334C290.472 339.448 290.581 339.557 290.581 339.696C290.581 339.834 290.472 339.943 290.334 339.943ZM286.375 339.943H284.393C284.255 339.943 284.146 339.834 284.146 339.696C284.146 339.557 284.255 339.448 284.393 339.448H286.375C286.513 339.448 286.622 339.557 286.622 339.696C286.622 339.834 286.513 339.943 286.375 339.943ZM282.416 339.943H280.434C280.296 339.943 280.187 339.834 280.187 339.696C280.187 339.557 280.296 339.448 280.434 339.448H282.416C282.555 339.448 282.663 339.557 282.663 339.696C282.663 339.834 282.555 339.943 282.416 339.943ZM278.452 339.943H276.471C276.332 339.943 276.223 339.834 276.223 339.696C276.223 339.557 276.332 339.448 276.471 339.448H278.452C278.591 339.448 278.7 339.557 278.7 339.696C278.7 339.834 278.591 339.943 278.452 339.943ZM274.494 339.943H272.512C272.373 339.943 272.265 339.834 272.265 339.696C272.265 339.557 272.373 339.448 272.512 339.448H274.494C274.632 339.448 274.741 339.557 274.741 339.696C274.741 339.834 274.632 339.943 274.494 339.943ZM270.535 339.943H268.553C268.414 339.943 268.306 339.834 268.306 339.696C268.306 339.557 268.414 339.448 268.553 339.448H270.535C270.673 339.448 270.782 339.557 270.782 339.696C270.782 339.834 270.673 339.943 270.535 339.943ZM266.571 339.943H264.589C264.451 339.943 264.342 339.834 264.342 339.696C264.342 339.557 264.451 339.448 264.589 339.448H266.571C266.709 339.448 266.818 339.557 266.818 339.696C266.818 339.834 266.709 339.943 266.571 339.943ZM262.612 339.943H260.63C260.492 339.943 260.383 339.834 260.383 339.696C260.383 339.557 260.492 339.448 260.63 339.448H262.612C262.751 339.448 262.859 339.557 262.859 339.696C262.859 339.834 262.751 339.943 262.612 339.943ZM258.653 339.943H256.671C256.533 339.943 256.424 339.834 256.424 339.696C256.424 339.557 256.533 339.448 256.671 339.448H258.653C258.792 339.448 258.9 339.557 258.9 339.696C258.9 339.834 258.792 339.943 258.653 339.943ZM254.695 339.943H252.713C252.574 339.943 252.466 339.834 252.466 339.696C252.466 339.557 252.574 339.448 252.713 339.448H254.695C254.833 339.448 254.942 339.557 254.942 339.696C254.942 339.834 254.833 339.943 254.695 339.943ZM250.731 339.943H248.749C248.61 339.943 248.502 339.834 248.502 339.696C248.502 339.557 248.61 339.448 248.749 339.448H250.731C250.869 339.448 250.978 339.557 250.978 339.696C250.978 339.834 250.869 339.943 250.731 339.943ZM246.772 339.943H244.79C244.652 339.943 244.543 339.834 244.543 339.696C244.543 339.557 244.652 339.448 244.79 339.448H246.772C246.91 339.448 247.019 339.557 247.019 339.696C247.019 339.834 246.91 339.943 246.772 339.943ZM242.813 339.943H240.831C240.693 339.943 240.584 339.834 240.584 339.696C240.584 339.557 240.693 339.448 240.831 339.448H242.813C242.951 339.448 243.06 339.557 243.06 339.696C243.06 339.834 242.951 339.943 242.813 339.943ZM238.849 339.943H236.867C236.729 339.943 236.62 339.834 236.62 339.696C236.62 339.557 236.729 339.448 236.867 339.448H238.849C238.988 339.448 239.096 339.557 239.096 339.696C239.096 339.834 238.988 339.943 238.849 339.943ZM234.89 339.943H232.909C232.77 339.943 232.661 339.834 232.661 339.696C232.661 339.557 232.77 339.448 232.909 339.448H234.89C235.029 339.448 235.138 339.557 235.138 339.696C235.138 339.834 235.029 339.943 234.89 339.943ZM230.932 339.943H228.95C228.811 339.943 228.703 339.834 228.703 339.696C228.703 339.557 228.811 339.448 228.95 339.448H230.932C231.07 339.448 231.179 339.557 231.179 339.696C231.179 339.834 231.07 339.943 230.932 339.943ZM226.968 339.943H224.986C224.848 339.943 224.739 339.834 224.739 339.696C224.739 339.557 224.848 339.448 224.986 339.448H226.968C227.106 339.448 227.215 339.557 227.215 339.696C227.215 339.834 227.106 339.943 226.968 339.943ZM223.009 339.943H221.027C220.889 339.943 220.78 339.834 220.78 339.696C220.78 339.557 220.889 339.448 221.027 339.448H223.009C223.147 339.448 223.256 339.557 223.256 339.696C223.256 339.834 223.147 339.943 223.009 339.943ZM219.05 339.943H217.068C216.93 339.943 216.821 339.834 216.821 339.696C216.821 339.557 216.93 339.448 217.068 339.448H219.05C219.189 339.448 219.297 339.557 219.297 339.696C219.297 339.834 219.189 339.943 219.05 339.943ZM215.091 339.943H213.11C212.971 339.943 212.862 339.834 212.862 339.696C212.862 339.557 212.971 339.448 213.11 339.448H215.091C215.23 339.448 215.339 339.557 215.339 339.696C215.339 339.834 215.23 339.943 215.091 339.943ZM211.128 339.943H209.146C209.007 339.943 208.899 339.834 208.899 339.696C208.899 339.557 209.007 339.448 209.146 339.448H211.128C211.266 339.448 211.375 339.557 211.375 339.696C211.375 339.834 211.266 339.943 211.128 339.943ZM207.169 339.943H205.187C205.049 339.943 204.94 339.834 204.94 339.696C204.94 339.557 205.049 339.448 205.187 339.448H207.169C207.307 339.448 207.416 339.557 207.416 339.696C207.416 339.834 207.307 339.943 207.169 339.943ZM203.21 339.943H201.228C201.09 339.943 200.981 339.834 200.981 339.696C200.981 339.557 201.09 339.448 201.228 339.448H203.21C203.348 339.448 203.457 339.557 203.457 339.696C203.457 339.834 203.348 339.943 203.21 339.943ZM199.246 339.943H197.264C197.126 339.943 197.017 339.834 197.017 339.696C197.017 339.557 197.126 339.448 197.264 339.448H199.246C199.385 339.448 199.493 339.557 199.493 339.696C199.493 339.834 199.385 339.943 199.246 339.943ZM195.287 339.943H193.305C193.167 339.943 193.058 339.834 193.058 339.696C193.058 339.557 193.167 339.448 193.305 339.448H195.287C195.426 339.448 195.534 339.557 195.534 339.696C195.534 339.834 195.426 339.943 195.287 339.943ZM191.329 339.943H189.347C189.208 339.943 189.1 339.834 189.1 339.696C189.1 339.557 189.208 339.448 189.347 339.448H191.329C191.467 339.448 191.576 339.557 191.576 339.696C191.576 339.834 191.467 339.943 191.329 339.943ZM187.37 339.943H185.388C185.249 339.943 185.141 339.834 185.141 339.696C185.141 339.557 185.249 339.448 185.388 339.448H187.37C187.508 339.448 187.617 339.557 187.617 339.696C187.617 339.834 187.508 339.943 187.37 339.943ZM183.406 339.943H181.424C181.286 339.943 181.177 339.834 181.177 339.696C181.177 339.557 181.286 339.448 181.424 339.448H183.406C183.544 339.448 183.653 339.557 183.653 339.696C183.653 339.834 183.544 339.943 183.406 339.943ZM179.447 339.943H177.465C177.327 339.943 177.218 339.834 177.218 339.696C177.218 339.557 177.327 339.448 177.465 339.448H179.447C179.585 339.448 179.694 339.557 179.694 339.696C179.694 339.834 179.585 339.943 179.447 339.943ZM175.488 339.943H173.506C173.368 339.943 173.259 339.834 173.259 339.696C173.259 339.557 173.368 339.448 173.506 339.448H175.488C175.627 339.448 175.735 339.557 175.735 339.696C175.735 339.834 175.627 339.943 175.488 339.943ZM171.525 339.943H169.543C169.404 339.943 169.296 339.834 169.296 339.696C169.296 339.557 169.404 339.448 169.543 339.448H171.525C171.663 339.448 171.772 339.557 171.772 339.696C171.772 339.834 171.663 339.943 171.525 339.943ZM167.566 339.943H165.584C165.445 339.943 165.337 339.834 165.337 339.696C165.337 339.557 165.445 339.448 165.584 339.448H167.566C167.704 339.448 167.813 339.557 167.813 339.696C167.813 339.834 167.704 339.943 167.566 339.943ZM163.607 339.943H161.625C161.487 339.943 161.378 339.834 161.378 339.696C161.378 339.557 161.487 339.448 161.625 339.448H163.607C163.745 339.448 163.854 339.557 163.854 339.696C163.854 339.834 163.745 339.943 163.607 339.943ZM159.648 339.943H157.666C157.528 339.943 157.419 339.834 157.419 339.696C157.419 339.557 157.528 339.448 157.666 339.448H159.648C159.786 339.448 159.895 339.557 159.895 339.696C159.895 339.834 159.786 339.943 159.648 339.943ZM155.684 339.943H153.702C153.564 339.943 153.455 339.834 153.455 339.696C153.455 339.557 153.564 339.448 153.702 339.448H155.684C155.823 339.448 155.931 339.557 155.931 339.696C155.931 339.834 155.823 339.943 155.684 339.943ZM151.725 339.943H149.744C149.605 339.943 149.496 339.834 149.496 339.696C149.496 339.557 149.605 339.448 149.744 339.448H151.725C151.864 339.448 151.973 339.557 151.973 339.696C151.973 339.834 151.864 339.943 151.725 339.943ZM147.767 339.943H145.785C145.646 339.943 145.538 339.834 145.538 339.696C145.538 339.557 145.646 339.448 145.785 339.448H147.767C147.905 339.448 148.014 339.557 148.014 339.696C148.014 339.834 147.905 339.943 147.767 339.943ZM143.803 339.943H141.821C141.683 339.943 141.574 339.834 141.574 339.696C141.574 339.557 141.683 339.448 141.821 339.448H143.803C143.941 339.448 144.05 339.557 144.05 339.696C144.05 339.834 143.941 339.943 143.803 339.943ZM139.844 339.943H137.862C137.724 339.943 137.615 339.834 137.615 339.696C137.615 339.557 137.724 339.448 137.862 339.448H139.844C139.982 339.448 140.091 339.557 140.091 339.696C140.091 339.834 139.982 339.943 139.844 339.943ZM135.885 339.943H133.903C133.765 339.943 133.656 339.834 133.656 339.696C133.656 339.557 133.765 339.448 133.903 339.448H135.885C136.024 339.448 136.132 339.557 136.132 339.696C136.132 339.834 136.024 339.943 135.885 339.943ZM131.921 339.943H129.94C129.801 339.943 129.692 339.834 129.692 339.696C129.692 339.557 129.801 339.448 129.94 339.448H131.921C132.06 339.448 132.169 339.557 132.169 339.696C132.169 339.834 132.06 339.943 131.921 339.943ZM127.963 339.943H125.981C125.842 339.943 125.734 339.834 125.734 339.696C125.734 339.557 125.842 339.448 125.981 339.448H127.963C128.101 339.448 128.21 339.557 128.21 339.696C128.21 339.834 128.101 339.943 127.963 339.943ZM124.004 339.943H122.022C121.883 339.943 121.775 339.834 121.775 339.696C121.775 339.557 121.883 339.448 122.022 339.448H124.004C124.142 339.448 124.251 339.557 124.251 339.696C124.251 339.834 124.142 339.943 124.004 339.943ZM120.045 339.943H118.063C117.925 339.943 117.816 339.834 117.816 339.696C117.816 339.557 117.925 339.448 118.063 339.448H120.045C120.183 339.448 120.292 339.557 120.292 339.696C120.292 339.834 120.183 339.943 120.045 339.943ZM116.081 339.943H114.099C113.961 339.943 113.852 339.834 113.852 339.696C113.852 339.557 113.961 339.448 114.099 339.448H116.081C116.22 339.448 116.328 339.557 116.328 339.696C116.328 339.834 116.22 339.943 116.081 339.943ZM112.122 339.943H110.14C110.002 339.943 109.893 339.834 109.893 339.696C109.893 339.557 110.002 339.448 110.14 339.448H112.122C112.261 339.448 112.369 339.557 112.369 339.696C112.369 339.834 112.261 339.943 112.122 339.943ZM108.163 339.943H106.182C106.043 339.943 105.934 339.834 105.934 339.696C105.934 339.557 106.043 339.448 106.182 339.448H108.163C108.302 339.448 108.411 339.557 108.411 339.696C108.411 339.834 108.302 339.943 108.163 339.943ZM104.2 339.943H102.218C102.079 339.943 101.971 339.834 101.971 339.696C101.971 339.557 102.079 339.448 102.218 339.448H104.2C104.338 339.448 104.447 339.557 104.447 339.696C104.447 339.834 104.338 339.943 104.2 339.943ZM100.241 339.943H98.259C98.1206 339.943 98.0119 339.834 98.0119 339.696C98.0119 339.557 98.1206 339.448 98.259 339.448H100.241C100.379 339.448 100.488 339.557 100.488 339.696C100.488 339.834 100.379 339.943 100.241 339.943ZM96.2821 339.943H94.3002C94.1618 339.943 94.0531 339.834 94.0531 339.696C94.0531 339.557 94.1618 339.448 94.3002 339.448H96.2821C96.4204 339.448 96.5292 339.557 96.5292 339.696C96.5292 339.834 96.4204 339.943 96.2821 339.943ZM92.3183 339.943H90.3364C90.198 339.943 90.0893 339.834 90.0893 339.696C90.0893 339.557 90.198 339.448 90.3364 339.448H92.3183C92.4567 339.448 92.5654 339.557 92.5654 339.696C92.5654 339.834 92.4567 339.943 92.3183 339.943ZM88.3595 339.943H86.3776C86.2392 339.943 86.1305 339.834 86.1305 339.696C86.1305 339.557 86.2392 339.448 86.3776 339.448H88.3595C88.4978 339.448 88.6066 339.557 88.6066 339.696C88.6066 339.834 88.4978 339.943 88.3595 339.943ZM84.4006 339.943H82.4187C82.2804 339.943 82.1716 339.834 82.1716 339.696C82.1716 339.557 82.2804 339.448 82.4187 339.448H84.4006C84.539 339.448 84.6478 339.557 84.6478 339.696C84.6478 339.834 84.539 339.943 84.4006 339.943ZM80.4418 339.943H78.4599C78.3215 339.943 78.2128 339.834 78.2128 339.696C78.2128 339.557 78.3215 339.448 78.4599 339.448H80.4418C80.5802 339.448 80.6889 339.557 80.6889 339.696C80.6889 339.834 80.5802 339.943 80.4418 339.943ZM76.478 339.943H74.4961C74.3578 339.943 74.249 339.834 74.249 339.696C74.249 339.557 74.3578 339.448 74.4961 339.448H76.478C76.6164 339.448 76.7252 339.557 76.7252 339.696C76.7252 339.834 76.6164 339.943 76.478 339.943ZM72.5192 339.943H70.5373C70.3989 339.943 70.2902 339.834 70.2902 339.696C70.2902 339.557 70.3989 339.448 70.5373 339.448H72.5192C72.6576 339.448 72.7663 339.557 72.7663 339.696C72.7663 339.834 72.6576 339.943 72.5192 339.943ZM68.5604 339.943H66.5785C66.4401 339.943 66.3314 339.834 66.3314 339.696C66.3314 339.557 66.4401 339.448 66.5785 339.448H68.5604C68.6988 339.448 68.8075 339.557 68.8075 339.696C68.8075 339.834 68.6988 339.943 68.5604 339.943ZM64.6016 339.943H62.6197C62.4813 339.943 62.3725 339.834 62.3725 339.696C62.3725 339.557 62.4813 339.448 62.6197 339.448H64.6016C64.7399 339.448 64.8487 339.557 64.8487 339.696C64.8487 339.834 64.7399 339.943 64.6016 339.943ZM60.6378 339.943H58.6559C58.5175 339.943 58.4088 339.834 58.4088 339.696C58.4088 339.557 58.5175 339.448 58.6559 339.448H60.6378C60.7762 339.448 60.8849 339.557 60.8849 339.696C60.8849 339.834 60.7762 339.943 60.6378 339.943ZM56.679 339.943H54.6971C54.5587 339.943 54.4499 339.834 54.4499 339.696C54.4499 339.557 54.5587 339.448 54.6971 339.448H56.679C56.8173 339.448 56.9261 339.557 56.9261 339.696C56.9261 339.834 56.8173 339.943 56.679 339.943ZM52.7201 339.943H50.7382C50.5999 339.943 50.4911 339.834 50.4911 339.696C50.4911 339.557 50.5999 339.448 50.7382 339.448H52.7201C52.8585 339.448 52.9672 339.557 52.9672 339.696C52.9672 339.834 52.8585 339.943 52.7201 339.943ZM48.7564 339.943H46.7745C46.6361 339.943 46.5273 339.834 46.5273 339.696C46.5273 339.557 46.6361 339.448 46.7745 339.448H48.7564C48.8947 339.448 49.0035 339.557 49.0035 339.696C49.0035 339.834 48.8947 339.943 48.7564 339.943ZM44.7975 339.943H42.8156C42.6772 339.943 42.5685 339.834 42.5685 339.696C42.5685 339.557 42.6772 339.448 42.8156 339.448H44.7975C44.9359 339.448 45.0446 339.557 45.0446 339.696C45.0446 339.834 44.9359 339.943 44.7975 339.943ZM40.8387 339.943H38.8568C38.7184 339.943 38.6097 339.834 38.6097 339.696C38.6097 339.557 38.7184 339.448 38.8568 339.448H40.8387C40.9771 339.448 41.0858 339.557 41.0858 339.696C41.0858 339.834 40.9771 339.943 40.8387 339.943ZM36.8749 339.943H34.893C34.7547 339.943 34.6459 339.834 34.6459 339.696C34.6459 339.557 34.7547 339.448 34.893 339.448H36.8749C37.0133 339.448 37.122 339.557 37.122 339.696C37.122 339.834 37.0133 339.943 36.8749 339.943ZM32.9161 339.943H30.9342C30.7958 339.943 30.6871 339.834 30.6871 339.696C30.6871 339.557 30.7958 339.448 30.9342 339.448H32.9161C33.0545 339.448 33.1632 339.557 33.1632 339.696C33.1632 339.834 33.0545 339.943 32.9161 339.943ZM28.9573 339.943H26.9754C26.837 339.943 26.7283 339.834 26.7283 339.696C26.7283 339.557 26.837 339.448 26.9754 339.448H28.9573C29.0957 339.448 29.2044 339.557 29.2044 339.696C29.2044 339.834 29.0957 339.943 28.9573 339.943ZM24.9984 339.943H23.0166C22.8782 339.943 22.7694 339.834 22.7694 339.696C22.7694 339.557 22.8782 339.448 23.0166 339.448H24.9984C25.1368 339.448 25.2456 339.557 25.2456 339.696C25.2456 339.834 25.1368 339.943 24.9984 339.943ZM21.0347 339.943H19.0528C18.9144 339.943 18.8057 339.834 18.8057 339.696C18.8057 339.557 18.9144 339.448 19.0528 339.448H21.0347C21.1731 339.448 21.2818 339.557 21.2818 339.696C21.2818 339.834 21.1731 339.943 21.0347 339.943ZM17.0758 339.943H15.094C14.9556 339.943 14.8468 339.834 14.8468 339.696C14.8468 339.557 14.9556 339.448 15.094 339.448H17.0758C17.2142 339.448 17.323 339.557 17.323 339.696C17.323 339.834 17.2142 339.943 17.0758 339.943ZM13.117 339.943H11.1351C10.9967 339.943 10.888 339.834 10.888 339.696C10.888 339.557 10.9967 339.448 11.1351 339.448H13.117C13.2554 339.448 13.3641 339.557 13.3641 339.696C13.3641 339.834 13.2554 339.943 13.117 339.943ZM9.15324 339.943H7.17135C7.03297 339.943 6.92424 339.834 6.92424 339.696C6.92424 339.557 7.03297 339.448 7.17135 339.448H9.15324C9.29163 339.448 9.40036 339.557 9.40036 339.696C9.40036 339.834 9.29163 339.943 9.15324 339.943ZM5.19441 339.943H3.21253C3.07414 339.943 2.96541 339.834 2.96541 339.696C2.96541 339.557 3.07414 339.448 3.21253 339.448H5.19441C5.3328 339.448 5.44153 339.557 5.44153 339.696C5.44153 339.834 5.3328 339.943 5.19441 339.943Z" fill="#0942DB"/>
<path d="M1.23559 339.943H0V338.707C0 338.569 0.108732 338.46 0.247118 338.46C0.385504 338.46 0.494236 338.569 0.494236 338.707V339.448H1.23559C1.37398 339.448 1.48271 339.557 1.48271 339.696C1.48271 339.834 1.37398 339.943 1.23559 339.943Z" fill="#0942DB"/>
<path d="M0.247118 336.982C0.108732 336.982 0 336.873 0 336.734V334.767C0 334.628 0.108732 334.52 0.247118 334.52C0.385504 334.52 0.494236 334.628 0.494236 334.767V336.734C0.494236 336.873 0.385504 336.982 0.247118 336.982ZM0.247118 333.046C0.108732 333.046 0 332.938 0 332.799V330.832C0 330.693 0.108732 330.584 0.247118 330.584C0.385504 330.584 0.494236 330.693 0.494236 330.832V332.799C0.494236 332.938 0.385504 333.046 0.247118 333.046ZM0.247118 329.106C0.108732 329.106 0 328.998 0 328.859V326.892C0 326.753 0.108732 326.644 0.247118 326.644C0.385504 326.644 0.494236 326.753 0.494236 326.892V328.859C0.494236 328.998 0.385504 329.106 0.247118 329.106ZM0.247118 325.171C0.108732 325.171 0 325.062 0 324.924V322.956C0 322.818 0.108732 322.709 0.247118 322.709C0.385504 322.709 0.494236 322.818 0.494236 322.956V324.924C0.494236 325.062 0.385504 325.171 0.247118 325.171ZM0.247118 321.231C0.108732 321.231 0 321.122 0 320.984V319.016C0 318.878 0.108732 318.769 0.247118 318.769C0.385504 318.769 0.494236 318.878 0.494236 319.016V320.984C0.494236 321.122 0.385504 321.231 0.247118 321.231ZM0.247118 317.296C0.108732 317.296 0 317.187 0 317.049V315.081C0 314.943 0.108732 314.834 0.247118 314.834C0.385504 314.834 0.494236 314.943 0.494236 315.081V317.049C0.494236 317.187 0.385504 317.296 0.247118 317.296ZM0.247118 313.356C0.108732 313.356 0 313.247 0 313.109V311.141C0 311.003 0.108732 310.894 0.247118 310.894C0.385504 310.894 0.494236 311.003 0.494236 311.141V313.109C0.494236 313.247 0.385504 313.356 0.247118 313.356ZM0.247118 309.416C0.108732 309.416 0 309.307 0 309.168V307.201C0 307.062 0.108732 306.954 0.247118 306.954C0.385504 306.954 0.494236 307.062 0.494236 307.201V309.168C0.494236 309.307 0.385504 309.416 0.247118 309.416ZM0.247118 305.48C0.108732 305.48 0 305.372 0 305.233V303.266C0 303.127 0.108732 303.018 0.247118 303.018C0.385504 303.018 0.494236 303.127 0.494236 303.266V305.233C0.494236 305.372 0.385504 305.48 0.247118 305.48Z" fill="#0942DB"/>
<path d="M0.247118 301.54C0.108732 301.54 0 301.432 0 301.293V300.057H1.23559C1.37398 300.057 1.48271 300.166 1.48271 300.304C1.48271 300.443 1.37398 300.552 1.23559 300.552H0.494236V301.293C0.494236 301.432 0.385504 301.54 0.247118 301.54Z" fill="#0942DB"/>
<path d="M444.787 300.552H442.806C442.667 300.552 442.558 300.443 442.558 300.304C442.558 300.166 442.667 300.057 442.806 300.057H444.787C444.926 300.057 445.035 300.166 445.035 300.304C445.035 300.443 444.926 300.552 444.787 300.552ZM440.824 300.552H438.842C438.703 300.552 438.595 300.443 438.595 300.304C438.595 300.166 438.703 300.057 438.842 300.057H440.824C440.962 300.057 441.071 300.166 441.071 300.304C441.071 300.443 440.962 300.552 440.824 300.552ZM436.865 300.552H434.883C434.745 300.552 434.636 300.443 434.636 300.304C434.636 300.166 434.745 300.057 434.883 300.057H436.865C437.003 300.057 437.112 300.166 437.112 300.304C437.112 300.443 437.003 300.552 436.865 300.552ZM432.906 300.552H430.924C430.786 300.552 430.677 300.443 430.677 300.304C430.677 300.166 430.786 300.057 430.924 300.057H432.906C433.044 300.057 433.153 300.166 433.153 300.304C433.153 300.443 433.044 300.552 432.906 300.552ZM428.942 300.552H426.96C426.822 300.552 426.713 300.443 426.713 300.304C426.713 300.166 426.822 300.057 426.96 300.057H428.942C429.081 300.057 429.189 300.166 429.189 300.304C429.189 300.443 429.081 300.552 428.942 300.552ZM424.983 300.552H423.002C422.863 300.552 422.754 300.443 422.754 300.304C422.754 300.166 422.863 300.057 423.002 300.057H424.983C425.122 300.057 425.231 300.166 425.231 300.304C425.231 300.443 425.122 300.552 424.983 300.552ZM421.025 300.552H419.043C418.904 300.552 418.796 300.443 418.796 300.304C418.796 300.166 418.904 300.057 419.043 300.057H421.025C421.163 300.057 421.272 300.166 421.272 300.304C421.272 300.443 421.163 300.552 421.025 300.552ZM417.061 300.552H415.079C414.941 300.552 414.832 300.443 414.832 300.304C414.832 300.166 414.941 300.057 415.079 300.057H417.061C417.199 300.057 417.308 300.166 417.308 300.304C417.308 300.443 417.199 300.552 417.061 300.552ZM413.102 300.552H411.12C410.982 300.552 410.873 300.443 410.873 300.304C410.873 300.166 410.982 300.057 411.12 300.057H413.102C413.24 300.057 413.349 300.166 413.349 300.304C413.349 300.443 413.24 300.552 413.102 300.552ZM409.143 300.552H407.161C407.023 300.552 406.914 300.443 406.914 300.304C406.914 300.166 407.023 300.057 407.161 300.057H409.143C409.282 300.057 409.39 300.166 409.39 300.304C409.39 300.443 409.282 300.552 409.143 300.552ZM405.184 300.552H403.202C403.064 300.552 402.955 300.443 402.955 300.304C402.955 300.166 403.064 300.057 403.202 300.057H405.184C405.323 300.057 405.431 300.166 405.431 300.304C405.431 300.443 405.323 300.552 405.184 300.552ZM401.221 300.552H399.239C399.1 300.552 398.992 300.443 398.992 300.304C398.992 300.166 399.1 300.057 399.239 300.057H401.221C401.359 300.057 401.468 300.166 401.468 300.304C401.468 300.443 401.359 300.552 401.221 300.552ZM397.262 300.552H395.28C395.141 300.552 395.033 300.443 395.033 300.304C395.033 300.166 395.141 300.057 395.28 300.057H397.262C397.4 300.057 397.509 300.166 397.509 300.304C397.509 300.443 397.4 300.552 397.262 300.552ZM393.303 300.552H391.321C391.183 300.552 391.074 300.443 391.074 300.304C391.074 300.166 391.183 300.057 391.321 300.057H393.303C393.441 300.057 393.55 300.166 393.55 300.304C393.55 300.443 393.441 300.552 393.303 300.552ZM389.339 300.552H387.357C387.219 300.552 387.11 300.443 387.11 300.304C387.11 300.166 387.219 300.057 387.357 300.057H389.339C389.478 300.057 389.586 300.166 389.586 300.304C389.586 300.443 389.478 300.552 389.339 300.552ZM385.38 300.552H383.398C383.26 300.552 383.151 300.443 383.151 300.304C383.151 300.166 383.26 300.057 383.398 300.057H385.38C385.519 300.057 385.627 300.166 385.627 300.304C385.627 300.443 385.519 300.552 385.38 300.552ZM381.421 300.552H379.44C379.301 300.552 379.192 300.443 379.192 300.304C379.192 300.166 379.301 300.057 379.44 300.057H381.421C381.56 300.057 381.669 300.166 381.669 300.304C381.669 300.443 381.56 300.552 381.421 300.552ZM377.458 300.552H375.476C375.337 300.552 375.229 300.443 375.229 300.304C375.229 300.166 375.337 300.057 375.476 300.057H377.458C377.596 300.057 377.705 300.166 377.705 300.304C377.705 300.443 377.596 300.552 377.458 300.552ZM373.499 300.552H371.517C371.379 300.552 371.27 300.443 371.27 300.304C371.27 300.166 371.379 300.057 371.517 300.057H373.499C373.637 300.057 373.746 300.166 373.746 300.304C373.746 300.443 373.637 300.552 373.499 300.552ZM369.54 300.552H367.558C367.42 300.552 367.311 300.443 367.311 300.304C367.311 300.166 367.42 300.057 367.558 300.057H369.54C369.678 300.057 369.787 300.166 369.787 300.304C369.787 300.443 369.678 300.552 369.54 300.552ZM365.581 300.552H363.599C363.461 300.552 363.352 300.443 363.352 300.304C363.352 300.166 363.461 300.057 363.599 300.057H365.581C365.72 300.057 365.828 300.166 365.828 300.304C365.828 300.443 365.72 300.552 365.581 300.552ZM361.617 300.552H359.636C359.497 300.552 359.388 300.443 359.388 300.304C359.388 300.166 359.497 300.057 359.636 300.057H361.617C361.756 300.057 361.865 300.166 361.865 300.304C361.865 300.443 361.756 300.552 361.617 300.552ZM357.659 300.552H355.677C355.538 300.552 355.43 300.443 355.43 300.304C355.43 300.166 355.538 300.057 355.677 300.057H357.659C357.797 300.057 357.906 300.166 357.906 300.304C357.906 300.443 357.797 300.552 357.659 300.552ZM353.7 300.552H351.718C351.58 300.552 351.471 300.443 351.471 300.304C351.471 300.166 351.58 300.057 351.718 300.057H353.7C353.838 300.057 353.947 300.166 353.947 300.304C353.947 300.443 353.838 300.552 353.7 300.552ZM349.736 300.552H347.754C347.616 300.552 347.507 300.443 347.507 300.304C347.507 300.166 347.616 300.057 347.754 300.057H349.736C349.874 300.057 349.983 300.166 349.983 300.304C349.983 300.443 349.874 300.552 349.736 300.552ZM345.777 300.552H343.795C343.657 300.552 343.548 300.443 343.548 300.304C343.548 300.166 343.657 300.057 343.795 300.057H345.777C345.916 300.057 346.024 300.166 346.024 300.304C346.024 300.443 345.916 300.552 345.777 300.552ZM341.818 300.552H339.836C339.698 300.552 339.589 300.443 339.589 300.304C339.589 300.166 339.698 300.057 339.836 300.057H341.818C341.957 300.057 342.065 300.166 342.065 300.304C342.065 300.443 341.957 300.552 341.818 300.552ZM337.86 300.552H335.878C335.739 300.552 335.631 300.443 335.631 300.304C335.631 300.166 335.739 300.057 335.878 300.057H337.86C337.998 300.057 338.107 300.166 338.107 300.304C338.107 300.443 337.998 300.552 337.86 300.552ZM333.896 300.552H331.914C331.776 300.552 331.667 300.443 331.667 300.304C331.667 300.166 331.776 300.057 331.914 300.057H333.896C334.034 300.057 334.143 300.166 334.143 300.304C334.143 300.443 334.034 300.552 333.896 300.552ZM329.937 300.552H327.955C327.817 300.552 327.708 300.443 327.708 300.304C327.708 300.166 327.817 300.057 327.955 300.057H329.937C330.075 300.057 330.184 300.166 330.184 300.304C330.184 300.443 330.075 300.552 329.937 300.552ZM325.978 300.552H323.996C323.858 300.552 323.749 300.443 323.749 300.304C323.749 300.166 323.858 300.057 323.996 300.057H325.978C326.117 300.057 326.225 300.166 326.225 300.304C326.225 300.443 326.117 300.552 325.978 300.552ZM322.014 300.552H320.032C319.894 300.552 319.785 300.443 319.785 300.304C319.785 300.166 319.894 300.057 320.032 300.057H322.014C322.153 300.057 322.261 300.166 322.261 300.304C322.261 300.443 322.153 300.552 322.014 300.552ZM318.056 300.552H316.074C315.935 300.552 315.827 300.443 315.827 300.304C315.827 300.166 315.935 300.057 316.074 300.057H318.056C318.194 300.057 318.303 300.166 318.303 300.304C318.303 300.443 318.194 300.552 318.056 300.552ZM314.097 300.552H312.115C311.976 300.552 311.868 300.443 311.868 300.304C311.868 300.166 311.976 300.057 312.115 300.057H314.097C314.235 300.057 314.344 300.166 314.344 300.304C314.344 300.443 314.235 300.552 314.097 300.552ZM310.133 300.552H308.151C308.013 300.552 307.904 300.443 307.904 300.304C307.904 300.166 308.013 300.057 308.151 300.057H310.133C310.271 300.057 310.38 300.166 310.38 300.304C310.38 300.443 310.271 300.552 310.133 300.552ZM306.174 300.552H304.192C304.054 300.552 303.945 300.443 303.945 300.304C303.945 300.166 304.054 300.057 304.192 300.057H306.174C306.312 300.057 306.421 300.166 306.421 300.304C306.421 300.443 306.312 300.552 306.174 300.552ZM302.215 300.552H300.233C300.095 300.552 299.986 300.443 299.986 300.304C299.986 300.166 300.095 300.057 300.233 300.057H302.215C302.354 300.057 302.462 300.166 302.462 300.304C302.462 300.443 302.354 300.552 302.215 300.552ZM298.256 300.552H296.275C296.136 300.552 296.027 300.443 296.027 300.304C296.027 300.166 296.136 300.057 296.275 300.057H298.256C298.395 300.057 298.504 300.166 298.504 300.304C298.504 300.443 298.395 300.552 298.256 300.552ZM294.293 300.552H292.311C292.172 300.552 292.064 300.443 292.064 300.304C292.064 300.166 292.172 300.057 292.311 300.057H294.293C294.431 300.057 294.54 300.166 294.54 300.304C294.54 300.443 294.431 300.552 294.293 300.552ZM290.334 300.552H288.352C288.214 300.552 288.105 300.443 288.105 300.304C288.105 300.166 288.214 300.057 288.352 300.057H290.334C290.472 300.057 290.581 300.166 290.581 300.304C290.581 300.443 290.472 300.552 290.334 300.552ZM286.375 300.552H284.393C284.255 300.552 284.146 300.443 284.146 300.304C284.146 300.166 284.255 300.057 284.393 300.057H286.375C286.513 300.057 286.622 300.166 286.622 300.304C286.622 300.443 286.513 300.552 286.375 300.552ZM282.411 300.552H280.429C280.291 300.552 280.182 300.443 280.182 300.304C280.182 300.166 280.291 300.057 280.429 300.057H282.411C282.55 300.057 282.658 300.166 282.658 300.304C282.658 300.443 282.55 300.552 282.411 300.552ZM278.452 300.552H276.471C276.332 300.552 276.223 300.443 276.223 300.304C276.223 300.166 276.332 300.057 276.471 300.057H278.452C278.591 300.057 278.7 300.166 278.7 300.304C278.7 300.443 278.591 300.552 278.452 300.552ZM274.494 300.552H272.512C272.373 300.552 272.265 300.443 272.265 300.304C272.265 300.166 272.373 300.057 272.512 300.057H274.494C274.632 300.057 274.741 300.166 274.741 300.304C274.741 300.443 274.632 300.552 274.494 300.552ZM270.535 300.552H268.553C268.414 300.552 268.306 300.443 268.306 300.304C268.306 300.166 268.414 300.057 268.553 300.057H270.535C270.673 300.057 270.782 300.166 270.782 300.304C270.782 300.443 270.673 300.552 270.535 300.552ZM266.571 300.552H264.589C264.451 300.552 264.342 300.443 264.342 300.304C264.342 300.166 264.451 300.057 264.589 300.057H266.571C266.709 300.057 266.818 300.166 266.818 300.304C266.818 300.443 266.709 300.552 266.571 300.552ZM262.612 300.552H260.63C260.492 300.552 260.383 300.443 260.383 300.304C260.383 300.166 260.492 300.057 260.63 300.057H262.612C262.751 300.057 262.859 300.166 262.859 300.304C262.859 300.443 262.751 300.552 262.612 300.552ZM258.653 300.552H256.671C256.533 300.552 256.424 300.443 256.424 300.304C256.424 300.166 256.533 300.057 256.671 300.057H258.653C258.792 300.057 258.9 300.166 258.9 300.304C258.9 300.443 258.792 300.552 258.653 300.552ZM254.69 300.552H252.708C252.569 300.552 252.461 300.443 252.461 300.304C252.461 300.166 252.569 300.057 252.708 300.057H254.69C254.828 300.057 254.937 300.166 254.937 300.304C254.937 300.443 254.828 300.552 254.69 300.552ZM250.731 300.552H248.749C248.61 300.552 248.502 300.443 248.502 300.304C248.502 300.166 248.61 300.057 248.749 300.057H250.731C250.869 300.057 250.978 300.166 250.978 300.304C250.978 300.443 250.869 300.552 250.731 300.552ZM246.772 300.552H244.79C244.652 300.552 244.543 300.443 244.543 300.304C244.543 300.166 244.652 300.057 244.79 300.057H246.772C246.91 300.057 247.019 300.166 247.019 300.304C247.019 300.443 246.91 300.552 246.772 300.552ZM242.813 300.552H240.831C240.693 300.552 240.584 300.443 240.584 300.304C240.584 300.166 240.693 300.057 240.831 300.057H242.813C242.951 300.057 243.06 300.166 243.06 300.304C243.06 300.443 242.951 300.552 242.813 300.552ZM238.849 300.552H236.867C236.729 300.552 236.62 300.443 236.62 300.304C236.62 300.166 236.729 300.057 236.867 300.057H238.849C238.988 300.057 239.096 300.166 239.096 300.304C239.096 300.443 238.988 300.552 238.849 300.552ZM234.89 300.552H232.909C232.77 300.552 232.661 300.443 232.661 300.304C232.661 300.166 232.77 300.057 232.909 300.057H234.89C235.029 300.057 235.138 300.166 235.138 300.304C235.138 300.443 235.029 300.552 234.89 300.552ZM230.932 300.552H228.95C228.811 300.552 228.703 300.443 228.703 300.304C228.703 300.166 228.811 300.057 228.95 300.057H230.932C231.07 300.057 231.179 300.166 231.179 300.304C231.179 300.443 231.07 300.552 230.932 300.552ZM226.968 300.552H224.986C224.848 300.552 224.739 300.443 224.739 300.304C224.739 300.166 224.848 300.057 224.986 300.057H226.968C227.106 300.057 227.215 300.166 227.215 300.304C227.215 300.443 227.106 300.552 226.968 300.552ZM223.009 300.552H221.027C220.889 300.552 220.78 300.443 220.78 300.304C220.78 300.166 220.889 300.057 221.027 300.057H223.009C223.147 300.057 223.256 300.166 223.256 300.304C223.256 300.443 223.147 300.552 223.009 300.552ZM219.05 300.552H217.068C216.93 300.552 216.821 300.443 216.821 300.304C216.821 300.166 216.93 300.057 217.068 300.057H219.05C219.189 300.057 219.297 300.166 219.297 300.304C219.297 300.443 219.189 300.552 219.05 300.552ZM215.091 300.552H213.11C212.971 300.552 212.862 300.443 212.862 300.304C212.862 300.166 212.971 300.057 213.11 300.057H215.091C215.23 300.057 215.339 300.166 215.339 300.304C215.339 300.443 215.23 300.552 215.091 300.552ZM211.128 300.552H209.146C209.007 300.552 208.899 300.443 208.899 300.304C208.899 300.166 209.007 300.057 209.146 300.057H211.128C211.266 300.057 211.375 300.166 211.375 300.304C211.375 300.443 211.266 300.552 211.128 300.552ZM207.169 300.552H205.187C205.049 300.552 204.94 300.443 204.94 300.304C204.94 300.166 205.049 300.057 205.187 300.057H207.169C207.307 300.057 207.416 300.166 207.416 300.304C207.416 300.443 207.307 300.552 207.169 300.552ZM203.21 300.552H201.228C201.09 300.552 200.981 300.443 200.981 300.304C200.981 300.166 201.09 300.057 201.228 300.057H203.21C203.348 300.057 203.457 300.166 203.457 300.304C203.457 300.443 203.348 300.552 203.21 300.552ZM199.246 300.552H197.264C197.126 300.552 197.017 300.443 197.017 300.304C197.017 300.166 197.126 300.057 197.264 300.057H199.246C199.385 300.057 199.493 300.166 199.493 300.304C199.493 300.443 199.385 300.552 199.246 300.552ZM195.287 300.552H193.305C193.167 300.552 193.058 300.443 193.058 300.304C193.058 300.166 193.167 300.057 193.305 300.057H195.287C195.426 300.057 195.534 300.166 195.534 300.304C195.534 300.443 195.426 300.552 195.287 300.552ZM191.329 300.552H189.347C189.208 300.552 189.1 300.443 189.1 300.304C189.1 300.166 189.208 300.057 189.347 300.057H191.329C191.467 300.057 191.576 300.166 191.576 300.304C191.576 300.443 191.467 300.552 191.329 300.552ZM187.365 300.552H185.383C185.244 300.552 185.136 300.443 185.136 300.304C185.136 300.166 185.244 300.057 185.383 300.057H187.365C187.503 300.057 187.612 300.166 187.612 300.304C187.612 300.443 187.503 300.552 187.365 300.552ZM183.406 300.552H181.424C181.286 300.552 181.177 300.443 181.177 300.304C181.177 300.166 181.286 300.057 181.424 300.057H183.406C183.544 300.057 183.653 300.166 183.653 300.304C183.653 300.443 183.544 300.552 183.406 300.552ZM179.447 300.552H177.465C177.327 300.552 177.218 300.443 177.218 300.304C177.218 300.166 177.327 300.057 177.465 300.057H179.447C179.585 300.057 179.694 300.166 179.694 300.304C179.694 300.443 179.585 300.552 179.447 300.552ZM175.488 300.552H173.506C173.368 300.552 173.259 300.443 173.259 300.304C173.259 300.166 173.368 300.057 173.506 300.057H175.488C175.627 300.057 175.735 300.166 175.735 300.304C175.735 300.443 175.627 300.552 175.488 300.552ZM171.525 300.552H169.543C169.404 300.552 169.296 300.443 169.296 300.304C169.296 300.166 169.404 300.057 169.543 300.057H171.525C171.663 300.057 171.772 300.166 171.772 300.304C171.772 300.443 171.663 300.552 171.525 300.552ZM167.566 300.552H165.584C165.445 300.552 165.337 300.443 165.337 300.304C165.337 300.166 165.445 300.057 165.584 300.057H167.566C167.704 300.057 167.813 300.166 167.813 300.304C167.813 300.443 167.704 300.552 167.566 300.552ZM163.607 300.552H161.625C161.487 300.552 161.378 300.443 161.378 300.304C161.378 300.166 161.487 300.057 161.625 300.057H163.607C163.745 300.057 163.854 300.166 163.854 300.304C163.854 300.443 163.745 300.552 163.607 300.552ZM159.643 300.552H157.661C157.523 300.552 157.414 300.443 157.414 300.304C157.414 300.166 157.523 300.057 157.661 300.057H159.643C159.781 300.057 159.89 300.166 159.89 300.304C159.89 300.443 159.781 300.552 159.643 300.552ZM155.684 300.552H153.702C153.564 300.552 153.455 300.443 153.455 300.304C153.455 300.166 153.564 300.057 153.702 300.057H155.684C155.823 300.057 155.931 300.166 155.931 300.304C155.931 300.443 155.823 300.552 155.684 300.552ZM151.725 300.552H149.744C149.605 300.552 149.496 300.443 149.496 300.304C149.496 300.166 149.605 300.057 149.744 300.057H151.725C151.864 300.057 151.973 300.166 151.973 300.304C151.973 300.443 151.864 300.552 151.725 300.552ZM147.767 300.552H145.785C145.646 300.552 145.538 300.443 145.538 300.304C145.538 300.166 145.646 300.057 145.785 300.057H147.767C147.905 300.057 148.014 300.166 148.014 300.304C148.014 300.443 147.905 300.552 147.767 300.552ZM143.803 300.552H141.821C141.683 300.552 141.574 300.443 141.574 300.304C141.574 300.166 141.683 300.057 141.821 300.057H143.803C143.941 300.057 144.05 300.166 144.05 300.304C144.05 300.443 143.941 300.552 143.803 300.552ZM139.844 300.552H137.862C137.724 300.552 137.615 300.443 137.615 300.304C137.615 300.166 137.724 300.057 137.862 300.057H139.844C139.982 300.057 140.091 300.166 140.091 300.304C140.091 300.443 139.982 300.552 139.844 300.552ZM135.885 300.552H133.903C133.765 300.552 133.656 300.443 133.656 300.304C133.656 300.166 133.765 300.057 133.903 300.057H135.885C136.024 300.057 136.132 300.166 136.132 300.304C136.132 300.443 136.024 300.552 135.885 300.552ZM131.921 300.552H129.94C129.801 300.552 129.692 300.443 129.692 300.304C129.692 300.166 129.801 300.057 129.94 300.057H131.921C132.06 300.057 132.169 300.166 132.169 300.304C132.169 300.443 132.06 300.552 131.921 300.552ZM127.963 300.552H125.981C125.842 300.552 125.734 300.443 125.734 300.304C125.734 300.166 125.842 300.057 125.981 300.057H127.963C128.101 300.057 128.21 300.166 128.21 300.304C128.21 300.443 128.101 300.552 127.963 300.552ZM124.004 300.552H122.022C121.883 300.552 121.775 300.443 121.775 300.304C121.775 300.166 121.883 300.057 122.022 300.057H124.004C124.142 300.057 124.251 300.166 124.251 300.304C124.251 300.443 124.142 300.552 124.004 300.552ZM120.045 300.552H118.063C117.925 300.552 117.816 300.443 117.816 300.304C117.816 300.166 117.925 300.057 118.063 300.057H120.045C120.183 300.057 120.292 300.166 120.292 300.304C120.292 300.443 120.183 300.552 120.045 300.552ZM116.081 300.552H114.099C113.961 300.552 113.852 300.443 113.852 300.304C113.852 300.166 113.961 300.057 114.099 300.057H116.081C116.22 300.057 116.328 300.166 116.328 300.304C116.328 300.443 116.22 300.552 116.081 300.552ZM112.122 300.552H110.14C110.002 300.552 109.893 300.443 109.893 300.304C109.893 300.166 110.002 300.057 110.14 300.057H112.122C112.261 300.057 112.369 300.166 112.369 300.304C112.369 300.443 112.261 300.552 112.122 300.552ZM108.163 300.552H106.182C106.043 300.552 105.934 300.443 105.934 300.304C105.934 300.166 106.043 300.057 106.182 300.057H108.163C108.302 300.057 108.411 300.166 108.411 300.304C108.411 300.443 108.302 300.552 108.163 300.552ZM104.2 300.552H102.218C102.079 300.552 101.971 300.443 101.971 300.304C101.971 300.166 102.079 300.057 102.218 300.057H104.2C104.338 300.057 104.447 300.166 104.447 300.304C104.447 300.443 104.338 300.552 104.2 300.552ZM100.241 300.552H98.259C98.1206 300.552 98.0119 300.443 98.0119 300.304C98.0119 300.166 98.1206 300.057 98.259 300.057H100.241C100.379 300.057 100.488 300.166 100.488 300.304C100.488 300.443 100.379 300.552 100.241 300.552ZM96.2821 300.552H94.3002C94.1618 300.552 94.0531 300.443 94.0531 300.304C94.0531 300.166 94.1618 300.057 94.3002 300.057H96.2821C96.4204 300.057 96.5292 300.166 96.5292 300.304C96.5292 300.443 96.4204 300.552 96.2821 300.552ZM92.3232 300.552H90.3413C90.203 300.552 90.0942 300.443 90.0942 300.304C90.0942 300.166 90.203 300.057 90.3413 300.057H92.3232C92.4616 300.057 92.5704 300.166 92.5704 300.304C92.5704 300.443 92.4616 300.552 92.3232 300.552ZM88.3595 300.552H86.3776C86.2392 300.552 86.1305 300.443 86.1305 300.304C86.1305 300.166 86.2392 300.057 86.3776 300.057H88.3595C88.4978 300.057 88.6066 300.166 88.6066 300.304C88.6066 300.443 88.4978 300.552 88.3595 300.552ZM84.4006 300.552H82.4187C82.2804 300.552 82.1716 300.443 82.1716 300.304C82.1716 300.166 82.2804 300.057 82.4187 300.057H84.4006C84.539 300.057 84.6478 300.166 84.6478 300.304C84.6478 300.443 84.539 300.552 84.4006 300.552ZM80.4418 300.552H78.4599C78.3215 300.552 78.2128 300.443 78.2128 300.304C78.2128 300.166 78.3215 300.057 78.4599 300.057H80.4418C80.5802 300.057 80.6889 300.166 80.6889 300.304C80.6889 300.443 80.5802 300.552 80.4418 300.552ZM76.478 300.552H74.4961C74.3578 300.552 74.249 300.443 74.249 300.304C74.249 300.166 74.3578 300.057 74.4961 300.057H76.478C76.6164 300.057 76.7252 300.166 76.7252 300.304C76.7252 300.443 76.6164 300.552 76.478 300.552ZM72.5192 300.552H70.5373C70.3989 300.552 70.2902 300.443 70.2902 300.304C70.2902 300.166 70.3989 300.057 70.5373 300.057H72.5192C72.6576 300.057 72.7663 300.166 72.7663 300.304C72.7663 300.443 72.6576 300.552 72.5192 300.552ZM68.5604 300.552H66.5785C66.4401 300.552 66.3314 300.443 66.3314 300.304C66.3314 300.166 66.4401 300.057 66.5785 300.057H68.5604C68.6988 300.057 68.8075 300.166 68.8075 300.304C68.8075 300.443 68.6988 300.552 68.5604 300.552ZM64.6016 300.552H62.6197C62.4813 300.552 62.3725 300.443 62.3725 300.304C62.3725 300.166 62.4813 300.057 62.6197 300.057H64.6016C64.7399 300.057 64.8487 300.166 64.8487 300.304C64.8487 300.443 64.7399 300.552 64.6016 300.552ZM60.6378 300.552H58.6559C58.5175 300.552 58.4088 300.443 58.4088 300.304C58.4088 300.166 58.5175 300.057 58.6559 300.057H60.6378C60.7762 300.057 60.8849 300.166 60.8849 300.304C60.8849 300.443 60.7762 300.552 60.6378 300.552ZM56.679 300.552H54.6971C54.5587 300.552 54.4499 300.443 54.4499 300.304C54.4499 300.166 54.5587 300.057 54.6971 300.057H56.679C56.8173 300.057 56.9261 300.166 56.9261 300.304C56.9261 300.443 56.8173 300.552 56.679 300.552ZM52.7201 300.552H50.7382C50.5999 300.552 50.4911 300.443 50.4911 300.304C50.4911 300.166 50.5999 300.057 50.7382 300.057H52.7201C52.8585 300.057 52.9672 300.166 52.9672 300.304C52.9672 300.443 52.8585 300.552 52.7201 300.552ZM48.7564 300.552H46.7745C46.6361 300.552 46.5273 300.443 46.5273 300.304C46.5273 300.166 46.6361 300.057 46.7745 300.057H48.7564C48.8947 300.057 49.0035 300.166 49.0035 300.304C49.0035 300.443 48.8947 300.552 48.7564 300.552ZM44.7975 300.552H42.8156C42.6772 300.552 42.5685 300.443 42.5685 300.304C42.5685 300.166 42.6772 300.057 42.8156 300.057H44.7975C44.9359 300.057 45.0446 300.166 45.0446 300.304C45.0446 300.443 44.9359 300.552 44.7975 300.552ZM40.8387 300.552H38.8568C38.7184 300.552 38.6097 300.443 38.6097 300.304C38.6097 300.166 38.7184 300.057 38.8568 300.057H40.8387C40.9771 300.057 41.0858 300.166 41.0858 300.304C41.0858 300.443 40.9771 300.552 40.8387 300.552ZM36.8799 300.552H34.898C34.7596 300.552 34.6509 300.443 34.6509 300.304C34.6509 300.166 34.7596 300.057 34.898 300.057H36.8799C37.0183 300.057 37.127 300.166 37.127 300.304C37.127 300.443 37.0183 300.552 36.8799 300.552ZM32.9161 300.552H30.9342C30.7958 300.552 30.6871 300.443 30.6871 300.304C30.6871 300.166 30.7958 300.057 30.9342 300.057H32.9161C33.0545 300.057 33.1632 300.166 33.1632 300.304C33.1632 300.443 33.0545 300.552 32.9161 300.552ZM28.9573 300.552H26.9754C26.837 300.552 26.7283 300.443 26.7283 300.304C26.7283 300.166 26.837 300.057 26.9754 300.057H28.9573C29.0957 300.057 29.2044 300.166 29.2044 300.304C29.2044 300.443 29.0957 300.552 28.9573 300.552ZM24.9984 300.552H23.0166C22.8782 300.552 22.7694 300.443 22.7694 300.304C22.7694 300.166 22.8782 300.057 23.0166 300.057H24.9984C25.1368 300.057 25.2456 300.166 25.2456 300.304C25.2456 300.443 25.1368 300.552 24.9984 300.552ZM21.0347 300.552H19.0528C18.9144 300.552 18.8057 300.443 18.8057 300.304C18.8057 300.166 18.9144 300.057 19.0528 300.057H21.0347C21.1731 300.057 21.2818 300.166 21.2818 300.304C21.2818 300.443 21.1731 300.552 21.0347 300.552ZM17.0758 300.552H15.094C14.9556 300.552 14.8468 300.443 14.8468 300.304C14.8468 300.166 14.9556 300.057 15.094 300.057H17.0758C17.2142 300.057 17.323 300.166 17.323 300.304C17.323 300.443 17.2142 300.552 17.0758 300.552ZM13.117 300.552H11.1351C10.9967 300.552 10.888 300.443 10.888 300.304C10.888 300.166 10.9967 300.057 11.1351 300.057H13.117C13.2554 300.057 13.3641 300.166 13.3641 300.304C13.3641 300.443 13.2554 300.552 13.117 300.552ZM9.15818 300.552H7.1763C7.03791 300.552 6.92918 300.443 6.92918 300.304C6.92918 300.166 7.03791 300.057 7.1763 300.057H9.15818C9.29657 300.057 9.4053 300.166 9.4053 300.304C9.4053 300.443 9.29657 300.552 9.15818 300.552ZM5.19441 300.552H3.21253C3.07414 300.552 2.96541 300.443 2.96541 300.304C2.96541 300.166 3.07414 300.057 3.21253 300.057H5.19441C5.3328 300.057 5.44153 300.166 5.44153 300.304C5.44153 300.443 5.3328 300.552 5.19441 300.552Z" fill="#0942DB"/>
<path d="M447.753 301.54C447.615 301.54 447.506 301.432 447.506 301.293V300.552H446.764C446.626 300.552 446.517 300.443 446.517 300.304C446.517 300.166 446.626 300.057 446.764 300.057H448V301.293C448 301.432 447.891 301.54 447.753 301.54Z" fill="#0942DB"/>
<path d="M447.753 336.987C447.614 336.987 447.506 336.878 447.506 336.739V334.772C447.506 334.633 447.614 334.525 447.753 334.525C447.891 334.525 448 334.633 448 334.772V336.739C448 336.878 447.891 336.987 447.753 336.987ZM447.753 333.046C447.614 333.046 447.506 332.938 447.506 332.799V330.832C447.506 330.693 447.614 330.584 447.753 330.584C447.891 330.584 448 330.693 448 330.832V332.799C448 332.938 447.891 333.046 447.753 333.046ZM447.753 329.106C447.614 329.106 447.506 328.998 447.506 328.859V326.892C447.506 326.753 447.614 326.644 447.753 326.644C447.891 326.644 448 326.753 448 326.892V328.859C448 328.998 447.891 329.106 447.753 329.106ZM447.753 325.171C447.614 325.171 447.506 325.062 447.506 324.924V322.956C447.506 322.818 447.614 322.709 447.753 322.709C447.891 322.709 448 322.818 448 322.956V324.924C448 325.062 447.891 325.171 447.753 325.171ZM447.753 321.231C447.614 321.231 447.506 321.122 447.506 320.984V319.016C447.506 318.878 447.614 318.769 447.753 318.769C447.891 318.769 448 318.878 448 319.016V320.984C448 321.122 447.891 321.231 447.753 321.231ZM447.753 317.296C447.614 317.296 447.506 317.187 447.506 317.049V315.081C447.506 314.943 447.614 314.834 447.753 314.834C447.891 314.834 448 314.943 448 315.081V317.049C448 317.187 447.891 317.296 447.753 317.296ZM447.753 313.356C447.614 313.356 447.506 313.247 447.506 313.109V311.141C447.506 311.003 447.614 310.894 447.753 310.894C447.891 310.894 448 311.003 448 311.141V313.109C448 313.247 447.891 313.356 447.753 313.356ZM447.753 309.416C447.614 309.416 447.506 309.307 447.506 309.168V307.201C447.506 307.062 447.614 306.954 447.753 306.954C447.891 306.954 448 307.062 448 307.201V309.168C448 309.307 447.891 309.416 447.753 309.416ZM447.753 305.48C447.614 305.48 447.506 305.372 447.506 305.233V303.266C447.506 303.127 447.614 303.018 447.753 303.018C447.891 303.018 448 303.127 448 303.266V305.233C448 305.372 447.891 305.48 447.753 305.48Z" fill="#0942DB"/>
<path d="M14.1005 302.173C14.3872 302.336 14.7776 302.658 14.7776 303.024C14.7776 303.389 14.5305 303.508 14.2093 303.508C13.8534 303.508 13.3196 303.429 12.9984 303.345C9.83034 311.349 4.63098 316.925 1.42339 319.634L0.889618 318.705C7.44318 312.278 11.1104 303.627 11.5009 300.838L14.1005 302.173ZM27.7019 314.503C28.9128 315.838 30.0149 317.573 30.0149 317.775C30.0149 318.057 29.8716 318.057 28.6607 318.22C28.6607 319.555 28.552 333.017 27.0594 336.369C26.4564 337.743 25.3839 338.875 22.1813 339.078C22.0034 337.54 21.1829 337.095 16.7694 336.087L16.8386 334.792C20.402 335.642 22.2159 336.042 23.5355 336.042C25.4927 336.042 25.7793 334.95 26.1698 332.201C26.7727 327.875 26.9161 320.317 26.9161 317.894H16.0874C15.4449 321.167 13.2752 332.933 1.48764 339.033L1.0626 338.104C11.7084 331.153 13.5618 321.088 14.1697 317.894H5.23395L5.02143 316.52H26.4614L27.7068 314.498L27.7019 314.503ZM22.1862 301.125C22.8979 301.165 23.4317 301.204 23.4317 301.773C23.4317 302.539 22.0429 302.826 21.3658 302.944C22.5421 305.372 23.8568 307.715 26.921 310.261C29.412 312.362 32.0512 313.939 35.0413 314.705L34.9721 315.595C34.2258 315.595 33.6525 315.961 33.2967 317.212C24.2867 312.723 21.4399 306.054 19.2307 300.883L22.1862 301.125Z" fill="#0942DB"/>
<path d="M54.2671 305.648L55.5125 303.627C56.1897 304.274 57.8256 306.454 57.8256 306.781C57.8256 307.186 57.2918 307.226 56.5801 307.226C55.7251 309.653 55.6163 309.935 55.1567 310.904C55.7992 311.714 55.9771 311.957 56.5109 312.683L56.2638 313.331H47.931V316.688H52.6657L53.7333 314.666C54.7663 315.917 55.0529 316.322 55.7992 317.454L55.5471 318.062H47.926V321.74H54.4796L55.7992 319.436C56.5109 320.124 56.6542 320.366 58.043 322.427L57.7959 323.115H38.1402L36.8947 323.238L36.608 321.622L38.1402 321.745H46.2259V318.067H40.3148L39.0347 318.23L38.6097 316.534L40.3197 316.698H46.2308V313.341H39.6772L38.6097 313.464L38.2192 311.848L39.6772 311.971H46.2308V308.615L48.6526 308.694C49.0084 308.694 49.3989 308.896 49.3989 309.178C49.3989 309.786 48.5438 309.984 47.9409 310.147V311.967H52.9623L54.1732 309.786L54.529 310.152C54.6378 308.901 54.6378 308.738 54.7415 307.038H40.3889C39.8206 310.513 38.2884 311.161 37.5372 311.161C36.5784 311.161 36.5042 310.394 36.5042 310.108C36.5042 309.584 36.5388 309.544 37.893 308.57C39.2472 307.562 39.6031 306.266 39.6723 303.76L40.4581 303.8C40.4927 304.487 40.4927 304.729 40.4927 305.658H46.2259V301.13L48.7563 301.293C49.2901 301.333 49.3593 301.659 49.3593 301.817C49.3593 302.381 48.8601 302.465 47.9359 302.667V305.658H54.277L54.2671 305.648ZM53.412 326.629L54.5142 324.81C56.2242 326.55 56.8272 327.638 56.8272 327.762C56.8272 328.083 55.8289 328.167 55.5471 328.207V338.593H53.8371V336.977H40.3395V339.078H38.6295V324.929L40.8733 326.625H53.4071L53.412 326.629ZM40.3445 335.602H53.842V328.004H40.3445V335.602ZM62.1007 304.477C62.5258 304.516 62.7778 304.719 62.7778 305.001C62.7778 305.648 61.5323 305.891 61.2457 305.93V330.342H59.5356V304.309L62.1007 304.472V304.477ZM69.5439 301.812C69.9689 301.852 70.3989 301.891 70.3989 302.42C70.3989 303.068 69.366 303.187 68.9409 303.271V333.912C68.9409 336.136 68.9409 338.682 64.4879 339.088C64.132 337.471 62.4912 337.268 59.9656 336.987V335.612C62.3874 336.057 64.2753 336.097 65.2342 336.097C66.9788 336.097 67.2259 335.652 67.2259 333.63V301.654L69.539 301.817L69.5439 301.812Z" fill="#0942DB"/>
<path d="M105.228 318.26C104.872 321.33 101.882 338.267 88.7746 338.267C78.7318 338.267 78.7318 329.858 78.7318 325.819C78.7318 322.625 80.1206 308.476 80.1206 305.609C80.1206 304.68 80.1206 303.671 77.8421 303.384C77.343 303.305 76.9871 303.345 76.6313 303.384C76.6313 301.886 77.1304 301.402 78.4105 301.402C80.6543 301.402 82.9328 303.503 82.9328 304.595C82.9328 305.08 82.6115 305.485 82.3644 305.891C82.1865 306.133 80.2639 321.048 80.2639 326.101C80.2639 330.1 80.2639 335.84 88.6313 335.84C100.132 335.84 103.73 322.136 104.304 317.894L105.228 318.26Z" fill="#0942DB"/>
<path d="M108.677 309.084C109.602 310.296 110.956 310.864 112.345 310.864C113.022 310.864 114.801 310.701 116.758 310.137C116.936 309.247 117.648 305.812 117.648 304.882C117.648 304.516 117.613 303.874 116.081 303.874C115.157 303.874 115.048 303.953 114.623 304.195C114.371 301.931 116.121 301.768 116.546 301.768C117.045 301.768 120.287 302.331 120.287 303.869C120.287 304.071 119.897 304.922 119.788 305.164C119.575 305.609 119.432 305.891 118.508 309.653C119.897 309.208 120.144 309.129 120.717 308.842C121.108 308.679 122.674 307.547 123.07 307.547C123.747 307.547 124.636 308.882 124.636 309.445C124.636 309.851 124.384 309.969 124.172 310.053C123.173 310.538 120.86 311.062 117.974 311.709C114.519 325.572 114.129 327.109 111.954 334.994C111.277 337.422 111.134 337.985 110.422 337.985C109.676 337.985 109.424 336.532 109.424 336.047C109.424 335.4 109.602 334.915 109.958 334.025C110.101 333.704 113.269 323.757 114.089 320.727C114.875 317.938 115.765 314.542 116.299 312.075C114.697 312.441 112.666 312.639 112.023 312.639C110.921 312.639 109.068 311.344 108.356 309.89L108.677 309.079V309.084ZM127.053 321.74C125.595 323.881 124.241 325.863 124.241 329.017C124.241 334.233 129.406 335.321 133.785 335.321C135.46 335.321 137.526 335.078 138.272 334.915C138.524 334.876 139.627 334.549 139.839 334.549C140.407 334.549 141.228 335.518 141.228 336.245C141.228 336.408 141.228 337.214 140.516 337.58C139.874 337.862 135.426 337.946 134.57 337.946C131.007 337.946 122.818 337.624 122.818 329.334C122.818 325.492 124.74 323.149 126.485 321.048L127.053 321.735V321.74ZM131.397 316.441C131.862 316.035 134.743 313.168 135.707 311.793C135.351 311.67 135.065 311.551 134.531 311.551C133.429 311.551 131.897 312.075 130.221 312.644C128.155 313.331 127.196 313.494 126.055 313.41L125.877 312.357C127.122 312.194 127.409 311.991 129.579 310.983C131.61 310.014 133.424 309.203 135.742 309.203C137.664 309.203 139.8 310.053 139.8 311.546C139.8 312.678 138.979 312.797 138.411 312.881C136.913 313.123 133.602 315.63 131.645 317.044L131.397 316.436V316.441Z" fill="#0942DB"/>
<path d="M159.529 313.089C159.174 314.142 154.043 329.136 153.44 331.642C153.371 331.885 153.015 332.977 153.015 333.14C153.015 333.219 153.193 333.506 153.228 333.546C153.584 334.396 153.618 334.515 153.618 334.96C153.618 335.929 153.44 336.294 152.941 336.294C150.841 336.294 145.819 330.837 145.819 315.921C145.819 314.384 145.963 312.001 146.175 307.755C146.175 307.552 146.244 306.865 146.244 306.217C146.244 304.319 144.747 303.547 143.714 303.468C143.823 303.023 143.961 302.094 144.856 302.094C146.422 302.094 149.234 305.085 149.234 306.296C149.234 306.617 149.165 306.701 148.735 307.062C147.915 307.71 147.277 314.053 147.277 317.934C147.277 322.462 147.989 325.492 148.488 327.07C149.343 329.655 150.697 331.395 150.979 331.395C151.231 331.395 151.478 330.911 151.765 330.263C153.045 327.554 157.819 315.145 158.852 312.639L159.529 313.084V313.089ZM167.615 304.076C170.462 305.288 176.768 313.252 176.768 323.115C176.768 325.863 175.701 326.427 175.38 326.427C174.559 326.427 174.525 325.013 174.49 323.555C174.243 313.934 169.898 307.141 167.259 304.759L167.615 304.071V304.076Z" fill="#0942DB"/>
<path d="M203.294 310.543L204.327 308.684C205.395 309.613 206.749 311.596 206.749 311.838C206.749 312.08 206.605 312.12 205.325 312.362V332.735H203.65V330.308H188.62V332.735H186.91V309.252L188.867 310.548H195.134V305.09H181.034L179.714 305.169L179.427 303.429L181.637 303.711H209.022L210.376 301.165C211.088 301.852 211.266 302.015 213.085 304.398L212.872 305.085H196.81V310.543H203.289H203.294ZM209.492 335.439V308.639L212.126 308.803C212.447 308.803 212.803 309.045 212.803 309.411C212.803 310.137 211.592 310.3 211.167 310.34V339.078H209.492V336.813H182.749V339.078H181.039V308.679L183.352 308.961C183.673 309 184.098 309.04 184.098 309.524C184.098 310.009 183.955 310.048 182.744 310.335V335.434H209.487L209.492 335.439ZM195.139 311.917H188.62V319.031H195.139V311.917ZM195.139 320.405H188.62V328.933H195.139V320.405ZM196.815 319.031H203.65V311.917H196.815V319.031ZM196.815 328.933H203.65V320.405H196.815V328.933Z" fill="#0942DB"/>
<path d="M214.439 321.74C218.358 314.705 220.849 302.944 220.958 300.962L223.449 301.891C224.057 302.134 224.373 302.455 224.373 302.742C224.373 303.389 223.696 303.389 222.663 303.389C221.986 306.014 221.739 306.825 220.884 309.495V339.246H219.174V314.305C218.853 315.195 217.464 318.833 215.077 322.591L214.434 321.74H214.439ZM246.772 320.89C247.019 321.132 247.197 321.295 247.197 321.656C247.197 321.859 247.128 322.022 246.876 322.022C246.698 322.022 245.596 321.538 245.521 321.498C244.632 322.106 243.53 322.793 239.255 325.216C241.533 329.863 245.24 332.977 248.764 334.352L248.62 335.118C247.943 335.281 247.622 335.642 247.266 336.695C245.2 335.444 241.108 332.25 238.543 325.576C238.474 325.616 238.078 325.779 238.044 325.819C238.469 327.114 239.007 328.933 239.007 331.722C239.007 338.915 236.339 339.038 233.986 339.117C233.808 337.664 233.344 337.58 229.928 336.734L230.141 335.726C231.208 336.008 233.951 336.576 235.231 336.576C236.334 336.576 237.406 336.576 237.406 331.321C237.406 329.581 237.194 328.493 236.981 327.48C234.347 330.51 229.572 334.633 221.917 337.342L221.561 336.289C225.371 334.673 230.996 331.603 236.413 325.418C236.2 324.85 235.988 324.207 235.202 322.951C232.424 325.779 228.648 329.299 222.312 331.682L221.922 330.753C224.413 329.541 229.33 327.114 234.1 321.498C233.314 320.569 233.067 320.366 232.82 320.124C229.256 322.951 225.055 325.052 222.065 326.105L221.778 325.137C226.587 323.115 231.391 319.155 232.854 317.657H226.231V318.992H224.556V311.759C223.38 312.931 222.881 313.296 222.169 313.82L221.778 312.97C225.698 309.455 229.612 302.623 229.79 301.165L232.068 301.486C232.32 301.525 233.101 301.649 233.101 302.134C233.101 302.742 232.459 302.821 231.535 302.939C231.248 303.384 231.213 303.384 230.645 304.274H239.477L240.797 302.578C242.255 304.032 242.897 305.367 242.897 305.53C242.897 305.851 242.576 305.975 242.398 305.975C242.289 305.975 241.577 305.935 241.439 305.935C239.66 307.997 239.087 308.644 238.375 309.411H244.607L246.031 307.27C246.816 308.16 248.205 309.94 248.205 310.34C248.205 310.825 247.207 310.904 246.816 310.948V318.225H245.141V317.662H235.523C235.202 317.983 234.881 318.388 233.566 319.481C235.918 321.379 236.986 323.283 237.732 324.978C238.518 324.454 244.32 320.005 244.746 318.996L246.777 320.895L246.772 320.89ZM234.703 316.282V310.785H226.227V316.282H234.703ZM237.337 309.411C238.157 307.873 238.582 307.067 239.225 305.653H229.647C229.147 306.341 227.971 307.957 226.691 309.411H237.337ZM245.136 310.785H236.413V316.282H245.136V310.785Z" fill="#0942DB"/>
<path d="M252.253 305.693C253.785 307.433 256.064 307.631 257.596 307.631C258.95 307.631 262.261 307.226 262.973 307.107C263.22 306.459 264.253 303.671 264.253 303.147C264.253 302.499 263.363 302.499 263.255 302.499C262.153 302.499 261.688 302.781 261.332 302.984C261.475 301.204 262.686 300.962 263.897 300.962C265.607 300.962 266.996 301.446 266.996 302.297C266.996 302.578 266.319 303.468 266.21 303.711C265.854 304.561 265.321 305.975 264.93 306.825C266.462 306.543 272.62 305.411 274.227 304.561C274.439 304.437 275.26 303.592 275.472 303.592C276.184 303.592 278.181 303.834 278.181 304.966C278.181 306.098 276.362 306.464 276.006 306.543C269.774 308.036 264.93 308.644 264.04 308.768C262.405 312.243 259.019 317.054 258.52 317.538C259.054 317.133 261.263 315.071 261.727 314.75C263.65 313.336 265.039 313.01 266.25 313.01C267.569 313.01 270.485 313.291 271.306 318.67C272.586 318.062 278.393 315.758 279.569 315.234C280.815 314.71 280.958 314.671 280.958 314.226C280.958 313.944 280.281 311.798 278.502 311.922C278.68 311.195 279.11 310.829 279.782 310.829C281.314 310.829 283.736 314.547 283.736 316.248C283.736 316.895 283.489 317.498 283.059 317.498C282.881 317.498 282.06 317.296 281.882 317.296C281.527 317.296 277.182 318.507 271.484 320.366C271.518 321.013 271.553 321.78 271.553 323.317C271.553 325.863 271.34 328.933 271.128 329.986C271.019 330.392 270.807 330.797 270.342 330.797C269.665 330.797 269.274 329.665 269.274 329.017C269.274 328.493 269.561 326.308 269.596 325.863C269.774 323.639 269.774 322.388 269.739 321.053C268.884 321.374 264.253 323.238 261.372 326.145C259.914 327.598 259.059 329.26 259.059 331.563C259.059 335.805 262.301 336.616 269.492 336.616C271.449 336.616 275.477 336.537 278.823 335.647C279.288 335.523 280.103 335.241 280.424 335.241C281.027 335.241 281.779 336.25 281.779 337.14C281.779 337.703 281.601 337.951 281.102 338.109C280.138 338.475 274.904 338.796 269.423 338.796C262.41 338.796 257.779 337.866 257.779 331.806C257.779 327.074 260.625 323.639 269.635 319.397C269.492 318.062 269.067 314.305 265.681 314.305C261.372 314.305 255.213 322.511 254.462 323.48C252.54 326.026 252.431 326.19 251.897 326.19C251.576 326.19 251.111 325.784 251.111 324.697C251.111 323.767 251.289 323.525 252.11 322.838C252.821 322.269 254.744 320.371 256.029 318.838C257.309 317.301 259.627 314.349 262.192 308.936C261.727 308.976 258.238 309.178 257.991 309.178C257.245 309.178 253.469 309.178 251.902 306.553L252.258 305.703L252.253 305.693Z" fill="#0942DB"/>
<path d="M314.789 323.154C314.789 324.004 314.542 324.489 314.112 324.489C313.825 324.489 313.469 324.365 312.757 323.317C311.334 321.295 308.448 317.133 301.647 314.305C301.612 316.085 301.504 323.802 301.504 325.379C301.504 327.158 301.647 334.96 301.647 336.537C301.647 337.59 301.647 338.88 300.649 338.88C300.006 338.88 299.828 338.153 299.759 337.545C299.65 336.858 299.403 334.999 299.403 334.391C299.403 334.025 299.724 332.453 299.724 332.087C299.833 329.863 299.971 315.111 299.971 312.362C299.971 310.864 299.971 304.966 299.724 304.076C299.546 303.35 298.158 303.023 297.515 303.023C297.228 303.023 296.981 303.063 296.695 303.147C297.085 301.609 297.298 301.288 298.153 301.288C300.184 301.288 302.606 303.147 302.606 304.319C302.606 304.684 302.537 304.764 302.141 305.129C301.963 305.332 301.929 305.411 301.894 306.464C301.825 307.878 301.716 311.556 301.682 313.054C307.667 314.834 314.789 318.996 314.789 323.159V323.154ZM309.411 303.671C311.477 305.53 313.4 307.552 313.4 310.221C313.4 312.041 312.614 312.159 312.476 312.159C311.907 312.159 311.764 311.551 311.408 310.058C310.84 307.794 309.663 305.288 308.774 304.319L309.416 303.671H309.411ZM314.003 301.57C316.177 303.187 318.1 305.772 318.1 307.997C318.1 309.089 317.744 309.692 317.245 309.692C316.637 309.692 316.425 308.882 316.034 307.468C315.248 304.64 313.825 302.821 313.365 302.252L314.008 301.565L314.003 301.57Z" fill="#0942DB"/>
<path d="M326.25 305.851C326.996 305.851 328.459 307.023 329.171 308.234C331.523 308.234 336.08 307.952 338.645 307.789C341.779 307.586 345.342 307.468 348.011 307.344C348.155 307.141 348.797 306.291 348.901 306.093C349.291 305.569 349.365 305.569 349.435 305.569C349.756 305.569 352.286 308.966 352.286 309.327C352.286 309.569 352.286 309.811 350.72 309.974C350.329 314.824 349.543 325.171 349.222 330.105C350.433 330.629 350.645 330.753 350.645 331.603C350.645 332.127 350.324 332.854 349.825 332.854C349.613 332.854 348.402 332.651 348.115 332.611C346.869 332.448 346.014 332.369 341.527 332.369C338.038 332.369 333.12 332.369 329.774 332.735C329.739 334.999 329.739 335.968 328.706 335.968C327.921 335.968 327.639 333.101 327.639 332.572C327.639 332.453 327.748 331.321 327.748 331.158C327.748 330.876 327.817 329.462 327.817 327.801C327.817 325.616 327.57 310.216 326.927 308.763C326.749 308.318 326.037 307.31 325.005 307.023C325.113 306.499 325.43 305.851 326.25 305.851ZM329.67 330.955C331.593 330.792 334.835 330.55 338.537 330.431C345.337 330.189 346.123 330.149 347.334 330.065C348.258 319.234 348.436 312.807 348.545 308.966C347.655 309.045 346.766 309.089 338.749 309.574C336.54 309.697 331.696 310.137 329.206 310.385C329.349 316.203 329.596 325.542 329.67 330.96V330.955Z" fill="#0942DB"/>
<path d="M364.069 314.26C365.171 315.071 368.448 317.573 368.448 320.811C368.448 321.216 368.448 322.63 367.524 322.63C366.955 322.63 366.846 322.225 366.56 321.132C366.313 320.124 365.596 317.33 363.57 315.071L364.069 314.26ZM366.812 335.805C371.443 333.783 375.678 329.744 378.634 325.052C380.631 321.859 382.514 315.917 382.514 315.353C382.514 314.868 381.59 313.979 380.878 313.815C380.987 313.371 381.125 313.01 381.802 313.01C382.87 313.01 384.901 315.313 384.901 316.485C384.901 316.89 384.258 317.009 384.011 317.049C383.048 320.203 381.412 325.132 377.245 329.7C375.535 331.598 371.833 334.994 367.168 336.853L366.812 335.8V335.805ZM371.3 311.433C375.001 314.221 375.001 317.617 375.001 317.983C375.001 320.168 374.003 320.247 373.899 320.247C373.291 320.247 373.188 319.436 373.01 318.062C372.901 317.054 372.585 314.305 370.731 312.12L371.3 311.433Z" fill="#0942DB"/>
<path d="M398.611 337.501C402.313 335.439 407.408 332.369 411.857 326.061C415.489 320.929 417.98 314.864 419.265 308.437C416.522 308.679 404.31 309.608 401.814 309.851C401.137 309.93 398.967 310.172 398.646 310.538C398.181 311.062 398.146 311.062 398.003 311.062C397.005 311.062 395.334 308.15 395.334 305.886C395.334 304.917 395.725 304.551 396.333 304.19C396.333 305.644 396.901 307.102 397.222 307.344C397.543 307.586 400.39 307.586 400.964 307.586C402.174 307.586 416.596 307.062 418.805 306.899C418.736 306.617 418.662 306.212 418.662 305.648C418.662 302.821 420.441 300.759 422.898 300.759C425.354 300.759 427.133 302.781 427.133 305.688C427.133 308.595 425.389 310.78 422.898 310.78C421.865 310.78 421.296 310.459 420.906 310.256C416.275 329.294 405.021 335.8 399.076 338.593L398.611 337.501ZM419.695 305.693C419.695 307.675 420.975 309.332 422.937 309.332C424.791 309.332 426.036 307.794 426.036 305.777C426.036 303.434 424.504 302.178 422.903 302.178C421.015 302.178 419.7 303.715 419.7 305.693H419.695Z" fill="#0942DB"/>
<path d="M447.753 334.796C447.753 336.655 446.685 338.153 445.366 338.153C444.046 338.153 443.013 336.616 443.013 334.796C443.013 332.977 444.081 331.44 445.366 331.44C446.651 331.44 447.753 332.893 447.753 334.796ZM443.087 306.825C442.944 305.129 442.979 302.138 445.366 302.138C447.575 302.138 447.857 304.605 447.644 306.825L445.756 326.753H444.832L443.087 306.825Z" fill="#0942DB"/>
</g>
<defs>
<clipPath id="clip0_7_124">
<rect width="448" height="640" fill="white"/>
</clipPath>
</defs>
</svg>
