<svg width="300" height="82" viewBox="0 0 300 82" fill="none" xmlns="http://www.w3.org/2000/svg">
<g clip-path="url(#clip0_3_55)">
<path d="M41.2956 40.2626C44.9081 30.0204 39.3931 25.5967 32.9209 21.6224C32.4599 21.354 32.0047 21.0913 31.5495 20.8287C25.9994 17.6364 20.7528 14.625 22.9297 8.44471C24.5287 3.91013 29.0575 0.863736 34.1932 0.863736C40.2801 0.863736 44.0268 4.94894 46.6472 14.4791L46.6822 14.4675L49.4018 1.59907C46.1745 0.548592 42.4745 -0.00582886 38.6577 -0.00582886C33.843 -0.00582886 17.7356 1.11468 12.6525 15.5238C9.16253 25.4217 15.5355 29.2384 21.6924 32.9326C27.4409 36.2825 33.3878 39.7491 30.82 47.0324C28.8941 52.4891 23.6242 56.1541 17.7006 56.1541C10.5223 56.1541 3.27984 52.7108 0.0758671 40.5544L-0.011673 53.8197C2.97053 55.3721 8.25795 56.9419 14.7184 56.9419C21.1789 56.9419 35.9732 55.3137 41.2839 40.2568L41.2956 40.2626Z" fill="#0942DB"/>
<path d="M86.939 55.7923C85.7193 52.6408 85.1299 48.4155 85.089 42.6554L84.6571 0.922104H77.2804L47.5226 42.527C43.2332 48.4972 39.4456 52.775 35.7631 55.7923H46.8281C45.1824 53.0493 44.5754 47.867 51.0826 38.7745L53.5746 35.2262H72.8626V40.963C72.8451 46.6589 70.8025 51.8588 67.0616 55.7981H86.9332L86.939 55.7923ZM72.8684 34.3566H54.2632L72.9268 8.18793L72.8684 34.3566Z" fill="#0942DB"/>
<path d="M127.003 55.7922H144.202C165.229 55.7922 180.846 45.7076 187.056 28.1296C189.822 20.3035 189.664 13.9889 186.601 9.3668C182.936 3.84594 175.08 0.922096 163.887 0.922096C158.518 0.922096 154.847 1.0038 151.293 1.0855C148.305 1.15554 145.463 1.21973 141.815 1.22557C142.259 6.42545 141.891 9.6586 139.387 16.7377L130.966 40.5836C128.766 46.8048 127.021 50.0496 123.834 54.2749C123.455 54.7826 122.825 55.0511 122.2 54.9694C120.309 54.7243 118.915 54.2574 117.975 53.5629C116.469 52.454 115.541 50.7733 115.203 48.5614C114.905 46.583 114.759 42.8655 114.759 36.5976V19.2472C114.759 12.5999 114.969 8.76569 115.395 6.93318C115.88 4.86724 116.884 3.41991 118.378 2.62037C119.772 1.8792 122.352 1.52904 126.49 1.52904H126.997V0.91626H91.1935V1.52904H91.7012C95.9732 1.52904 98.6169 1.90838 100.023 2.72542C101.517 3.58915 102.48 5.11819 102.895 7.26584C103.256 9.16254 103.437 12.8859 103.437 19.2472V36.5976C103.437 43.2682 103.262 47.1316 102.895 49.0108C102.486 51.1118 101.494 52.6933 99.9358 53.7146C98.436 54.6951 95.9498 55.1736 92.3373 55.1736H91.1935V55.7864H126.997L127.003 55.7922ZM156.545 2.40444L157.21 2.33441C159.551 2.09513 162.375 1.9434 163.367 1.9434H163.56C169.332 1.9434 173.131 3.43742 175.168 6.50716C177.969 10.7266 177.409 17.9574 173.411 29.2793C168.754 42.4686 162.165 54.6834 145.643 54.7709C144.762 54.7709 141.576 54.6951 139.125 54.4616L138.197 54.3741L156.551 2.40444H156.545Z" fill="#0942DB"/>
<path d="M173.487 55.7922H184.552C182.906 53.0493 182.299 47.8669 188.807 38.7744L191.299 35.2262H210.587V40.9629C210.569 46.6589 208.526 51.8588 204.786 55.7981H231.946C230.972 50.4581 231.188 46.583 235.162 39.0021L251.153 7.89029L264.254 55.9148L266.367 55.7397L286.694 17.012C290.528 9.70529 293.931 6.09863 299.994 1.04465H289.04C289.962 6.34375 289.682 10.0146 285.597 17.9457L274.683 38.9087L264.54 1.03882H249.373C250.767 5.51503 250.417 8.79487 246.922 15.4538L234.199 39.6965C230.989 45.8127 228.124 49.3435 223.928 53.0727C223.525 53.4287 222.889 53.1485 222.889 52.6116L222.819 42.6496L222.387 0.91626H215.01L185.252 42.5212C180.963 48.4914 177.175 52.7692 173.493 55.7864L173.487 55.7922ZM210.651 8.18793L210.592 34.3566H191.987L210.651 8.18793Z" fill="#0942DB"/>
<path d="M77.7648 75.5179H77.8057C77.9516 75.5179 78.2083 75.4888 78.3017 75.2962C78.3134 75.2728 78.3134 75.2553 78.3017 75.232C78.2842 75.1911 78.2317 75.1444 78.1616 75.1094L77.4205 74.8351C76.8602 75.9907 75.5179 78.1266 74.2515 79.6674L74.4208 79.7782C76.1366 77.899 76.5042 77.403 77.7415 75.5413L77.7648 75.5063V75.5179Z" fill="#0942DB"/>
<path d="M96.3992 64.9314C96.1949 65.2524 95.2087 66.7406 92.9151 68.9933L93.0435 69.0983C94.7651 67.7152 96.0199 66.4896 96.6151 65.8827L96.6443 65.8535H96.6793C96.7785 65.8769 96.8894 65.8944 97.047 65.8944C97.1345 65.8944 97.3096 65.8944 97.3913 65.7251C97.438 65.6318 97.4613 65.5792 97.1053 65.3633L96.3934 64.9256L96.3992 64.9314Z" fill="#0942DB"/>
<path d="M90.5107 68.2988C90.4698 68.5031 90.4348 68.754 90.4931 68.8299C90.5048 68.8416 90.5223 68.8591 90.5865 68.8591C90.8491 68.8591 91.1818 68.4681 91.3569 68.0946C92.0105 66.7114 90.8375 65.4508 90.4873 65.1182L90.1722 65.375C90.6215 66.1453 90.7383 67.1491 90.5107 68.2988Z" fill="#0942DB"/>
<path d="M83.9218 69.9329C86.3262 68.4505 88.2813 66.6997 88.8241 66.1978L88.8766 66.1803H88.9116C88.97 66.192 89.0458 66.1978 89.1275 66.1978C89.3551 66.1978 89.4894 66.1395 89.5477 66.0169C89.6002 65.906 89.5769 65.8769 89.2676 65.6318L88.7307 65.2232C88.6606 65.3283 88.5614 65.4508 88.2405 65.8127C86.7289 67.5518 84.8206 68.9991 83.8284 69.7461L83.9276 69.9387L83.9218 69.9329Z" fill="#0942DB"/>
<path d="M80.5311 77.9399C81.1847 76.5626 80.642 75.4071 80.3793 74.9052L80.1401 75.0627C80.3385 76.1833 79.7899 77.7765 79.6615 78.1325C79.5565 78.4418 79.4689 78.6869 79.5156 78.7569C79.5331 78.7861 79.5973 78.7919 79.644 78.7919C79.9125 78.7919 80.3385 78.3367 80.5252 77.9399H80.5311Z" fill="#0942DB"/>
<path d="M92.0455 74.0706H89.9154L91.9288 69.8045L96.0665 69.822L96.3292 69.5711C96.2358 69.2909 96.1015 68.8824 95.7806 68.3572L94.6892 69.3493L87.721 69.3318L87.1199 68.7599C86.6472 69.466 85.089 71.1876 82.9238 73.0493L82.813 72.9618C83.2798 71.9346 82.6904 71.211 82.2002 70.6566L81.9434 70.8433C82.1301 71.2752 82.1943 71.637 82.1126 72.5066V72.5649H82.0484C81.2197 72.6291 80.2685 72.67 79.4456 72.6875H79.2472L79.8074 72.2031C80.5369 71.567 81.885 70.3939 82.241 70.073C83.239 69.1742 83.8459 68.6315 84.698 67.7094L84.7213 67.6802H84.7563C84.8847 67.6977 84.9956 67.7035 85.0948 67.7035C85.3983 67.7035 85.4742 67.6277 85.5092 67.546C85.5442 67.4701 85.55 67.4643 85.2816 67.2892L84.5521 66.8223C83.9335 67.8203 80.1809 71.5611 78.9495 72.6817C78.7686 72.6817 77.8757 72.67 77.5489 72.6233L77.3213 73.5746C77.2863 73.7263 77.3038 73.7672 77.3271 73.7788C77.3796 73.7788 77.403 73.7613 77.6773 73.4812C78.1558 73.4462 78.5293 73.4053 79.5915 73.2711L79.7257 73.2536L75.9031 81.3481H76.6151L80.4844 73.1544H80.5252C81.4473 73.026 81.5349 73.0085 81.9551 72.9209H82.0601L82.0368 73.026C81.9376 73.5162 81.9084 73.6679 81.9492 73.7438L81.9784 73.8022C81.9784 73.8022 81.4473 74.2049 81.2664 74.3391L81.3364 74.5667C82.4803 73.8313 82.9822 73.452 83.9568 72.6583L84.0677 72.7459L80.0058 81.3481H80.7003L85.375 71.4678C86.1978 70.7499 86.5188 70.4406 87.19 69.787H91.2285L86.513 79.7666L86.443 79.7082C85.6726 79.0954 85.4858 77.7882 85.9411 76.1074C86.4838 75.2203 87.0908 74.2049 88.007 72.3782L88.0479 72.3373H88.0887C88.4272 72.3023 88.8065 72.2673 88.8999 72.063C88.9116 72.0397 88.9233 71.9988 88.9174 71.9813C88.8941 71.9288 88.7423 71.8938 88.5556 71.8529L87.6218 71.6545V71.672C87.3884 72.1914 87.2075 72.6058 86.3146 74.2982C85.4158 76.014 84.1844 78.3659 81.3364 81.1205L81.459 81.3131C82.7896 80.1401 83.951 78.967 85.2933 77.1053L85.4216 77.1637C85.1474 78.6577 85.2582 79.6323 85.7601 80.2393C86.3612 80.963 87.4993 81.1088 89.0166 81.1088C89.4952 81.1088 89.8454 81.0972 90.2072 81.0622C90.4231 80.6245 90.6682 80.4144 91.1234 80.2743L91.2577 79.9942C90.604 80.0759 89.822 80.1167 88.9699 80.1167C88.0012 80.1167 87.6393 80.07 87.2133 80.0117L87.1141 80L89.7111 74.5083L93.3003 74.5258L93.5629 74.2749C93.4228 73.8547 93.3178 73.5571 93.1018 73.1018L92.0514 74.0531L92.0455 74.0706Z" fill="#0942DB"/>
<path d="M83.7059 65.8477L83.7759 65.8243H83.8051C84.3011 65.7893 84.3537 65.7835 84.4179 65.6376C84.4354 65.6026 84.4354 65.5676 84.4237 65.5442C84.4062 65.5092 84.3653 65.4742 84.3011 65.4625L83.3148 65.1474C82.5328 66.4255 81.5407 67.6452 81.0155 68.2638L80.9513 68.3338L80.8987 68.2521C80.6886 67.9428 80.5427 67.7502 80.0467 67.4759L79.8307 67.6627C80.1167 68.0829 80.3735 68.5147 80.2568 69.9329C80.2218 70.2597 80.1984 70.5457 80.2393 70.5924C80.2451 70.604 80.2743 70.604 80.321 70.604C80.5019 70.604 80.7995 70.3764 80.998 69.9621C81.3131 69.3026 81.1614 68.8999 81.0271 68.5264L81.0096 68.4797L81.0446 68.4447C81.5932 67.9603 82.2527 67.3651 83.7059 65.836V65.8477Z" fill="#0942DB"/>
<path d="M113.481 73.7847C113.254 73.0727 113.108 72.7692 112.979 72.5299L111.736 73.5921H100.111L101.156 71.3802H111.684L111.894 71.1585C111.777 70.8316 111.538 70.2772 111.31 69.9854L110.201 70.9367H101.371L102.311 68.9524H112.833L113.043 68.6957C112.863 68.258 112.705 67.9311 112.477 67.5868L111.392 68.4972H102.527L103.426 66.6005L115.331 66.6239L115.588 66.3613C115.337 65.6376 115.203 65.3808 115.045 65.089L113.837 66.1512L104.056 66.1337L103.251 65.4742L99.4164 73.5979H97.5489L96.5159 73.4987L96.3642 74.094L97.1462 74.0473H99.2063L96.4751 79.8308H96.4342C95.3079 79.9008 94.59 79.9183 93.8722 79.9183L93.7497 80.9046C93.7146 81.1555 93.7263 81.2314 93.7963 81.2606C93.8489 81.2606 93.9656 81.1847 94.2049 80.8346L94.2224 80.8054L94.6484 80.7587C98.9087 80.3268 101.984 80.0117 105.375 79.4339H105.41L105.433 79.4514C105.859 79.7957 107.149 80.8346 109.116 81.3189C109.495 80.8637 109.74 80.7529 110.196 80.7003L110.371 80.4027C106.828 79.8308 105.433 78.2025 104.972 77.6598L104.902 77.5781L105.007 77.543C107.149 76.8836 108.702 76.2416 109.723 75.8156L109.956 75.7397L110.085 75.7922C110.336 75.8915 110.464 75.944 110.592 75.944C110.692 75.944 110.762 75.9031 110.802 75.8273C110.843 75.7456 110.826 75.6639 110.738 75.553L110.096 74.6834C109.641 74.9985 108.141 75.9557 104.809 77.368L104.756 77.3913L104.721 77.3446C104.231 76.6618 103.648 75.6755 103.49 74.1231V74.0414L113.242 74.0648L113.505 73.7788L113.481 73.7847ZM105.001 79.0779L105.101 79.1888L104.955 79.2005C101.523 79.5156 101.191 79.5331 97.9983 79.7374L97.1812 79.7899L99.895 74.0473H103.064V74.1173C103.116 76.761 104.196 78.2142 105.001 79.0779Z" fill="#0942DB"/>
<path d="M136.37 66.618L136.568 66.3788C136.189 65.4859 136.107 65.34 135.926 65.0948L134.724 66.1628H120.753L119.749 66.0461L119.58 66.6414L120.169 66.6122H127.476L126.291 69.1217L123.006 69.1042L122.346 68.5964L117.625 78.5877H118.337L118.833 77.5372H126.659L126.163 78.5877H126.857L131.024 69.7636H131.065C131.73 69.6586 131.812 69.6411 131.841 69.5769C131.865 69.4718 131.625 68.7423 131.31 68.3397L130.411 69.1159H126.992L128.176 66.6064H136.376L136.37 66.618ZM122.597 69.5769H126.081L124.558 72.8042H121.074L122.597 69.5769ZM119.043 77.0995L120.858 73.2594H124.342L122.527 77.0995H119.043ZM126.869 77.0995H123.221L125.036 73.2594H128.684L126.869 77.0995ZM130.417 69.5769L128.894 72.8042H125.247L126.77 69.5769H130.417Z" fill="#0942DB"/>
<path d="M134.456 68.8941C134.981 68.8532 135.331 68.719 135.419 68.5323C135.436 68.4972 135.436 68.4622 135.419 68.4389C135.395 68.398 135.331 68.3747 135.255 68.3747L133.995 68.3046L128.509 79.9183H114.713L119.918 68.8999H119.953C120.636 68.7715 120.677 68.754 120.759 68.5848C120.776 68.5498 120.782 68.5206 120.776 68.5031C120.753 68.4622 120.636 68.4505 120.554 68.4447L119.486 68.328L113.335 81.354H114.047L114.508 80.3735H128.305L127.844 81.354H128.538L134.421 68.8999H134.462L134.456 68.8941Z" fill="#0942DB"/>
<path d="M142.778 65.9061L142.801 65.8769H142.836C143.35 65.8769 143.665 65.8769 143.776 65.6376C143.788 65.6143 143.788 65.5909 143.776 65.5676C143.753 65.4975 143.653 65.4275 143.513 65.375L142.492 64.9956C141.932 65.9761 138.389 70.8842 134.969 73.9306L135.063 74.1582C137.041 72.5241 138.488 70.9425 138.763 70.6332L138.885 70.7149L133.831 81.424H134.543L140.624 68.5556C141.587 67.4176 141.879 67.0733 142.778 65.9119V65.9061Z" fill="#0942DB"/>
<path d="M154.368 68.9349C154.421 68.8182 154.176 68.1996 153.931 67.7444L152.787 68.6373H149.361L149.571 68.5031C150.09 68.1704 150.516 67.8903 151.882 66.9857C151.923 66.9857 152.337 67.0032 152.366 67.0032C152.437 67.0032 152.594 66.9565 152.641 66.8573C152.658 66.7873 152.606 66.2796 152.221 65.7076L151.217 66.4138H146.507L146.665 66.2854C146.939 66.0578 147.062 65.9644 147.161 65.8885C147.231 65.836 147.289 65.7893 147.441 65.6901C147.919 65.6376 148.229 65.6084 148.34 65.3283C148.322 65.2933 148.246 65.2407 147.995 65.2057L146.945 65.0715C146.46 65.766 143.221 68.6023 140.484 70.1488L140.502 70.3648C140.922 70.1605 141.261 69.9913 142.037 69.5244L142.241 69.396L140.706 72.6466H141.401L141.675 72.0689H145.357L145.136 72.2031C144.085 72.8509 140.835 74.5608 137.987 75.4363L137.952 75.7047C139.58 75.267 142.13 74.3799 144.54 73.1427L144.593 73.1135L144.669 73.2127C144.739 73.3061 144.832 73.4228 145.007 73.7672L145.036 73.8255L144.984 73.8605C141.395 76.3 138.389 77.3563 136.913 77.864V78.1208C140.397 77.1404 142.941 75.7397 145.171 74.3683L145.252 74.3157L145.276 74.4091C145.41 74.9227 145.398 75.2086 145.392 75.5004V75.5355L145.357 75.5588C142.224 77.6423 138.938 79.2297 135.588 80.2685L135.565 80.5719C140.012 79.3872 143.227 77.6131 145.142 76.335L145.293 76.2358L145.252 76.4109C145.142 76.8953 145.025 77.3563 144.68 78.0916C143.583 80.4085 143.023 80.4085 142.434 80.4085C141.803 80.4085 140.595 80.1868 140.041 80.0525L139.819 80.3618C140.817 80.5953 141.231 80.6945 141.366 80.9338C141.43 81.0563 141.424 81.1964 141.371 81.3656C142.545 81.3306 143.863 81.2081 145.282 78.2025C145.819 77.0703 145.941 76.3175 145.994 75.6697V75.6347L146.029 75.6172C146.052 75.6055 146.104 75.5821 146.25 75.5355L146.35 75.5063L146.449 75.4654V75.5763C146.39 78.3484 147.709 79.714 148.532 80.2976C148.912 79.8716 149.163 79.714 149.495 79.6674L149.67 79.4106C147.995 78.7161 146.922 77.2688 146.729 75.4246V75.3721L146.776 75.3545C149.349 74.3449 150.125 74.0181 150.727 73.7438L150.762 73.7263L150.797 73.7438C150.849 73.773 151.269 73.9597 151.339 73.9597C151.421 73.9597 151.474 73.9247 151.509 73.843C151.561 73.7321 151.532 73.6913 151.456 73.5862L150.861 72.8217C150.201 73.3645 146.566 75.162 146.099 75.3779L145.999 75.4246V75.3195C145.964 74.625 145.824 73.8022 145.013 72.9851L144.943 72.9151L145.031 72.8684C145.76 72.4832 146.058 72.2965 146.268 72.1623L146.437 72.0689H151.456L151.339 72.314H152.028L153.499 69.2034L153.545 69.1625H153.586C153.767 69.145 154.252 69.1042 154.333 68.9408L154.368 68.9349ZM143.612 68.5031C144.564 67.8728 145.492 67.1725 145.889 66.8748L145.906 66.8573H150.989L150.867 66.9799C150.236 67.6043 149.845 67.9603 149.081 68.6315H143.408L143.612 68.4972V68.5031ZM146.379 71.6137H141.897L143.093 69.0867H147.575L146.379 71.6137ZM151.701 71.6137H147.091L148.287 69.0867H152.898L151.701 71.6137Z" fill="#0942DB"/>
<path d="M166.495 79.8308C166.39 79.8308 166.11 79.895 165.883 79.9416C165.783 79.965 165.684 79.9883 165.608 80C164.237 80.2801 162.562 80.4202 160.636 80.4202C158.226 80.4202 156.638 80.2743 156.177 79.5506C155.961 79.2063 155.996 78.7394 156.282 78.1266C156.726 77.1929 157.461 76.44 158.599 75.7456C160.735 74.4383 163.607 73.6213 163.928 73.5279L164.074 73.487L164.009 73.6271C163.735 74.2515 163.472 74.7943 162.947 75.7164C162.912 75.7806 162.813 75.9381 162.702 76.1249C162.492 76.4692 162.212 76.9361 162.142 77.082C162.054 77.2629 162.019 77.5372 162.101 77.6714C162.136 77.724 162.183 77.7473 162.253 77.7473C162.422 77.7473 162.591 77.6364 162.76 77.4263C163.064 76.9945 163.788 75.7105 164.336 74.5433C164.651 73.878 164.791 73.5454 164.902 73.2711L164.914 73.2361H164.949C168.1 72.454 170.692 71.8938 170.896 71.8938C170.943 71.8938 171.065 71.9171 171.188 71.9405C171.298 71.9638 171.409 71.9813 171.456 71.9813C171.625 71.9813 171.859 71.7596 171.993 71.4794C172.203 71.0301 172.098 70.1955 171.76 69.6644C171.637 69.4719 171.427 69.2384 171.153 69.2384C170.878 69.2384 170.639 69.3435 170.429 69.5652C170.767 69.5886 170.943 69.752 171.03 69.892C171.211 70.178 171.17 70.569 171.123 70.6682C171.024 70.8842 170.919 70.9133 170.26 71.1176L170.16 71.1468C169.857 71.246 169.057 71.4853 168.176 71.7479C167.009 72.0922 165.69 72.4891 165.247 72.635L165.112 72.6817L165.153 72.5474C165.404 71.6837 165.387 71.0476 165.095 70.6566C164.78 70.2364 164.202 70.1838 163.799 70.1838C163.292 70.1838 162.539 70.2714 161.167 70.9309C161.01 71.0009 160.514 71.281 160.023 71.5553C159.574 71.8063 159.13 72.0572 158.961 72.1389L158.891 72.0105C159.241 71.8004 161.949 69.717 163.531 68.1996L163.63 68.1879C165.731 67.9603 167.902 67.6393 170.09 67.2367C170.843 67.1024 171.328 66.8748 171.462 66.5947C171.497 66.5188 171.497 66.4488 171.462 66.3904C171.328 66.1803 170.756 66.0986 170.429 66.0986C170.371 66.0986 170.09 66.2562 169.927 66.3496C169.793 66.4255 169.67 66.4897 169.618 66.513C168.964 66.7581 167.213 67.0849 164.4 67.4993L164.179 67.5285L164.336 67.3709C164.575 67.1374 164.885 66.8048 165.177 66.5013C165.34 66.3262 165.498 66.157 165.626 66.0228C165.661 65.9878 165.754 65.9119 165.854 65.8302C166.011 65.7076 166.268 65.4975 166.297 65.4275C166.326 65.3633 166.326 65.3049 166.297 65.2524C166.18 65.0715 165.696 64.9489 165.06 64.9489C164.5 64.9489 163.933 65.0306 163.519 65.6084C163.723 65.5384 164.004 65.4683 164.418 65.4683C164.546 65.4683 164.774 65.4859 164.861 65.6201C164.891 65.6668 164.914 65.7426 164.861 65.8535C164.733 66.122 163.397 67.5751 163.338 67.6102C162.936 67.6627 161.173 67.8378 160.479 67.8378C159.697 67.8378 158.617 67.7561 158.138 67.0441L157.876 67.3125C158.121 68.2171 159.533 68.3572 160.362 68.3572C160.484 68.3572 162.305 68.2696 162.55 68.2521L162.749 68.2405L162.603 68.3805C160.268 70.6449 158.529 71.923 157.426 72.6817C156.423 73.3761 155.063 74.1873 154.602 74.4208C154.059 74.7126 153.925 74.8118 153.744 75.1911C153.592 75.5063 153.639 75.6405 153.668 75.6814C153.697 75.728 153.738 75.7339 153.773 75.7339C154.012 75.7339 154.123 75.6522 155.471 74.6601L155.652 74.5258C157.677 73.0493 161.354 70.5807 163.227 70.5807C163.747 70.5807 164.12 70.7266 164.324 71.0184C164.721 71.5728 164.406 72.4949 164.272 72.8859L164.26 72.9209L164.225 72.9326C159.002 74.6892 156.691 76.1366 155.681 78.2725C155.285 79.1129 155.232 79.7316 155.512 80.1809C156.078 81.0797 158.062 81.2022 160.123 81.2022C162.842 81.2022 165.626 81.068 166.204 80.9046C166.472 80.8404 166.595 80.747 166.7 80.5252C166.793 80.3268 166.787 80.0992 166.688 79.9416C166.63 79.8541 166.554 79.8016 166.46 79.8016L166.495 79.8308Z" fill="#0942DB"/>
<path d="M191.666 71.1701L191.818 70.9017C190.587 70.5865 189.548 69.9562 188.649 68.9758C187.575 67.8378 187.394 66.7639 187.295 65.7602V65.6901L187.359 65.6784C187.628 65.6376 188.451 65.5209 188.596 65.2116C188.608 65.1882 188.626 65.1415 188.614 65.1182C188.573 65.054 188.334 65.0423 188.153 65.0365L186.776 64.9373C186.84 67.1783 186.962 69.9446 190.511 71.8471C190.89 71.3919 191.252 71.1818 191.672 71.1643L191.666 71.1701Z" fill="#0942DB"/>
<path d="M187.178 71.7187H176.3L176.172 72.1681H180.63L180.753 72.1914L180.671 72.3082C179.685 73.7263 176.685 78.0449 169.886 81.0505L169.904 81.3073C174.608 79.574 178.518 76.5276 181.512 72.2556L181.57 72.1739H187.242L187.196 72.279C186.717 73.2886 185.083 76.6035 183.881 78.4885C183.146 79.6382 182.749 80.1868 181.692 80.1868C181.027 80.1868 180.228 80.0234 178.576 79.6557L178.348 80.0817C179.656 80.3618 180.268 80.5486 180.455 80.8754C180.525 81.0038 180.537 81.1497 180.484 81.3481C182.124 81.2431 182.842 80.7353 183.373 80.2043C184.891 78.6811 187.861 72.419 187.89 72.3548L187.908 72.3198L188.065 72.3023C188.602 72.244 188.637 72.2381 188.672 72.1681C188.69 72.0805 188.521 71.4386 188.211 70.8842L187.184 71.7245L187.178 71.7187Z" fill="#0942DB"/>
<path d="M182.784 64.9431C181.996 66.1161 178.436 69.8278 173.773 72.6291L173.826 72.8859C175.46 71.9988 179.434 69.6353 182.959 65.8827L182.988 65.8535L183.029 65.8652C183.169 65.9002 183.42 65.9352 183.595 65.9352C183.758 65.9352 183.863 65.8769 183.916 65.766C183.98 65.6318 183.805 65.515 183.776 65.4917L182.784 64.9489V64.9431Z" fill="#0942DB"/>
<path d="M208.124 66.9915H208.165C208.48 66.9507 208.982 66.8223 209.081 66.6239C209.098 66.5889 209.092 66.5714 209.087 66.5655C209.069 66.5422 209.017 66.5072 208.906 66.5013L207.68 66.4313L202.422 77.5664H203.134L208.13 66.9857L208.124 66.9915Z" fill="#0942DB"/>
<path d="M193.149 73.9831L192.454 73.9364L192.308 74.4791L192.874 74.4325H202.865L203.081 74.1873L203.035 74.0414C202.825 73.3878 202.778 73.2419 202.62 73.0143L201.488 73.9773H198.033L198.856 72.2381L202.737 72.2615L202.959 72.028C202.825 71.5903 202.76 71.4094 202.539 70.9542L201.605 71.7829H199.072L199.825 70.1838H204.085L204.295 69.9621C204.184 69.6819 204.138 69.5711 203.986 69.2384L203.963 69.1917L203.998 69.1567C204.424 68.7424 204.523 68.6373 205.474 67.5693L205.498 67.546H205.533C205.842 67.546 206.128 67.5343 206.192 67.3942C206.227 67.2775 205.924 66.4955 205.708 66.1628L204.675 67.0091H201.331L202.008 65.5734L202.113 65.5559C202.568 65.48 202.801 65.4392 202.895 65.2407C202.9 65.2232 202.918 65.1882 202.906 65.1649C202.906 65.1532 202.871 65.124 202.76 65.1182L201.552 65.0482L200.624 67.0091H197.543L197.59 66.904C197.759 66.548 197.817 66.4255 197.911 66.1979L197.671 66.1862C197.158 67.1958 196.714 67.8028 195.769 68.2638C194.882 68.684 194.876 68.6898 194.783 68.8941C194.753 68.9583 194.707 69.0808 194.753 69.1567C194.8 69.2267 194.929 69.2442 195.028 69.2442C195.209 69.2442 196.154 69.1625 197.263 67.4876L197.286 67.4526H204.768L204.47 67.9953C204.272 68.3572 204.196 68.4972 203.963 68.9116L203.904 69.0108L203.776 68.8241L202.725 69.7345H200.053L200.473 68.8416L200.531 68.8007H200.566C200.881 68.7307 201.313 68.6431 201.418 68.3864C201.395 68.3513 201.313 68.3163 201.202 68.3163L200.029 68.2813L199.341 69.7345H195.95L195.296 69.6878L195.197 70.2305L195.676 70.1838H199.13L198.378 71.7829H195.314L194.543 71.7187L194.444 72.2965L195.039 72.2381H198.167L197.345 73.9773H193.172L193.149 73.9831Z" fill="#0942DB"/>
<path d="M201.383 76.4984C201.389 76.4517 201.319 76.0374 200.864 75.3487L199.942 76.1016L193.499 76.084L192.775 75.4129L189.968 81.354H190.68L191.112 80.4435H198.156L197.823 81.1439H198.535L200.659 76.6443L200.77 76.6326C201.272 76.5801 201.371 76.5217 201.383 76.4984ZM198.372 79.9883H191.328L192.95 76.5509H199.994L198.372 79.9883Z" fill="#0942DB"/>
<path d="M212.699 65.8185C212.938 65.7835 213.388 65.7193 213.493 65.5034C213.516 65.4567 213.522 65.4275 213.51 65.41C213.487 65.3691 213.347 65.3575 213.242 65.3458L212.145 65.2758L205.62 79.0896C205.2 79.9767 204.972 80.1984 204.033 80.1984C203.146 80.1984 202.311 80.1342 201.488 79.9942L201.272 80.4494C202.124 80.5369 202.79 80.6128 203.029 80.9454C203.111 81.0563 203.14 81.1847 203.122 81.3423C205.352 81.1497 205.854 80.0875 206.297 79.1479L212.588 65.8302L212.693 65.8127L212.699 65.8185Z" fill="#0942DB"/>
<path d="M230.797 68.9116C230.954 68.9116 231.118 68.7832 231.211 68.5848C231.392 68.1996 231.328 68.1412 230.937 67.8144C230.446 67.4176 230.219 67.3534 230.125 67.3534C230.073 67.3534 230.009 67.3826 229.95 67.4117C229.53 67.6802 229.454 67.7152 229.262 67.7561C228.824 67.8494 228.579 67.8611 226.239 67.9837L224.745 68.0595L224.786 67.9545C224.786 67.9545 225.293 66.6881 225.667 66.2854C225.684 66.2679 225.725 66.2212 225.783 66.1687C225.854 66.0986 226.005 65.9527 226.023 65.9119C226.093 65.766 226.087 65.6201 225.999 65.4859C225.813 65.1941 225.322 65.0015 224.774 65.0015C223.869 65.0015 223.449 65.4975 223.239 65.8419C223.426 65.7718 223.618 65.731 224.015 65.731C224.447 65.731 224.698 65.7835 224.797 65.9002C224.838 65.9469 224.85 65.9994 224.844 66.0636C224.791 66.2971 224.733 66.4488 224.097 68.0362L224.079 68.077C224.079 68.077 223.186 68.1296 222.766 68.1587C221.862 68.2113 220.922 68.2696 219.673 68.363C219.638 68.363 216.335 68.6256 215.821 68.6256C215.407 68.6256 215.226 68.5789 215.203 68.1004C215.168 67.7035 215.308 67.3884 215.43 67.1725C215.115 67.2775 214.847 67.5576 214.637 68.007C214.45 68.398 214.537 69.2909 214.806 69.7053C214.864 69.8045 214.964 69.9154 215.092 69.9154C215.162 69.9154 215.512 69.7286 215.664 69.6528C215.74 69.6177 215.798 69.5827 215.833 69.5711C216.475 69.3259 220.718 68.7073 223.747 68.6198H223.858L223.817 68.719C223.735 68.9291 223.472 69.5477 223.21 70.1605C222.965 70.7441 222.714 71.316 222.626 71.5378L222.55 71.7012L222.48 71.5261C222.299 71.0534 222.078 70.464 220.957 70.464C219.702 70.464 217.35 71.7771 216.189 74.2399C215.664 75.3545 215.576 76.2941 215.944 76.8719C216.183 77.2512 216.621 77.4613 217.164 77.4613C218.173 77.4613 219.352 76.8194 220.578 75.6055L220.694 75.693C219.428 77.8874 217.636 80.2918 212.372 80.998L212.291 81.3598C213.604 81.2664 215.565 80.7762 216.819 80.2159C217.555 79.8891 220.099 78.5352 221.885 74.7476C222.171 74.1407 222.317 73.7496 222.399 73.5162C222.48 73.2302 222.504 73.0552 222.527 72.8918L222.685 72.5591C223.601 70.6157 223.84 70.0788 224.319 69.0108L224.505 68.5964L225.603 68.5731C226.35 68.5556 227.097 68.5439 227.388 68.5439C229.408 68.5439 229.933 68.6723 230.231 68.7423C230.33 68.7774 230.709 68.8941 230.802 68.8941L230.797 68.9116ZM221.745 73.7088C220.905 75.4888 219.241 76.7844 217.794 76.7844C217.298 76.7844 216.936 76.6151 216.732 76.3C216.44 75.8389 216.528 75.1036 216.989 74.1173C217.946 72.0981 219.626 70.8842 220.7 70.8842C221.296 70.8842 221.71 71.0651 221.938 71.4211C222.416 72.1798 221.856 73.4578 221.739 73.7088H221.745Z" fill="#0942DB"/>
<path d="M241.605 70.3881C238.985 70.3881 236.393 71.567 235.419 72.0105L235.349 71.8821L235.506 71.7887C237.047 70.8608 239.381 69.4543 243.589 67.1666C244.021 66.9215 244.488 66.6881 244.931 66.6472C245.264 66.6297 245.322 66.6122 245.41 66.4255C245.486 66.262 245.375 65.8769 245.159 65.5325C244.984 65.2583 244.78 65.0773 244.64 65.0773C244.61 65.0773 244.546 65.0948 244.453 65.1415C244.412 65.159 244.237 65.2641 244.097 65.3516C243.939 65.4508 243.782 65.5501 243.729 65.5734C243.204 65.8594 236.469 66.6531 236.417 66.6531C236.166 66.6531 235.991 66.5714 235.886 66.4021C235.658 66.0461 235.856 65.41 235.985 65.0773C235.722 65.2466 235.442 65.4684 235.226 65.9294C234.94 66.5422 235.016 67.3067 235.261 67.6919C235.343 67.8203 235.436 67.8903 235.524 67.8903C235.57 67.8903 235.775 67.7852 235.88 67.7327C235.956 67.6977 236.02 67.6627 236.049 67.651C236.901 67.3125 243.758 66.0695 243.793 66.0695C243.852 66.0695 243.898 66.0928 243.922 66.1337L243.945 66.227L243.928 66.262C243.893 66.3379 243.788 66.4079 243.694 66.4663C243.513 66.5889 240.42 68.4564 237.689 70.1021C235.641 71.3394 233.866 72.4074 233.703 72.5124L232.349 73.3586C231.474 73.9072 230.505 74.5083 230.382 74.5842C229.571 75.0627 229.017 75.4654 228.777 75.9732C228.719 76.1016 228.696 76.2941 228.76 76.3934C228.789 76.44 228.836 76.4634 228.906 76.4634C229.063 76.4634 229.233 76.3992 229.612 76.0782C230.557 75.2728 231.713 74.5083 232.909 73.7263C236.924 71.0651 240.28 70.9309 240.91 70.9309C242.054 70.9309 242.883 71.2927 243.315 71.9697C243.805 72.7459 243.729 73.9014 243.105 75.2262C242.69 76.1074 240.333 80.4902 234.689 80.4902C233.154 80.4902 232.121 80.1459 231.713 79.4981C231.444 79.0779 231.45 78.5352 231.713 77.9691C232.477 76.3467 234.31 76.265 234.672 76.265C235.477 76.265 236.067 76.5101 236.428 76.9886C236.831 77.5255 236.913 78.3776 236.656 79.2705L236.603 79.4514C236.504 79.8133 236.434 80.07 236.458 80.1109C236.469 80.1226 236.545 80.1226 236.586 80.1226C236.849 80.1226 237.269 79.8833 237.584 79.218C237.963 78.4126 237.934 77.5255 237.508 76.8486C237.064 76.1482 236.253 75.7631 235.226 75.7631C233.312 75.7631 231.666 77.0587 231.088 78.2784C230.884 78.7161 230.715 79.3522 231.077 79.9241C231.544 80.6595 232.758 81.0447 234.584 81.0447C236.598 81.0447 238.319 80.6303 239.691 79.8133C242.375 78.2434 243.624 75.9148 243.945 75.2378C244.663 73.7205 244.745 72.4599 244.19 71.5787C243.718 70.8316 242.772 70.3998 241.605 70.3998V70.3881Z" fill="#0942DB"/>
<path d="M250.534 72.1856C250.563 72.2206 250.61 72.2381 250.668 72.2381C250.907 72.2381 251.345 71.8588 251.637 71.246C251.975 70.534 252.25 69.0633 250.359 67.1374L250.02 67.4059C250.441 68.1996 250.931 69.4835 250.528 71.5903C250.505 71.707 250.429 72.0514 250.534 72.1856Z" fill="#0942DB"/>
<path d="M263.239 66.1512C262.994 66.1512 262.766 66.3146 262.574 66.4721C262.959 66.7406 263.315 67.3592 263.07 67.8786C262.871 68.3046 260.268 71.2168 257.321 73.6154C255.827 74.8293 250.499 78.9028 244.657 80.4494L244.634 80.8579C254.444 78.2375 260.519 71.8296 263.443 68.7424L263.484 68.719H263.513C263.974 68.7015 264.056 68.6957 264.184 68.4272C264.383 68.0012 264.26 67.2016 263.904 66.6414C263.706 66.3262 263.467 66.1512 263.233 66.1512H263.239Z" fill="#0942DB"/>
<path d="M255.81 70.8083C255.81 70.8083 255.851 70.8725 255.979 70.8725C256.131 70.8725 256.668 70.6624 257.111 69.7228C257.403 69.0983 257.94 67.4584 256.592 65.5617L256.207 65.8068C256.779 67.5518 256.224 69.3785 255.938 70.1313C255.868 70.3064 255.722 70.6682 255.816 70.8083H255.81Z" fill="#0942DB"/>
<path d="M279.055 73.4403C279.311 73.4812 279.662 73.5337 279.767 73.5337C280.263 73.5337 280.549 72.9676 280.554 72.9618C280.595 72.8684 280.595 72.7867 280.543 72.705C280.309 72.3373 279.247 72.1564 279.078 72.1564H279.072C278.739 72.3899 278.646 72.4482 278.36 72.4832C277.187 72.6058 268.089 72.7984 266.455 72.7984C266.034 72.7984 265.62 72.7809 265.427 72.635C265.229 72.4774 264.943 72.1156 265.101 71.4211C264.92 71.532 264.721 71.6837 264.587 71.9697C264.307 72.5533 264.517 73.2477 264.803 73.703C264.966 73.9539 265.112 74.0765 265.165 74.0765C265.206 74.0765 265.328 74.0473 265.667 73.7263C267.634 73.5629 272.069 73.3236 276.23 73.3236C276.907 73.3236 278.162 73.3236 278.745 73.3936C278.798 73.3936 278.915 73.417 279.049 73.4403H279.055Z" fill="#0942DB"/>
<path d="M287.155 71.3277C288.351 69.145 288.591 68.7424 288.655 68.7073C288.976 68.5264 289.087 68.4564 289.128 68.3688C289.198 68.2171 289.163 68.0012 289.022 67.7852C288.818 67.4643 288.375 67.1199 287.739 67.1199C287.406 67.1199 287.202 67.2658 286.904 67.5985C287.458 67.6569 287.762 67.7794 287.884 67.9837C287.972 68.1354 287.954 68.328 287.838 68.5848C285.089 74.4033 282.037 78.0741 277.636 80.8404L277.666 81.1264C279.136 80.3152 283.665 77.5022 286.618 72.2906C286.711 72.1272 286.91 71.7596 287.155 71.3219V71.3277Z" fill="#0942DB"/>
<path d="M287.435 79.1655L287.272 79.2238L287.348 79.0662C288.235 77.1929 291.917 69.5827 293.09 67.3242C293.265 66.9974 293.376 66.9157 293.51 66.8398L293.563 66.8048C293.744 66.6939 293.767 66.6822 293.82 66.5714C293.878 66.443 293.861 66.3087 293.767 66.157C293.51 65.7485 292.717 65.375 292.098 65.375C291.719 65.375 291.433 65.6726 291.258 65.8944C291.748 65.9527 292.507 66.0811 292.489 66.6355C292.489 66.9332 291.742 68.5498 291.088 69.9212L291.007 70.0963C287.563 77.3855 287.097 78.1908 286.711 78.8503C286.682 78.8912 286.606 78.9962 286.519 79.1071C286.402 79.253 286.25 79.4514 286.221 79.5098C286.104 79.7549 286.093 80.6595 286.233 80.8812C286.245 80.9046 286.256 80.9104 286.262 80.9104C286.35 80.9104 286.501 80.7529 286.548 80.712C286.601 80.6361 286.881 80.321 286.957 80.2451C287.067 80.1459 287.622 79.9066 288.275 79.6265C288.486 79.539 288.655 79.4631 288.731 79.4281C293.394 77.1345 296.142 74.3274 298.541 71.6487L298.383 71.4911C294.38 75.944 289.618 78.4068 287.429 79.1655H287.435Z" fill="#0942DB"/>
<path d="M4.06187 66.1278L4.14357 66.0986L3.9218 65.1532H0.356L0.134232 66.0986L0.2101 66.1278C0.507736 65.8127 0.916257 65.3049 1.16721 65.2991L1.80333 65.2816V67.6277C1.80333 67.9953 1.75664 68.1529 1.56989 68.433V68.4447H2.70791V68.433C2.51532 68.1529 2.47447 68.0012 2.47447 67.6277V65.2816L3.1106 65.2991C3.36738 65.3108 3.75839 65.8127 4.06187 66.1278Z" fill="#0942DB"/>
<path d="M9.43682 66.799C9.43682 65.8477 8.32798 65.0832 7.23081 65.0832C6.13364 65.0832 5.03647 65.8477 5.03647 66.799C5.03647 67.7502 6.13364 68.5031 7.23081 68.5031C8.32798 68.5031 9.43682 67.7502 9.43682 66.799ZM7.23081 68.363C6.28537 68.363 5.78931 67.686 5.78931 66.799C5.78931 65.9119 6.28537 65.2232 7.23081 65.2232C8.17624 65.2232 8.68397 65.9119 8.68397 66.799C8.68397 67.686 8.18208 68.363 7.23081 68.363Z" fill="#0942DB"/>
<path d="M14.7709 66.799C14.7709 65.8477 13.6621 65.0832 12.5649 65.0832C11.4678 65.0832 10.3706 65.8477 10.3706 66.799C10.3706 67.7502 11.4678 68.5031 12.5649 68.5031C13.6621 68.5031 14.7709 67.7502 14.7709 66.799ZM11.1234 66.799C11.1234 65.9119 11.6195 65.2232 12.5649 65.2232C13.5104 65.2232 14.0181 65.9119 14.0181 66.799C14.0181 67.686 13.5162 68.363 12.5649 68.363C11.6137 68.363 11.1234 67.686 11.1234 66.799Z" fill="#0942DB"/>
<path d="M15.8506 68.4272V68.4389H18.6869L18.9495 67.5226L18.8737 67.4993C18.5527 67.8786 18.1442 68.2871 17.6714 68.2988L16.7552 68.328V65.9644C16.7552 65.5909 16.796 65.4392 16.9886 65.159V65.1474H15.8506V65.159C16.0374 65.4392 16.084 65.5909 16.084 65.9644V67.6277C16.084 67.9953 16.0374 68.1529 15.8506 68.433V68.4272Z" fill="#0942DB"/>
<path d="M23.8459 65.2933C24.0969 65.2933 24.4704 65.7543 24.768 65.9936L24.8497 65.9702L24.6221 65.1474H21.7508V65.159C21.9376 65.4392 21.9842 65.5909 21.9842 65.9644V67.6277C21.9842 67.9953 21.9376 68.1529 21.7508 68.433V68.4447H22.8888V68.433C22.6962 68.1529 22.6554 68.0012 22.6554 67.6277V66.8106H23.274C23.56 66.8106 23.8226 67.1083 23.9977 67.2658H24.0502V66.2037H23.9977C23.8168 66.3729 23.5541 66.6764 23.274 66.6764H22.6554V65.2699L23.8459 65.2991V65.2933Z" fill="#0942DB"/>
<path d="M25.7018 66.799C25.7018 67.7502 26.799 68.5031 27.8961 68.5031C28.9933 68.5031 30.1021 67.7502 30.1021 66.799C30.1021 65.8477 28.9933 65.0832 27.8961 65.0832C26.799 65.0832 25.7018 65.8477 25.7018 66.799ZM29.3493 66.799C29.3493 67.6919 28.8474 68.363 27.8961 68.363C26.9449 68.363 26.4546 67.686 26.4546 66.799C26.4546 65.9119 26.9507 65.2232 27.8961 65.2232C28.8416 65.2232 29.3493 65.9119 29.3493 66.799Z" fill="#0942DB"/>
<path d="M33.9947 67.8144L33.3119 66.7873C33.8839 66.6414 34.1465 66.3262 34.1465 65.9527C34.1465 65.4742 33.7263 65.1532 32.67 65.1532H31.1818V65.1649C31.3685 65.445 31.4152 65.5967 31.4152 65.9702V67.6335C31.4152 68.0012 31.3685 68.1587 31.1818 68.4389V68.4506H32.3198V68.4389C32.1272 68.1587 32.0864 68.007 32.0864 67.6335V66.8807H32.6058L33.6446 68.4447H34.6717V68.4155C34.3683 68.2988 34.2457 68.1996 33.9947 67.8203V67.8144ZM32.5416 66.7348H32.0864V65.2933C32.314 65.2933 32.4657 65.2933 32.5416 65.2933C33.2477 65.2933 33.452 65.5559 33.452 65.9586C33.452 66.3613 33.2711 66.7406 32.5416 66.7406V66.7348Z" fill="#0942DB"/>
<path d="M1.75664 74.6484C1.21389 74.6484 0.764515 74.3683 0.33265 73.7321L0.250946 73.7555L0.367666 74.6134C0.752843 74.7243 1.17887 74.7884 1.56988 74.7884C2.3986 74.7884 3.09892 74.5083 3.09892 73.8313C3.09892 73.2186 2.49781 72.9793 1.92588 72.7634C1.40648 72.5649 0.910415 72.384 0.910415 71.9755C0.910415 71.6895 1.14386 71.5086 1.5407 71.5086C1.93755 71.5086 2.35191 71.6954 2.73125 72.3082L2.81295 72.2848L2.69623 71.4969C2.42194 71.4211 2.08929 71.3686 1.74496 71.3686C1.04464 71.3686 0.396846 71.6078 0.396846 72.2264C0.396846 72.8042 1.01546 73.026 1.6049 73.2536C2.08929 73.4403 2.53283 73.6388 2.53283 74.0648C2.53283 74.3741 2.28771 74.6484 1.75664 74.6484Z" fill="#0942DB"/>
<path d="M5.15903 74.7126C4.96644 74.4325 4.92559 74.2807 4.92559 73.9072V73.3936H5.31077C6.44879 73.3936 7.0499 72.9443 7.0499 72.3373C7.0499 71.8529 6.67056 71.4327 5.39831 71.4327H4.02101C4.20776 71.7187 4.25445 71.8704 4.25445 72.244V73.9072C4.25445 74.2749 4.20776 74.4325 4.02101 74.7126V74.7243H5.15903V74.7126ZM4.92559 71.5845C5.08316 71.5786 5.18821 71.5786 5.2991 71.5786C5.88853 71.5786 6.36125 71.7479 6.36125 72.3665C6.36125 72.8451 6.05778 73.2653 5.28743 73.2653H4.92559V71.5903V71.5845Z" fill="#0942DB"/>
<path d="M10.9542 73.8022L10.8783 73.7788C10.5573 74.1582 10.1488 74.5667 9.6761 74.5784L8.75985 74.6075V72.244C8.75985 71.8704 8.8007 71.7187 8.99329 71.4386L7.85527 71.4327C8.04202 71.7187 8.08871 71.8704 8.08871 72.244V73.9072C8.08871 74.2749 8.04202 74.4325 7.85527 74.7126V74.7243H10.6916L10.9542 73.808V73.8022Z" fill="#0942DB"/>
<path d="M11.7596 71.4444C11.9521 71.7245 11.993 71.8763 11.993 72.2498V73.913C11.993 74.2866 11.9521 74.4383 11.7596 74.7184V74.7301H12.8976V74.7184C12.705 74.4383 12.6641 74.2866 12.6641 73.913V72.2498C12.6641 71.8763 12.705 71.7245 12.8976 71.4444L11.7596 71.4386V71.4444Z" fill="#0942DB"/>
<path d="M13.9656 71.4327L13.7438 72.3782L13.8197 72.4074C14.1173 72.0922 14.5258 71.5845 14.7768 71.5786L15.4129 71.5611V73.9072C15.4129 74.2749 15.3662 74.4325 15.1795 74.7126V74.7243H16.3175V74.7126C16.1249 74.4325 16.084 74.2807 16.084 73.9072V71.5611L16.7202 71.5786C16.977 71.5845 17.368 72.0922 17.6714 72.4074L17.7531 72.3782L17.5314 71.4327H13.9656Z" fill="#0942DB"/>
<path d="M20.7528 71.5611L21.389 71.5786C21.6457 71.5845 22.0368 72.0922 22.3402 72.4074L22.4219 72.3782L22.2002 71.4327H18.6344L18.4126 72.3782L18.4885 72.4074C18.7861 72.0922 19.1946 71.5845 19.4456 71.5786L20.0817 71.5611V73.9072C20.0817 74.2749 20.035 74.4325 19.8483 74.7126V74.7243H20.9863V74.7126C20.7937 74.4325 20.7528 74.2807 20.7528 73.9072V71.5611Z" fill="#0942DB"/>
<path d="M24.4062 71.4444L23.2682 71.4386C23.4607 71.7245 23.5016 71.8763 23.5016 72.2498V73.913C23.5016 74.2866 23.4607 74.4383 23.2682 74.7184V74.7301H24.4062V74.7184C24.2136 74.4383 24.1727 74.2866 24.1727 73.913V72.2498C24.1727 71.8763 24.2136 71.7245 24.4062 71.4444Z" fill="#0942DB"/>
<path d="M25.3166 74.7126V74.7242H26.2795V74.7126C25.9527 74.3974 25.8769 74.234 25.8769 73.8313L25.8535 71.9405L28.5322 74.7359L28.7715 74.7242V72.3315C28.7715 71.9288 28.8474 71.7596 29.1275 71.4444L28.2229 71.4386C28.5031 71.7596 28.5731 71.9288 28.5789 72.3315L28.5964 73.9306L26.1862 71.4386H25.2174C25.5442 71.6428 25.6493 71.7771 25.6726 72.0689V73.8255C25.6726 74.2282 25.6084 74.3974 25.3166 74.7067V74.7126Z" fill="#0942DB"/>
<path d="M33.8547 74.3099V74.0414C33.8547 73.6679 33.8955 73.5162 34.0881 73.2361L32.9443 73.2302C33.1544 73.5045 33.2127 73.6621 33.2127 73.9831C33.2127 74.4208 32.775 74.6484 32.1389 74.6484C31.0592 74.6484 30.6215 73.9597 30.6215 73.0843C30.6215 72.2089 31.1176 71.5086 32.1856 71.5086C32.7984 71.5086 33.2244 71.7537 33.773 72.3607L33.8547 72.3373L33.7321 71.5845C33.4111 71.5028 32.9092 71.3686 32.2381 71.3686C30.7674 71.3686 29.8687 72.1214 29.8687 73.0785C29.8687 74.0356 30.7558 74.7884 32.1389 74.7884C33.0785 74.7884 33.5804 74.4616 33.8547 74.3099Z" fill="#0942DB"/>
<path d="M2.9822 77.724C3.10475 77.8699 3.23314 78.1792 2.9822 78.6986L2.18266 80.3385L1.27808 78.471C1.12051 78.15 1.15553 77.8582 1.26057 77.724L0.0466838 77.7181H0.0408478C0.245108 77.8874 0.379336 78.0566 0.566089 78.4476L1.83834 81.0388H2.02509L3.274 78.4943C3.43157 78.1558 3.55413 77.9516 3.82258 77.724L2.9822 77.7181V77.724Z" fill="#0942DB"/>
<path d="M6.86898 80.8521L5.80099 80.8812V79.4106H6.30289C6.57134 79.4106 6.82229 79.7082 6.99153 79.8658H7.07908V78.8036H6.99153C6.82229 78.9729 6.57134 79.2763 6.30872 79.2763H5.80099V77.8348L6.81645 77.864C7.06157 77.8757 7.44091 78.3017 7.73854 78.541L7.82025 78.5118L7.59264 77.7123H4.89641C5.04814 77.9924 5.12401 78.1675 5.12401 78.471V80.2393C5.12401 80.5428 5.04814 80.7178 4.89641 80.9863V80.998H7.88444L8.14123 80.0817L8.05952 80.0584C7.73854 80.4027 7.33586 80.8345 6.86898 80.8462V80.8521Z" fill="#0942DB"/>
<path d="M12.1389 80.3793L11.4561 79.3522C12.028 79.2063 12.2906 78.8912 12.2906 78.5177C12.2906 78.0391 11.8704 77.7181 10.8141 77.7181H9.32594C9.5127 78.0041 9.55938 78.1558 9.55938 78.5293V80.1926C9.55938 80.5603 9.5127 80.7178 9.32594 80.998V81.0096H10.464V80.998C10.2714 80.7178 10.2305 80.5661 10.2305 80.1926V79.4456H10.7499L11.7887 81.0096H12.8159V80.9805C12.5124 80.8637 12.3898 80.7645 12.1389 80.3852V80.3793ZM10.6857 79.2997H10.2305V77.8582C10.4581 77.8582 10.6099 77.8582 10.6857 77.8582C11.3919 77.8582 11.5962 78.1208 11.5962 78.5235C11.5962 78.9262 11.4152 79.3055 10.6857 79.3055V79.2997Z" fill="#0942DB"/>
<path d="M13.9189 77.7181L13.6971 78.6636L13.773 78.6927C14.0706 78.3776 14.4791 77.8699 14.7301 77.864L15.3662 77.8465V80.1926C15.3662 80.5603 15.3195 80.7178 15.1328 80.998V81.0096H16.2708V80.998C16.0782 80.7178 16.0374 80.5661 16.0374 80.1926V77.8465L16.6735 77.864C16.9303 77.8699 17.3213 78.3776 17.6247 78.6927L17.7065 78.6636L17.4847 77.7181H13.9189Z" fill="#0942DB"/>
<path d="M18.862 77.724C19.0546 78.0041 19.0954 78.1558 19.0954 78.5293V80.1926C19.0954 80.5661 19.0546 80.7178 18.862 80.998V81.0096H20V80.998C19.8074 80.7178 19.7666 80.5661 19.7666 80.1926V78.5293C19.7666 78.1558 19.8074 78.0041 20 77.724L18.862 77.7181V77.724Z" fill="#0942DB"/>
<path d="M23.4141 80.9279C22.3928 80.9279 21.9492 80.2568 21.9492 79.358C21.9492 78.4593 22.3753 77.7882 23.4491 77.7882C24.1085 77.7882 24.4821 78.0449 25.0423 78.6694L25.124 78.646L24.9956 77.8582C24.6863 77.7648 24.1436 77.6423 23.5249 77.6423C22.1652 77.6423 21.1964 78.3951 21.1964 79.3522C21.1964 80.3093 22.0659 81.0622 23.4141 81.0622C24.2136 81.0622 24.9198 80.7995 25.019 80.7412L25.1415 79.8716L25.0657 79.8541C24.663 80.4844 24.2311 80.9279 23.4141 80.9279Z" fill="#0942DB"/>
<path d="M29.4427 80.2685L28.1821 77.6773H27.9953L26.7523 80.2159C26.583 80.5603 26.478 80.7645 26.1978 80.9863V80.998H27.0499V80.9863C26.9273 80.8404 26.7814 80.5369 27.0382 80.0058L27.1491 79.7782H28.5147L28.7423 80.2393C28.8999 80.5719 28.9058 80.8521 28.8065 80.9863V80.998H29.9737V80.9863C29.7695 80.8229 29.6294 80.6536 29.4427 80.2626V80.2685ZM27.2191 79.644L27.8378 78.3834L28.4505 79.644H27.2191Z" fill="#0942DB"/>
<path d="M32.8567 80.8637L31.9405 80.8929V78.5293C31.9405 78.1558 31.9813 78.0041 32.1739 77.724L31.0359 77.7181C31.2226 78.0041 31.2693 78.1558 31.2693 78.5293V80.1926C31.2693 80.5603 31.2226 80.7178 31.0359 80.998V81.0096H33.8722L34.1348 80.0934L34.0589 80.07C33.738 80.4494 33.3294 80.8579 32.8567 80.8696V80.8637Z" fill="#0942DB"/>
<path d="M37.0528 77.724C37.2454 78.0041 37.2863 78.1558 37.2863 78.5293V80.1926C37.2863 80.5661 37.2454 80.7178 37.0528 80.998V81.0096H38.1908V80.998C37.9983 80.7178 37.9574 80.5661 37.9574 80.1926V78.5293C37.9574 78.1558 37.9983 78.0041 38.1908 77.724L37.0528 77.7181V77.724Z" fill="#0942DB"/>
<path d="M41.7917 80.2451L40.3326 77.7181H39.2063C39.5214 77.9224 39.6265 78.0566 39.6498 78.3484V80.105C39.6498 80.5077 39.5798 80.677 39.2822 80.9863L39.3172 80.998H40.2685V80.9863C39.93 80.6711 39.8541 80.5077 39.8483 80.105L39.8308 78.0975L41.4648 80.8987H41.6166L43.1923 78.1675V80.1868C43.1923 80.5544 43.1456 80.712 42.9589 80.9921V81.0038H44.0969V80.9921C43.9101 80.712 43.8634 80.5603 43.8634 80.1868V78.471C43.8634 78.0916 43.951 77.9457 44.307 77.724L43.2448 77.7181L41.7917 80.2451Z" fill="#0942DB"/>
<path d="M48.2871 80.2685L47.0266 77.6773H46.8398L45.5967 80.2159C45.4275 80.5603 45.3224 80.7645 45.0423 80.9863V80.998H45.8944V80.9863C45.7718 80.8404 45.6259 80.5369 45.8827 80.0058L45.9936 79.7782H47.3592L47.5868 80.2393C47.7444 80.5719 47.7502 80.8521 47.651 80.9863V80.998H48.8182V80.9863C48.614 80.8229 48.4739 80.6536 48.2871 80.2626V80.2685ZM46.0636 79.644L46.6822 78.3834L47.295 79.644H46.0636Z" fill="#0942DB"/>
<path d="M52.6933 79.5215C52.9034 79.7841 52.9618 79.9416 52.9618 80.2685C52.9618 80.7062 52.5241 80.9338 51.8879 80.9338C50.8083 80.9338 50.3706 80.2451 50.3706 79.3697C50.3706 78.4943 50.8666 77.794 51.9346 77.794C52.5474 77.794 52.9734 78.0391 53.522 78.6461L53.6037 78.6227L53.4812 77.8699C53.1602 77.7882 52.6583 77.6539 51.9872 77.6539C50.5165 77.6539 49.6177 78.4068 49.6177 79.3639C49.6177 80.321 50.5048 81.0738 51.8879 81.0738C52.8275 81.0738 53.3294 80.747 53.6037 80.5953V80.3268C53.6037 79.9533 53.6446 79.8016 53.8372 79.5215L52.6933 79.5156V79.5215Z" fill="#0942DB"/>
<path d="M56.9303 80.8521L55.8623 80.8812V79.4106H56.3642C56.6326 79.4106 56.8836 79.7082 57.0528 79.8658H57.1404V78.8036H57.0528C56.8836 78.9729 56.6326 79.2763 56.37 79.2763H55.8623V77.8348L56.8777 77.864C57.1228 77.8757 57.5022 78.3017 57.7998 78.541L57.8815 78.5118L57.6539 77.7123H54.9577C55.1094 77.9924 55.1853 78.1675 55.1853 78.471V80.2393C55.1853 80.5428 55.1094 80.7178 54.9577 80.9863V80.998H57.9457L58.2025 80.0817L58.1208 80.0584C57.7998 80.4027 57.3971 80.8345 56.9303 80.8462V80.8521Z" fill="#0942DB"/>
<path d="M60.8754 79.0429C60.356 78.8445 59.8599 78.6636 59.8599 78.255C59.8599 77.9691 60.0934 77.7882 60.4902 77.7882C60.8871 77.7882 61.3014 77.9749 61.6808 78.5877L61.7625 78.5643L61.6458 77.7765C61.3715 77.7006 61.0388 77.6481 60.6945 77.6481C59.9942 77.6481 59.3464 77.8874 59.3464 78.506C59.3464 79.0838 59.965 79.3055 60.5544 79.5331C61.0388 79.7199 61.4823 79.9183 61.4823 80.3443C61.4823 80.6536 61.2372 80.9279 60.7062 80.9279C60.1751 80.9279 59.714 80.6478 59.2822 80.0117L59.2005 80.035L59.3172 80.8929C59.7024 81.0038 60.1284 81.068 60.5194 81.068C61.3481 81.068 62.0484 80.7879 62.0484 80.1109C62.0484 79.4981 61.4473 79.2588 60.8754 79.0429Z" fill="#0942DB"/>
<path d="M63.595 80.4085C63.379 80.4085 63.204 80.5486 63.204 80.7178C63.204 80.8812 63.379 81.0213 63.595 81.0213C63.8109 81.0213 63.9918 80.8754 63.9918 80.7178C63.9918 80.5486 63.8109 80.4085 63.595 80.4085Z" fill="#0942DB"/>
</g>
<defs>
<clipPath id="clip0_3_55">
<rect width="300" height="81.424" fill="white"/>
</clipPath>
</defs>
</svg>
