<?xml version="1.0" encoding="UTF-8"?>
<svg id="_レイヤー_1" data-name="レイヤー 1" xmlns="http://www.w3.org/2000/svg" viewBox="0 0 123.11 573.91">
  <defs>
    <style>
      .cls-1, .cls-2 {
        stroke: #0942db;
        stroke-miterlimit: 10;
      }

      .cls-1, .cls-3 {
        fill: #0942db;
      }

      .cls-2, .cls-4 {
        fill: #fff;
      }

      .cls-4, .cls-3 {
        stroke-width: 0px;
      }
    </style>
  </defs>
  <rect class="cls-4" x="25.4" y="49.88" width="71.92" height="335.92"/>
  <g>
    <polygon class="cls-3" points="97.33 385.8 94.83 385.8 94.83 384.8 96.33 384.8 96.33 383.3 97.33 383.3 97.33 385.8"/>
    <path class="cls-3" d="M90.89,385.8h-3.94v-1h3.94v1ZM83.02,385.8h-3.94v-1h3.94v1ZM75.14,385.8h-3.94v-1h3.94v1ZM67.27,385.8h-3.94v-1h3.94v1ZM59.4,385.8h-3.94v-1h3.94v1ZM51.52,385.8h-3.94v-1h3.94v1ZM43.65,385.8h-3.94v-1h3.94v1ZM35.78,385.8h-3.94v-1h3.94v1Z"/>
    <polygon class="cls-3" points="27.9 385.8 25.4 385.8 25.4 383.3 26.4 383.3 26.4 384.8 27.9 384.8 27.9 385.8"/>
    <path class="cls-3" d="M26.4,379.31h-1v-3.99h1v3.99ZM26.4,371.33h-1v-3.99h1v3.99ZM26.4,363.36h-1v-3.99h1v3.99ZM26.4,355.39h-1v-3.99h1v3.99ZM26.4,347.41h-1v-3.99h1v3.99ZM26.4,339.44h-1v-3.99h1v3.99ZM26.4,331.47h-1v-3.99h1v3.99ZM26.4,323.49h-1v-3.99h1v3.99ZM26.4,315.52h-1v-3.99h1v3.99ZM26.4,307.54h-1v-3.99h1v3.99ZM26.4,299.57h-1v-3.99h1v3.99ZM26.4,291.6h-1v-3.99h1v3.99ZM26.4,283.62h-1v-3.99h1v3.99ZM26.4,275.65h-1v-3.99h1v3.99ZM26.4,267.67h-1v-3.99h1v3.99ZM26.4,259.7h-1v-3.99h1v3.99ZM26.4,251.73h-1v-3.99h1v3.99ZM26.4,243.75h-1v-3.99h1v3.99ZM26.4,235.78h-1v-3.99h1v3.99ZM26.4,227.8h-1v-3.99h1v3.99ZM26.4,219.83h-1v-3.99h1v3.99ZM26.4,211.86h-1v-3.99h1v3.99ZM26.4,203.88h-1v-3.99h1v3.99ZM26.4,195.91h-1v-3.99h1v3.99ZM26.4,187.94h-1v-3.99h1v3.99ZM26.4,179.96h-1v-3.99h1v3.99ZM26.4,171.99h-1v-3.99h1v3.99ZM26.4,164.01h-1v-3.99h1v3.99ZM26.4,156.04h-1v-3.99h1v3.99ZM26.4,148.07h-1v-3.99h1v3.99ZM26.4,140.09h-1v-3.99h1v3.99ZM26.4,132.12h-1v-3.99h1v3.99ZM26.4,124.14h-1v-3.99h1v3.99ZM26.4,116.17h-1v-3.99h1v3.99ZM26.4,108.2h-1v-3.99h1v3.99ZM26.4,100.22h-1v-3.99h1v3.99ZM26.4,92.25h-1v-3.99h1v3.99ZM26.4,84.28h-1v-3.99h1v3.99ZM26.4,76.3h-1v-3.99h1v3.99ZM26.4,68.33h-1v-3.99h1v3.99ZM26.4,60.35h-1v-3.99h1v3.99Z"/>
    <polygon class="cls-3" points="26.4 52.38 25.4 52.38 25.4 49.88 27.9 49.88 27.9 50.88 26.4 50.88 26.4 52.38"/>
    <path class="cls-3" d="M90.89,50.88h-3.94v-1h3.94v1ZM83.02,50.88h-3.94v-1h3.94v1ZM75.14,50.88h-3.94v-1h3.94v1ZM67.27,50.88h-3.94v-1h3.94v1ZM59.4,50.88h-3.94v-1h3.94v1ZM51.52,50.88h-3.94v-1h3.94v1ZM43.65,50.88h-3.94v-1h3.94v1ZM35.78,50.88h-3.94v-1h3.94v1Z"/>
    <polygon class="cls-3" points="97.33 52.38 96.33 52.38 96.33 50.88 94.83 50.88 94.83 49.88 97.33 49.88 97.33 52.38"/>
    <path class="cls-3" d="M97.33,379.31h-1v-3.99h1v3.99ZM97.33,371.33h-1v-3.99h1v3.99ZM97.33,363.36h-1v-3.99h1v3.99ZM97.33,355.39h-1v-3.99h1v3.99ZM97.33,347.41h-1v-3.99h1v3.99ZM97.33,339.44h-1v-3.99h1v3.99ZM97.33,331.47h-1v-3.99h1v3.99ZM97.33,323.49h-1v-3.99h1v3.99ZM97.33,315.52h-1v-3.99h1v3.99ZM97.33,307.54h-1v-3.99h1v3.99ZM97.33,299.57h-1v-3.99h1v3.99ZM97.33,291.6h-1v-3.99h1v3.99ZM97.33,283.62h-1v-3.99h1v3.99ZM97.33,275.65h-1v-3.99h1v3.99ZM97.33,267.67h-1v-3.99h1v3.99ZM97.33,259.7h-1v-3.99h1v3.99ZM97.33,251.73h-1v-3.99h1v3.99ZM97.33,243.75h-1v-3.99h1v3.99ZM97.33,235.78h-1v-3.99h1v3.99ZM97.33,227.81h-1v-3.99h1v3.99ZM97.33,219.83h-1v-3.99h1v3.99ZM97.33,211.86h-1v-3.99h1v3.99ZM97.33,203.88h-1v-3.99h1v3.99ZM97.33,195.91h-1v-3.99h1v3.99ZM97.33,187.94h-1v-3.99h1v3.99ZM97.33,179.96h-1v-3.99h1v3.99ZM97.33,171.99h-1v-3.99h1v3.99ZM97.33,164.01h-1v-3.99h1v3.99ZM97.33,156.04h-1v-3.99h1v3.99ZM97.33,148.07h-1v-3.99h1v3.99ZM97.33,140.09h-1v-3.99h1v3.99ZM97.33,132.12h-1v-3.99h1v3.99ZM97.33,124.15h-1v-3.99h1v3.99ZM97.33,116.17h-1v-3.99h1v3.99ZM97.33,108.2h-1v-3.99h1v3.99ZM97.33,100.22h-1v-3.99h1v3.99ZM97.33,92.25h-1v-3.99h1v3.99ZM97.33,84.28h-1v-3.99h1v3.99ZM97.33,76.3h-1v-3.99h1v3.99ZM97.33,68.33h-1v-3.99h1v3.99ZM97.33,60.35h-1v-3.99h1v3.99Z"/>
  </g>
  <g>
    <path class="cls-3" d="M53.35,52.23c.6.27,1.43.81,1.43,1.42s-.53.81-1.2.81c-.75,0-1.88-.14-2.56-.27-6.69,13.4-17.67,22.73-24.43,27.27l-1.13-1.56c13.83-10.76,21.58-25.24,22.4-29.91l5.49,2.23ZM82.07,72.87c2.56,2.23,4.89,5.14,4.89,5.48,0,.47-.3.47-2.86.74,0,2.23-.23,24.76-3.38,30.38-1.28,2.3-3.53,4.2-10.3,4.53-.38-2.57-2.1-3.31-11.43-5.01l.15-2.16c7.52,1.42,11.35,2.1,14.13,2.1,4.13,0,4.74-1.83,5.56-6.43,1.28-7.24,1.58-19.89,1.58-23.95h-22.85c-1.35,5.48-5.94,25.17-30.82,35.38l-.9-1.56c22.48-11.64,26.39-28.48,27.67-33.83h-18.87l-.45-2.3h45.26l2.63-3.38ZM70.41,50.47c1.5.07,2.63.14,2.63,1.08,0,1.29-2.93,1.76-4.36,1.96,2.48,4.06,5.26,7.98,11.73,12.25,5.26,3.52,10.83,6.16,17.14,7.44l-.15,1.49c-1.58,0-2.78.61-3.53,2.71-19.02-7.51-25.03-18.67-29.7-27.33l6.24.41Z"/>
    <path class="cls-3" d="M62.97,125.71l2.63-3.38c1.43,1.08,4.89,4.74,4.89,5.28,0,.68-1.13.74-2.63.74-1.8,4.06-2.03,4.53-3.01,6.16,1.35,1.35,1.73,1.76,2.86,2.98l-.53,1.08h-17.59v5.62h10l2.25-3.38c2.18,2.1,2.78,2.77,4.36,4.67l-.53,1.01h-16.09v6.16h13.83l2.78-3.86c1.5,1.15,1.8,1.56,4.74,5.01l-.53,1.15H28.91l-2.63.2-.6-2.71,3.23.2h17.07v-6.16h-12.48l-2.71.27-.9-2.84,3.61.27h12.48v-5.62h-13.83l-2.25.2-.83-2.71,3.08.2h13.83v-5.62l5.11.14c.75,0,1.58.34,1.58.81,0,1.01-1.8,1.35-3.08,1.62v3.04h10.6l2.56-3.65.75.61c.23-2.1.23-2.37.45-5.21h-30.3c-1.2,5.82-4.44,6.9-6.01,6.9-2.03,0-2.18-1.29-2.18-1.76,0-.88.08-.95,2.93-2.57,2.86-1.69,3.61-3.86,3.76-8.05l1.65.07c.08,1.15.08,1.56.08,3.11h12.1v-7.58l5.34.27c1.13.07,1.28.61,1.28.88,0,.95-1.05,1.08-3.01,1.42v5.01h13.38ZM61.17,160.82l2.33-3.04c3.61,2.91,4.89,4.74,4.89,4.94,0,.54-2.11.68-2.71.74v17.39h-3.61v-2.71h-28.49v3.52h-3.61v-23.68l4.74,2.84h26.46ZM33.58,175.84h28.49v-12.72h-28.49v12.72ZM79.51,123.75c.9.07,1.43.41,1.43.88,0,1.08-2.63,1.49-3.23,1.56v40.87h-3.61v-43.57l5.41.27ZM95.22,119.28c.9.07,1.8.14,1.8,1.01,0,1.08-2.18,1.29-3.08,1.42v51.28c0,3.72,0,7.98-9.4,8.66-.75-2.71-4.21-3.04-9.55-3.52v-2.3c5.11.74,9.1.81,11.13.81,3.68,0,4.21-.75,4.21-4.13v-53.52l4.89.27Z"/>
    <path class="cls-3" d="M57.03,221.92l2.71-3.99c1.2,1.08,2.71,2.5,4.66,5.41l-.45.88h-7.67c-1.2,4.53-2.25,7.17-4.29,10.35,2.26.95,7.52,3.32,7.52,6.56,0,.54-.15,2.1-1.43,2.1-1.05,0-1.73-.54-3.98-2.37-.23-.2-1.65-1.35-4.51-3.11-6.99,7.78-16.84,10.35-22.78,11.71l-.45-1.89c9.4-2.98,14.81-5.14,20.07-11.43-4.89-2.3-10.22-3.31-11.58-3.58-1.43,2.91-1.43,2.98-2.48,4.6l-3.31-1.42c1.28-1.89,2.48-3.72,5.94-11.5h-6.84l-1.73.34-.38-3.11,3.08.47h6.84c.75-1.83,2.41-5.95,2.41-7.44l4.51,1.02v-14.07c-4.96,8.19-13.08,13.87-16.24,16.04l-.9-1.49c2.71-2.17,7.14-5.82,13.08-14.61h-9.4l-2.41.2-.75-2.91,3.98.41h12.63v-13.94l5.79.61c.6.07.75.41.75.68,0,.81-.98,1.08-3.01,1.62v11.03h3.08c.68-1.15,5.86-10.49,6.09-12.52l4.51,2.37c.45.27,1.05.88,1.05,1.29,0,.34-.23.61-.83.61-.15,0-1.05-.07-1.95-.41-1.28,1.83-3.38,4.67-4.51,6.09-.75.95-1.43,1.76-2.18,2.57h6.09l2.33-3.79c1.58,1.35,1.88,1.69,4.36,4.74l-.53,1.35h-17.52v1.62c7.22,2.1,12.03,6.02,12.03,9.34,0,1.62-1.13,2.17-1.58,2.17-.68,0-.83-.2-2.25-2.3-2.93-4.33-6.09-6.09-8.2-7.31v12.79h-3.53v-.27c-.6.13-.83.13-1.43.13-.53,1.56-1.13,2.98-1.73,4.4h17.29ZM29.44,186.53c5.19,2.03,8.27,5.82,8.27,8.59,0,1.15-.6,2.71-1.73,2.71-.98,0-1.13-.27-2.26-3.25-.98-2.57-2.93-5.34-5.19-7.1l.9-.95ZM38.76,224.22c-.98,2.17-2.78,5.95-3.08,6.5,8.87,1.42,10.75,1.96,12.71,2.57,2.56-4.13,3.23-6.77,3.83-9.07h-13.46ZM97.18,246.27c-1.5.13-2.63,1.22-3.23,2.44-4.59-2.64-9.55-5.95-15.11-13.33-4.74,4.74-13.31,10.69-24.66,13.67l-.83-1.89c14.66-5.21,20.45-11.3,23.53-14.75-5.64-9.27-7.44-19.62-8.42-25.51-.83,1.62-2.93,5.62-6.24,9.74l-1.35-1.15c5.94-8.66,11.05-25.78,10.75-30.04l5.94,1.76c.83.27,1.28.81,1.28,1.35,0,.88-1.8.88-3.68.88-1.43,5.07-2.03,6.83-3.08,9.61h17.74l2.63-4.26c1.13.88,4.13,3.72,5.26,5.14l-.6,1.42h-6.01c-1.8,16.37-4.66,24.49-9.7,31.05,2.26,2.77,6.99,8.39,16.01,12.31l-.23,1.56ZM71.09,201.35c-.53,1.15-.68,1.49-1.2,2.57,2.78,14.61,6.17,20.7,9.25,25.44,4.06-5.95,6.39-12.52,7.97-28.01h-16.01Z"/>
    <path class="cls-3" d="M37.86,274.82c3.76,3.65,4.74,5.28,4.74,5.68,0,.54-.3.54-3.01.88v22.87c3.16,7.31,14.28,7.51,27.14,7.51,8.27,0,22.63-.07,30.37-.95l-.08,1.56c-1.05.2-2.03.54-2.56,2.64-7.14.47-15.34.54-22.03.54-18.19,0-30.37-.2-34.58-10.83-2.18,3.38-6.62,8.66-7.44,9.68.08.27.15.74.15,1.22,0,.34-.08.88-.6.88s-1.05-.74-1.2-.95l-2.63-3.65c2.63-1.56,7.52-5.21,9.92-7.78v-23.41h-6.47l-2.93.2-.83-2.84,3.53.34h5.94l2.56-3.59ZM29.74,253.98c4.29,1.76,11.88,5.01,11.88,10.96,0,1.83-.83,2.44-1.58,2.44-.9,0-1.05-.34-2.86-3.52-2.71-4.67-6.62-7.24-8.42-8.39l.98-1.49ZM85.22,261.09l2.48-3.38c2.56,2.23,4.81,5.07,4.81,5.41s-.23.41-2.93.75v16.85h-3.61v-2.03h-34.21v7.65h36.24l2.63-3.32c1.2.81,4.66,4.53,4.66,5.14s-2.33.75-3.01.75v18.47h-3.53v-3.25h-36.99v3.59h-3.61v-49.53l4.29,2.91h9.55c1.13-2.23,3.08-5.95,3.08-8.05l5.49,1.08c.53.14,1.65.34,1.65,1.08,0,.95-1.5,1.01-3.38,1.08-3.08,3.38-3.46,3.79-4.51,4.8h20.9ZM51.77,276.38h34.21v-12.99h-34.21v12.99ZM51.77,301.82h36.99v-13.19h-36.99v13.19Z"/>
    <path class="cls-3" d="M56.13,331.86c2.63,1.96,5.26,4.87,5.26,5.34,0,.54-2.03.68-2.86.74-.23,10.69-.9,31.87-4.13,39.51-2.63,6.29-6.47,6.43-9.25,6.56-.38-1.69-.68-2.98-8.35-4.47l.15-2.17c3.68,1.01,7.67,1.76,10,1.76,3.76,0,4.74-3.45,5.86-10.42,1.73-11.03,1.8-29.3,1.8-30.11v-.88h-11.88c-.3,7.58-1.2,29.03-15.26,46.75l-1.35-1.01c12.33-18,12.78-37.75,13.01-45.74h-9.7l-2.71.34-.75-3.32,4.74.61h8.5c.08-3.38.08-6.9.08-11.91,0-.61-.08-1.35-.38-2.03l5.71.27c1.65.07,2.18.68,2.18,1.08,0,1.15-1.65,1.35-3.76,1.62,0,4.33-.15,7.17-.23,10.96h11.05l2.25-3.52ZM89.43,328.41l2.63-3.52c1.88,1.42,5.19,4.87,5.19,5.34,0,.54-.98.68-3.16.88v52.91h-3.53v-5.41h-21.2v5.41h-3.61v-58.86l4.66,3.25h19.02ZM69.36,376.31h21.2v-45.6h-21.2v45.6Z"/>
  </g>
  <path class="cls-2" d="M61.55,518.53c-28.43,0-51.55-23.13-51.55-51.55s23.13-51.55,51.55-51.55,51.55,23.13,51.55,51.55-23.13,51.55-51.55,51.55Z"/>
  <path class="cls-3" d="M61.78,524.03h-.22c-1.35,0-2.72-.05-4.07-.14l.07-1c1.32.09,2.67.14,4,.14h.22v1ZM65.85,523.87l-.07-1c1.32-.1,2.66-.25,3.97-.44l.14.99c-1.33.2-2.7.35-4.04.45ZM53.44,523.46c-1.34-.19-2.69-.43-4.01-.72l.21-.98c1.29.28,2.62.52,3.93.71l-.14.99ZM73.89,522.69l-.22-.98c1.3-.29,2.6-.62,3.87-1l.29.96c-1.29.38-2.62.73-3.94,1.02ZM45.49,521.73c-1.29-.38-2.6-.81-3.87-1.29l.35-.94c1.25.47,2.53.89,3.8,1.27l-.28.96ZM81.69,520.36l-.35-.94c1.24-.47,2.48-.99,3.68-1.55l.42.91c-1.22.57-2.49,1.1-3.75,1.57ZM37.86,518.88c-1.23-.56-2.46-1.18-3.64-1.83l.48-.88c1.16.64,2.37,1.24,3.58,1.8l-.42.91ZM89.06,516.95l-.48-.88c1.16-.64,2.31-1.33,3.43-2.06l.54.84c-1.13.74-2.31,1.44-3.49,2.09ZM30.73,514.97c-1.13-.73-2.25-1.51-3.34-2.33l.6-.8c1.07.8,2.17,1.57,3.28,2.29l-.54.84ZM95.88,512.52l-.6-.8c1.06-.8,2.1-1.65,3.1-2.52l.66.75c-1.02.89-2.08,1.75-3.16,2.57ZM24.22,510.09c-1.02-.88-2.02-1.81-2.98-2.77l.71-.71c.94.94,1.93,1.86,2.93,2.72l-.65.76ZM102,507.17l-.71-.71c.94-.94,1.85-1.93,2.72-2.93l.76.65c-.88,1.02-1.81,2.03-2.77,2.99ZM18.46,504.34c-.89-1.02-1.75-2.09-2.56-3.17l.8-.6c.8,1.06,1.64,2.11,2.51,3.11l-.76.66ZM107.32,501.01l-.8-.6c.79-1.06,1.55-2.16,2.28-3.29l.84.54c-.73,1.15-1.51,2.27-2.32,3.35ZM13.58,497.83c-.73-1.13-1.43-2.31-2.08-3.49l.88-.48c.64,1.16,1.33,2.32,2.04,3.43l-.84.54ZM111.71,494.16l-.88-.48c.64-1.17,1.24-2.38,1.79-3.58l.91.41c-.56,1.22-1.17,2.45-1.82,3.64ZM9.67,490.71c-.56-1.22-1.09-2.49-1.56-3.75l.94-.35c.47,1.24.98,2.48,1.54,3.69l-.91.42ZM115.08,486.74l-.94-.35c.46-1.25.88-2.53,1.25-3.8l.96.28c-.38,1.29-.81,2.6-1.28,3.87ZM6.82,483.1c-.38-1.3-.72-2.62-1.01-3.94l.98-.21c.28,1.3.62,2.6.99,3.87l-.96.28ZM117.35,478.93l-.98-.21c.28-1.29.51-2.62.7-3.94l.99.14c-.19,1.34-.43,2.69-.71,4.01ZM5.08,475.15c-.19-1.34-.34-2.7-.44-4.04l1-.07c.09,1.32.24,2.66.43,3.97l-.99.14ZM118.47,470.88l-1-.07c.09-1.26.13-2.55.13-3.83v-.17s1,0,1,0v.16c0,1.31-.04,2.62-.13,3.91ZM4.5,467.04v-.06c0-1.33.05-2.68.14-4.01l1,.07c-.09,1.31-.14,2.63-.14,3.94l-1,.06ZM117.45,462.82c-.1-1.32-.24-2.66-.44-3.97l.99-.14c.2,1.34.34,2.7.44,4.04l-1,.07ZM6.06,459.06l-.99-.14c.19-1.34.43-2.69.72-4l.98.21c-.28,1.3-.52,2.62-.7,3.93ZM116.3,454.91c-.29-1.3-.62-2.6-1-3.87l.96-.29c.38,1.29.73,2.62,1.02,3.94l-.98.21ZM7.74,451.25l-.96-.28c.38-1.3.81-2.6,1.28-3.87l.94.35c-.46,1.24-.89,2.52-1.26,3.8ZM114.02,447.25c-.47-1.24-.99-2.48-1.54-3.68l.91-.42c.57,1.23,1.09,2.49,1.57,3.75l-.94.35ZM10.54,443.76l-.91-.42c.56-1.23,1.18-2.46,1.83-3.64l.88.48c-.64,1.16-1.24,2.37-1.79,3.58ZM110.67,440c-.63-1.15-1.32-2.31-2.05-3.43l.84-.54c.74,1.14,1.44,2.32,2.09,3.49l-.88.48ZM14.37,436.74l-.84-.54c.73-1.13,1.51-2.26,2.32-3.34l.8.6c-.8,1.07-1.57,2.17-2.28,3.29ZM106.33,433.3c-.8-1.06-1.65-2.11-2.52-3.1l.75-.66c.89,1.02,1.75,2.08,2.56,3.16l-.8.6ZM19.17,430.34l-.76-.65c.88-1.02,1.81-2.02,2.77-2.98l.71.71c-.94.94-1.86,1.93-2.72,2.93ZM101.08,427.27c-.94-.94-1.93-1.85-2.93-2.72l.65-.76c1.02.88,2.02,1.81,2.98,2.77l-.71.71ZM24.81,424.68l-.66-.75c1.02-.89,2.08-1.75,3.16-2.56l.6.8c-1.06.8-2.11,1.64-3.11,2.51ZM95.03,422.05c-1.06-.79-2.16-1.56-3.29-2.28l.54-.84c1.14.73,2.27,1.51,3.35,2.32l-.6.8ZM31.2,419.88l-.54-.84c1.13-.73,2.31-1.43,3.49-2.09l.48.88c-1.17.64-2.32,1.33-3.43,2.05ZM88.3,417.73c-1.17-.64-2.38-1.24-3.58-1.79l.41-.91c1.22.56,2.45,1.17,3.64,1.82l-.48.88ZM38.19,416.03l-.42-.91c1.23-.57,2.49-1.09,3.75-1.57l.35.94c-1.24.46-2.48.98-3.68,1.54ZM81.02,414.41c-1.25-.46-2.53-.89-3.8-1.26l.28-.96c1.3.38,2.6.81,3.87,1.28l-.35.94ZM45.67,413.22l-.28-.96c1.3-.39,2.63-.73,3.94-1.01l.21.98c-1.29.28-2.59.62-3.87,1ZM73.35,412.17c-1.29-.28-2.61-.51-3.93-.7l.14-.99c1.35.19,2.69.43,4.01.71l-.21.98ZM53.47,411.51l-.14-.99c1.33-.19,2.69-.34,4.04-.44l.07,1c-1.33.1-2.67.24-3.97.43ZM65.44,411.06c-1.28-.09-2.59-.13-3.88-.13h-.11v-1h.11c1.32,0,2.65.05,3.95.13l-.07,1Z"/>
  <g>
    <rect class="cls-4" x="34.74" y="466.6" width="53.62" height=".75"/>
    <rect class="cls-4" x="61.18" y="440.17" width=".75" height="53.62"/>
  </g>
  <path class="cls-1" d="M90.56,466.98c-29.85-.47-29.48-.84-29.01,29.01.47-29.85.84-29.48-29.01-29.01,29.85.47,29.48.84,29.01-29.01-.47,29.85-.84,29.48,29.01,29.01Z"/>
</svg>